%TF.GenerationSoftware,KiCad,Pcbnew,(6.0.5-0)*%
%TF.CreationDate,2022-06-06T13:25:30-07:00*%
%TF.ProjectId,tl866_27c322_adapter,746c3836-365f-4323-9763-3332325f6164,rev?*%
%TF.SameCoordinates,Original*%
%TF.FileFunction,Soldermask,Bot*%
%TF.FilePolarity,Negative*%
%FSLAX46Y46*%
G04 Gerber Fmt 4.6, Leading zero omitted, Abs format (unit mm)*
G04 Created by KiCad (PCBNEW (6.0.5-0)) date 2022-06-06 13:25:30*
%MOMM*%
%LPD*%
G01*
G04 APERTURE LIST*
G04 Aperture macros list*
%AMRoundRect*
0 Rectangle with rounded corners*
0 $1 Rounding radius*
0 $2 $3 $4 $5 $6 $7 $8 $9 X,Y pos of 4 corners*
0 Add a 4 corners polygon primitive as box body*
4,1,4,$2,$3,$4,$5,$6,$7,$8,$9,$2,$3,0*
0 Add four circle primitives for the rounded corners*
1,1,$1+$1,$2,$3*
1,1,$1+$1,$4,$5*
1,1,$1+$1,$6,$7*
1,1,$1+$1,$8,$9*
0 Add four rect primitives between the rounded corners*
20,1,$1+$1,$2,$3,$4,$5,0*
20,1,$1+$1,$4,$5,$6,$7,0*
20,1,$1+$1,$6,$7,$8,$9,0*
20,1,$1+$1,$8,$9,$2,$3,0*%
G04 Aperture macros list end*
%ADD10C,0.507546*%
%ADD11C,0.349743*%
%ADD12C,0.667969*%
%ADD13C,0.200000*%
%ADD14C,0.456000*%
%ADD15C,0.678751*%
%ADD16C,0.427868*%
%ADD17C,0.456846*%
%ADD18R,1.600000X1.600000*%
%ADD19C,1.600000*%
%ADD20O,1.600000X1.600000*%
%ADD21RoundRect,0.250000X0.450000X-0.262500X0.450000X0.262500X-0.450000X0.262500X-0.450000X-0.262500X0*%
%ADD22RoundRect,0.250000X-0.450000X0.262500X-0.450000X-0.262500X0.450000X-0.262500X0.450000X0.262500X0*%
%ADD23RoundRect,0.150000X-0.587500X-0.150000X0.587500X-0.150000X0.587500X0.150000X-0.587500X0.150000X0*%
G04 APERTURE END LIST*
D10*
X142425125Y-113741200D02*
G75*
G03*
X142425125Y-113741200I-253773J0D01*
G01*
D11*
X140763871Y-115900200D02*
G75*
G03*
X140763871Y-115900200I-174871J0D01*
G01*
D12*
X137984136Y-115087400D02*
G75*
G03*
X137984136Y-115087400I-333984J0D01*
G01*
D13*
G36*
X141210813Y-114944512D02*
G01*
X136207013Y-92414712D01*
X137146813Y-92135312D01*
X141210813Y-114944512D01*
G37*
X141210813Y-114944512D02*
X136207013Y-92414712D01*
X137146813Y-92135312D01*
X141210813Y-114944512D01*
D14*
X138962800Y-114249200D02*
G75*
G03*
X138962800Y-114249200I-228000J0D01*
G01*
D13*
G36*
X140638317Y-93885426D02*
G01*
X139957956Y-114141507D01*
X139952517Y-93783826D01*
X140638317Y-93885426D01*
G37*
X140638317Y-93885426D02*
X139957956Y-114141507D01*
X139952517Y-93783826D01*
X140638317Y-93885426D01*
D15*
X139785375Y-115493800D02*
G75*
G03*
X139785375Y-115493800I-339375J0D01*
G01*
D16*
X138872534Y-113080800D02*
G75*
G03*
X138872534Y-113080800I-213934J0D01*
G01*
D17*
X142265223Y-115747800D02*
G75*
G03*
X142265223Y-115747800I-228423J0D01*
G01*
D13*
X146222980Y-102272895D02*
X145556314Y-102272895D01*
X145651552Y-102272895D02*
X145603933Y-102320514D01*
X145556314Y-102415752D01*
X145556314Y-102558609D01*
X145603933Y-102653847D01*
X145699171Y-102701466D01*
X146222980Y-102701466D01*
X145699171Y-102701466D02*
X145603933Y-102749085D01*
X145556314Y-102844323D01*
X145556314Y-102987180D01*
X145603933Y-103082419D01*
X145699171Y-103130038D01*
X146222980Y-103130038D01*
X146222980Y-104034800D02*
X145699171Y-104034800D01*
X145603933Y-103987180D01*
X145556314Y-103891942D01*
X145556314Y-103701466D01*
X145603933Y-103606228D01*
X146175361Y-104034800D02*
X146222980Y-103939561D01*
X146222980Y-103701466D01*
X146175361Y-103606228D01*
X146080123Y-103558609D01*
X145984885Y-103558609D01*
X145889647Y-103606228D01*
X145842028Y-103701466D01*
X145842028Y-103939561D01*
X145794409Y-104034800D01*
X145556314Y-104368133D02*
X145556314Y-104749085D01*
X145222980Y-104510990D02*
X146080123Y-104510990D01*
X146175361Y-104558609D01*
X146222980Y-104653847D01*
X146222980Y-104749085D01*
X146175361Y-105463371D02*
X146222980Y-105368133D01*
X146222980Y-105177657D01*
X146175361Y-105082419D01*
X146080123Y-105034800D01*
X145699171Y-105034800D01*
X145603933Y-105082419D01*
X145556314Y-105177657D01*
X145556314Y-105368133D01*
X145603933Y-105463371D01*
X145699171Y-105510990D01*
X145794409Y-105510990D01*
X145889647Y-105034800D01*
X146222980Y-105939561D02*
X145556314Y-105939561D01*
X145222980Y-105939561D02*
X145270600Y-105891942D01*
X145318219Y-105939561D01*
X145270600Y-105987180D01*
X145222980Y-105939561D01*
X145318219Y-105939561D01*
X145556314Y-106415752D02*
X146413457Y-106415752D01*
X146508695Y-106368133D01*
X146556314Y-106272895D01*
X146556314Y-106225276D01*
X145222980Y-106415752D02*
X145270600Y-106368133D01*
X145318219Y-106415752D01*
X145270600Y-106463371D01*
X145222980Y-106415752D01*
X145318219Y-106415752D01*
X146222980Y-107034800D02*
X146175361Y-106939561D01*
X146127742Y-106891942D01*
X146032504Y-106844323D01*
X145746790Y-106844323D01*
X145651552Y-106891942D01*
X145603933Y-106939561D01*
X145556314Y-107034800D01*
X145556314Y-107177657D01*
X145603933Y-107272895D01*
X145651552Y-107320514D01*
X145746790Y-107368133D01*
X146032504Y-107368133D01*
X146127742Y-107320514D01*
X146175361Y-107272895D01*
X146222980Y-107177657D01*
X146222980Y-107034800D01*
X146222980Y-107796704D02*
X145556314Y-107796704D01*
X145746790Y-107796704D02*
X145651552Y-107844323D01*
X145603933Y-107891942D01*
X145556314Y-107987180D01*
X145556314Y-108082419D01*
X146222980Y-108844323D02*
X145222980Y-108844323D01*
X146175361Y-108844323D02*
X146222980Y-108749085D01*
X146222980Y-108558609D01*
X146175361Y-108463371D01*
X146127742Y-108415752D01*
X146032504Y-108368133D01*
X145746790Y-108368133D01*
X145651552Y-108415752D01*
X145603933Y-108463371D01*
X145556314Y-108558609D01*
X145556314Y-108749085D01*
X145603933Y-108844323D01*
X146222980Y-109749085D02*
X145699171Y-109749085D01*
X145603933Y-109701466D01*
X145556314Y-109606228D01*
X145556314Y-109415752D01*
X145603933Y-109320514D01*
X146175361Y-109749085D02*
X146222980Y-109653847D01*
X146222980Y-109415752D01*
X146175361Y-109320514D01*
X146080123Y-109272895D01*
X145984885Y-109272895D01*
X145889647Y-109320514D01*
X145842028Y-109415752D01*
X145842028Y-109653847D01*
X145794409Y-109749085D01*
X146175361Y-110653847D02*
X146222980Y-110558609D01*
X146222980Y-110368133D01*
X146175361Y-110272895D01*
X146127742Y-110225276D01*
X146032504Y-110177657D01*
X145746790Y-110177657D01*
X145651552Y-110225276D01*
X145603933Y-110272895D01*
X145556314Y-110368133D01*
X145556314Y-110558609D01*
X145603933Y-110653847D01*
X146222980Y-111082419D02*
X145222980Y-111082419D01*
X146222980Y-111510990D02*
X145699171Y-111510990D01*
X145603933Y-111463371D01*
X145556314Y-111368133D01*
X145556314Y-111225276D01*
X145603933Y-111130038D01*
X145651552Y-111082419D01*
X146175361Y-112368133D02*
X146222980Y-112272895D01*
X146222980Y-112082419D01*
X146175361Y-111987180D01*
X146080123Y-111939561D01*
X145699171Y-111939561D01*
X145603933Y-111987180D01*
X145556314Y-112082419D01*
X145556314Y-112272895D01*
X145603933Y-112368133D01*
X145699171Y-112415752D01*
X145794409Y-112415752D01*
X145889647Y-111939561D01*
X146127742Y-112844323D02*
X146175361Y-112891942D01*
X146222980Y-112844323D01*
X146175361Y-112796704D01*
X146127742Y-112844323D01*
X146222980Y-112844323D01*
X146222980Y-113320514D02*
X145556314Y-113320514D01*
X145222980Y-113320514D02*
X145270600Y-113272895D01*
X145318219Y-113320514D01*
X145270600Y-113368133D01*
X145222980Y-113320514D01*
X145318219Y-113320514D01*
X145556314Y-113796704D02*
X146222980Y-113796704D01*
X145651552Y-113796704D02*
X145603933Y-113844323D01*
X145556314Y-113939561D01*
X145556314Y-114082419D01*
X145603933Y-114177657D01*
X145699171Y-114225276D01*
X146222980Y-114225276D01*
X145556314Y-114558609D02*
X145556314Y-114939561D01*
X146222980Y-114701466D02*
X145365838Y-114701466D01*
X145270600Y-114749085D01*
X145222980Y-114844323D01*
X145222980Y-114939561D01*
X146222980Y-115415752D02*
X146175361Y-115320514D01*
X146127742Y-115272895D01*
X146032504Y-115225276D01*
X145746790Y-115225276D01*
X145651552Y-115272895D01*
X145603933Y-115320514D01*
X145556314Y-115415752D01*
X145556314Y-115558609D01*
X145603933Y-115653847D01*
X145651552Y-115701466D01*
X145746790Y-115749085D01*
X146032504Y-115749085D01*
X146127742Y-115701466D01*
X146175361Y-115653847D01*
X146222980Y-115558609D01*
X146222980Y-115415752D01*
D18*
%TO.C,SW2*%
X135610400Y-54869500D03*
D19*
X135610400Y-57369500D03*
X135610400Y-59869500D03*
X132410400Y-54869500D03*
X132410400Y-57369500D03*
X132410400Y-59869500D03*
%TD*%
D18*
%TO.C,J1*%
X132435600Y-64185800D03*
D20*
X132435600Y-66725800D03*
X132435600Y-69265800D03*
X132435600Y-71805800D03*
X132435600Y-74345800D03*
X132435600Y-76885800D03*
X132435600Y-79425800D03*
X132435600Y-81965800D03*
X132435600Y-84505800D03*
X132435600Y-87045800D03*
X132435600Y-89585800D03*
X132435600Y-92125800D03*
X132435600Y-94665800D03*
X132435600Y-97205800D03*
X132435600Y-99745800D03*
X132435600Y-102285800D03*
X132435600Y-104825800D03*
X132435600Y-107365800D03*
X132435600Y-109905800D03*
X132435600Y-112445800D03*
X132435600Y-114985800D03*
X147675600Y-114985800D03*
X147675600Y-112445800D03*
X147675600Y-109905800D03*
X147675600Y-107365800D03*
X147675600Y-104825800D03*
X147675600Y-102285800D03*
X147675600Y-99745800D03*
X147675600Y-97205800D03*
X147675600Y-94665800D03*
X147675600Y-92125800D03*
X147675600Y-89585800D03*
X147675600Y-87045800D03*
X147675600Y-84505800D03*
X147675600Y-81965800D03*
X147675600Y-79425800D03*
X147675600Y-76885800D03*
X147675600Y-74345800D03*
X147675600Y-71805800D03*
X147675600Y-69265800D03*
X147675600Y-66725800D03*
X147675600Y-64185800D03*
%TD*%
D18*
%TO.C,J2*%
X128569800Y-66705400D03*
D20*
X128569800Y-69245400D03*
X128569800Y-71785400D03*
X128569800Y-74325400D03*
X128569800Y-76865400D03*
X128569800Y-79405400D03*
X128569800Y-81945400D03*
X128569800Y-84485400D03*
X128569800Y-87025400D03*
X128569800Y-89565400D03*
X128569800Y-92105400D03*
X128569800Y-94645400D03*
X128569800Y-97185400D03*
X128569800Y-99725400D03*
X128569800Y-102265400D03*
X128569800Y-104805400D03*
X128569800Y-107345400D03*
X128569800Y-109885400D03*
X128569800Y-112425400D03*
X128569800Y-114965400D03*
X143809800Y-114965400D03*
X143809800Y-112425400D03*
X143809800Y-109885400D03*
X143809800Y-107345400D03*
X143809800Y-104805400D03*
X143809800Y-102265400D03*
X143809800Y-99725400D03*
X143809800Y-97185400D03*
X143809800Y-94645400D03*
X143809800Y-92105400D03*
X143809800Y-89565400D03*
X143809800Y-87025400D03*
X143809800Y-84485400D03*
X143809800Y-81945400D03*
X143809800Y-79405400D03*
X143809800Y-76865400D03*
X143809800Y-74325400D03*
X143809800Y-71785400D03*
X143809800Y-69245400D03*
X143809800Y-66705400D03*
%TD*%
D21*
%TO.C,R4*%
X145821400Y-61694700D03*
X145821400Y-59869700D03*
%TD*%
%TO.C,R5*%
X147853400Y-61694700D03*
X147853400Y-59869700D03*
%TD*%
D22*
%TO.C,R1*%
X139725400Y-59869700D03*
X139725400Y-61694700D03*
%TD*%
D21*
%TO.C,R2*%
X141757400Y-61694700D03*
X141757400Y-59869700D03*
%TD*%
%TO.C,R3*%
X143789400Y-61694700D03*
X143789400Y-59869700D03*
%TD*%
D23*
%TO.C,Q1*%
X137822700Y-55509200D03*
X137822700Y-53609200D03*
X139697700Y-54559200D03*
%TD*%
D22*
%TO.C,C1*%
X137668000Y-59869700D03*
X137668000Y-61694700D03*
%TD*%
M02*
