%FSLAX45Y45*%
G04 Gerber Fmt 4.5, Leading zero omitted, Abs format (unit mm)*
G04 Created by KiCad (PCBNEW (6.0.5-0)) date 2022-06-06 13:25:31*
%MOMM*%
%LPD*%
G01*
G04 APERTURE LIST*
%ADD10C,0.200000*%
G04 APERTURE END LIST*
D10*
X12985679Y-12007056D02*
X12985679Y-11807056D01*
X13033298Y-11807056D01*
X13061869Y-11816580D01*
X13080917Y-11835628D01*
X13090441Y-11854675D01*
X13099965Y-11892770D01*
X13099965Y-11921342D01*
X13090441Y-11959437D01*
X13080917Y-11978485D01*
X13061869Y-11997532D01*
X13033298Y-12007056D01*
X12985679Y-12007056D01*
X13185679Y-12007056D02*
X13185679Y-11873723D01*
X13185679Y-11911818D02*
X13195203Y-11892770D01*
X13204727Y-11883247D01*
X13223774Y-11873723D01*
X13242822Y-11873723D01*
X13309488Y-12007056D02*
X13309488Y-11873723D01*
X13309488Y-11807056D02*
X13299965Y-11816580D01*
X13309488Y-11826104D01*
X13319012Y-11816580D01*
X13309488Y-11807056D01*
X13309488Y-11826104D01*
X13433298Y-12007056D02*
X13414250Y-11997532D01*
X13404727Y-11978485D01*
X13404727Y-11807056D01*
X13538060Y-12007056D02*
X13519012Y-11997532D01*
X13509488Y-11978485D01*
X13509488Y-11807056D01*
X13766631Y-12007056D02*
X13766631Y-11807056D01*
X13833298Y-11949913D01*
X13899965Y-11807056D01*
X13899965Y-12007056D01*
X14080917Y-12007056D02*
X14080917Y-11902294D01*
X14071393Y-11883247D01*
X14052346Y-11873723D01*
X14014250Y-11873723D01*
X13995203Y-11883247D01*
X14080917Y-11997532D02*
X14061869Y-12007056D01*
X14014250Y-12007056D01*
X13995203Y-11997532D01*
X13985679Y-11978485D01*
X13985679Y-11959437D01*
X13995203Y-11940389D01*
X14014250Y-11930866D01*
X14061869Y-11930866D01*
X14080917Y-11921342D01*
X14176155Y-11873723D02*
X14176155Y-12073723D01*
X14176155Y-11883247D02*
X14195203Y-11873723D01*
X14233298Y-11873723D01*
X14252346Y-11883247D01*
X14261869Y-11892770D01*
X14271393Y-11911818D01*
X14271393Y-11968961D01*
X14261869Y-11988008D01*
X14252346Y-11997532D01*
X14233298Y-12007056D01*
X14195203Y-12007056D01*
X14176155Y-11997532D01*
X14357108Y-11988008D02*
X14366631Y-11997532D01*
X14357108Y-12007056D01*
X14347584Y-11997532D01*
X14357108Y-11988008D01*
X14357108Y-12007056D01*
X14357108Y-11883247D02*
X14366631Y-11892770D01*
X14357108Y-11902294D01*
X14347584Y-11892770D01*
X14357108Y-11883247D01*
X14357108Y-11902294D01*
M02*
