%TF.GenerationSoftware,KiCad,Pcbnew,(6.0.7-1)-1*%
%TF.CreationDate,2022-09-30T17:05:21-04:00*%
%TF.ProjectId,tl866_27c322_adapter,746c3836-365f-4323-9763-3332325f6164,rev?*%
%TF.SameCoordinates,Original*%
%TF.FileFunction,Copper,L2,Bot*%
%TF.FilePolarity,Positive*%
%FSLAX46Y46*%
G04 Gerber Fmt 4.6, Leading zero omitted, Abs format (unit mm)*
G04 Created by KiCad (PCBNEW (6.0.7-1)-1) date 2022-09-30 17:05:21*
%MOMM*%
%LPD*%
G01*
G04 APERTURE LIST*
G04 Aperture macros list*
%AMRoundRect*
0 Rectangle with rounded corners*
0 $1 Rounding radius*
0 $2 $3 $4 $5 $6 $7 $8 $9 X,Y pos of 4 corners*
0 Add a 4 corners polygon primitive as box body*
4,1,4,$2,$3,$4,$5,$6,$7,$8,$9,$2,$3,0*
0 Add four circle primitives for the rounded corners*
1,1,$1+$1,$2,$3*
1,1,$1+$1,$4,$5*
1,1,$1+$1,$6,$7*
1,1,$1+$1,$8,$9*
0 Add four rect primitives between the rounded corners*
20,1,$1+$1,$2,$3,$4,$5,0*
20,1,$1+$1,$4,$5,$6,$7,0*
20,1,$1+$1,$6,$7,$8,$9,0*
20,1,$1+$1,$8,$9,$2,$3,0*%
G04 Aperture macros list end*
%TA.AperFunction,ComponentPad*%
%ADD10R,1.600000X1.600000*%
%TD*%
%TA.AperFunction,ComponentPad*%
%ADD11O,1.600000X1.600000*%
%TD*%
%TA.AperFunction,SMDPad,CuDef*%
%ADD12RoundRect,0.250000X0.450000X-0.262500X0.450000X0.262500X-0.450000X0.262500X-0.450000X-0.262500X0*%
%TD*%
%TA.AperFunction,SMDPad,CuDef*%
%ADD13RoundRect,0.250000X-0.450000X0.262500X-0.450000X-0.262500X0.450000X-0.262500X0.450000X0.262500X0*%
%TD*%
%TA.AperFunction,SMDPad,CuDef*%
%ADD14RoundRect,0.150000X-0.587500X-0.150000X0.587500X-0.150000X0.587500X0.150000X-0.587500X0.150000X0*%
%TD*%
%TA.AperFunction,ViaPad*%
%ADD15C,0.800000*%
%TD*%
%TA.AperFunction,Conductor*%
%ADD16C,1.000000*%
%TD*%
%TA.AperFunction,Conductor*%
%ADD17C,0.250000*%
%TD*%
G04 APERTURE END LIST*
D10*
%TO.P,J1,1,Pin_1*%
%TO.N,/A18*%
X132435600Y-64185800D03*
D11*
%TO.P,J1,2,Pin_2*%
%TO.N,/A17*%
X132435600Y-66725800D03*
%TO.P,J1,3,Pin_3*%
%TO.N,/A7*%
X132435600Y-69265800D03*
%TO.P,J1,4,Pin_4*%
%TO.N,/A6*%
X132435600Y-71805800D03*
%TO.P,J1,5,Pin_5*%
%TO.N,/A5*%
X132435600Y-74345800D03*
%TO.P,J1,6,Pin_6*%
%TO.N,/A4*%
X132435600Y-76885800D03*
%TO.P,J1,7,Pin_7*%
%TO.N,/A3*%
X132435600Y-79425800D03*
%TO.P,J1,8,Pin_8*%
%TO.N,/A2*%
X132435600Y-81965800D03*
%TO.P,J1,9,Pin_9*%
%TO.N,/A1*%
X132435600Y-84505800D03*
%TO.P,J1,10,Pin_10*%
%TO.N,/A0*%
X132435600Y-87045800D03*
%TO.P,J1,11,Pin_11*%
%TO.N,/{slash}E*%
X132435600Y-89585800D03*
%TO.P,J1,12,Pin_12*%
%TO.N,GND*%
X132435600Y-92125800D03*
%TO.P,J1,13,Pin_13*%
%TO.N,/{slash}GVpp*%
X132435600Y-94665800D03*
%TO.P,J1,14,Pin_14*%
%TO.N,/Q0*%
X132435600Y-97205800D03*
%TO.P,J1,15,Pin_15*%
%TO.N,/Q8*%
X132435600Y-99745800D03*
%TO.P,J1,16,Pin_16*%
%TO.N,/Q1*%
X132435600Y-102285800D03*
%TO.P,J1,17,Pin_17*%
%TO.N,/Q9*%
X132435600Y-104825800D03*
%TO.P,J1,18,Pin_18*%
%TO.N,/Q2*%
X132435600Y-107365800D03*
%TO.P,J1,19,Pin_19*%
%TO.N,/Q10*%
X132435600Y-109905800D03*
%TO.P,J1,20,Pin_20*%
%TO.N,/Q3*%
X132435600Y-112445800D03*
%TO.P,J1,21,Pin_21*%
%TO.N,/Q11*%
X132435600Y-114985800D03*
%TO.P,J1,22,Pin_22*%
%TO.N,VCC*%
X147675600Y-114985800D03*
%TO.P,J1,23,Pin_23*%
%TO.N,/Q4*%
X147675600Y-112445800D03*
%TO.P,J1,24,Pin_24*%
%TO.N,/Q12*%
X147675600Y-109905800D03*
%TO.P,J1,25,Pin_25*%
%TO.N,/Q5*%
X147675600Y-107365800D03*
%TO.P,J1,26,Pin_26*%
%TO.N,/Q13*%
X147675600Y-104825800D03*
%TO.P,J1,27,Pin_27*%
%TO.N,/Q6*%
X147675600Y-102285800D03*
%TO.P,J1,28,Pin_28*%
%TO.N,/Q14*%
X147675600Y-99745800D03*
%TO.P,J1,29,Pin_29*%
%TO.N,/Q7*%
X147675600Y-97205800D03*
%TO.P,J1,30,Pin_30*%
%TO.N,/Q15*%
X147675600Y-94665800D03*
%TO.P,J1,31,Pin_31*%
%TO.N,GND*%
X147675600Y-92125800D03*
%TO.P,J1,32,Pin_32*%
%TO.N,/A20*%
X147675600Y-89585800D03*
%TO.P,J1,33,Pin_33*%
%TO.N,/A16*%
X147675600Y-87045800D03*
%TO.P,J1,34,Pin_34*%
%TO.N,/A15*%
X147675600Y-84505800D03*
%TO.P,J1,35,Pin_35*%
%TO.N,/A14*%
X147675600Y-81965800D03*
%TO.P,J1,36,Pin_36*%
%TO.N,/A13*%
X147675600Y-79425800D03*
%TO.P,J1,37,Pin_37*%
%TO.N,/A12*%
X147675600Y-76885800D03*
%TO.P,J1,38,Pin_38*%
%TO.N,/A11*%
X147675600Y-74345800D03*
%TO.P,J1,39,Pin_39*%
%TO.N,/A10*%
X147675600Y-71805800D03*
%TO.P,J1,40,Pin_40*%
%TO.N,/A9*%
X147675600Y-69265800D03*
%TO.P,J1,41,Pin_41*%
%TO.N,/A8*%
X147675600Y-66725800D03*
%TO.P,J1,42,Pin_42*%
%TO.N,/A19*%
X147675600Y-64185800D03*
%TD*%
D10*
%TO.P,J2,1,Pin_1*%
%TO.N,/Vpp*%
X128569800Y-66705400D03*
D11*
%TO.P,J2,2,Pin_2*%
%TO.N,/{slash}E*%
X128569800Y-69245400D03*
%TO.P,J2,3,Pin_3*%
%TO.N,/Q15*%
X128569800Y-71785400D03*
%TO.P,J2,4,Pin_4*%
%TO.N,/Q14*%
X128569800Y-74325400D03*
%TO.P,J2,5,Pin_5*%
%TO.N,/Q13*%
X128569800Y-76865400D03*
%TO.P,J2,6,Pin_6*%
%TO.N,/Q12*%
X128569800Y-79405400D03*
%TO.P,J2,7,Pin_7*%
%TO.N,/Q11*%
X128569800Y-81945400D03*
%TO.P,J2,8,Pin_8*%
%TO.N,/Q10*%
X128569800Y-84485400D03*
%TO.P,J2,9,Pin_9*%
%TO.N,/Q9*%
X128569800Y-87025400D03*
%TO.P,J2,10,Pin_10*%
%TO.N,/Q8*%
X128569800Y-89565400D03*
%TO.P,J2,11,Pin_11*%
%TO.N,GND*%
X128569800Y-92105400D03*
%TO.P,J2,12,Pin_12*%
%TO.N,/Q7*%
X128569800Y-94645400D03*
%TO.P,J2,13,Pin_13*%
%TO.N,/Q6*%
X128569800Y-97185400D03*
%TO.P,J2,14,Pin_14*%
%TO.N,/Q5*%
X128569800Y-99725400D03*
%TO.P,J2,15,Pin_15*%
%TO.N,/Q4*%
X128569800Y-102265400D03*
%TO.P,J2,16,Pin_16*%
%TO.N,/Q3*%
X128569800Y-104805400D03*
%TO.P,J2,17,Pin_17*%
%TO.N,/Q2*%
X128569800Y-107345400D03*
%TO.P,J2,18,Pin_18*%
%TO.N,/Q1*%
X128569800Y-109885400D03*
%TO.P,J2,19,Pin_19*%
%TO.N,/Q0*%
X128569800Y-112425400D03*
%TO.P,J2,20,Pin_20*%
%TO.N,/{slash}OE*%
X128569800Y-114965400D03*
%TO.P,J2,21,Pin_21*%
%TO.N,/A0*%
X143809800Y-114965400D03*
%TO.P,J2,22,Pin_22*%
%TO.N,/A1*%
X143809800Y-112425400D03*
%TO.P,J2,23,Pin_23*%
%TO.N,/A2*%
X143809800Y-109885400D03*
%TO.P,J2,24,Pin_24*%
%TO.N,/A3*%
X143809800Y-107345400D03*
%TO.P,J2,25,Pin_25*%
%TO.N,/A4*%
X143809800Y-104805400D03*
%TO.P,J2,26,Pin_26*%
%TO.N,/A5*%
X143809800Y-102265400D03*
%TO.P,J2,27,Pin_27*%
%TO.N,/A6*%
X143809800Y-99725400D03*
%TO.P,J2,28,Pin_28*%
%TO.N,/A7*%
X143809800Y-97185400D03*
%TO.P,J2,29,Pin_29*%
%TO.N,/A8*%
X143809800Y-94645400D03*
%TO.P,J2,30,Pin_30*%
%TO.N,GND*%
X143809800Y-92105400D03*
%TO.P,J2,31,Pin_31*%
%TO.N,/A9*%
X143809800Y-89565400D03*
%TO.P,J2,32,Pin_32*%
%TO.N,/A10*%
X143809800Y-87025400D03*
%TO.P,J2,33,Pin_33*%
%TO.N,/A11*%
X143809800Y-84485400D03*
%TO.P,J2,34,Pin_34*%
%TO.N,/A12*%
X143809800Y-81945400D03*
%TO.P,J2,35,Pin_35*%
%TO.N,/A13*%
X143809800Y-79405400D03*
%TO.P,J2,36,Pin_36*%
%TO.N,/A14*%
X143809800Y-76865400D03*
%TO.P,J2,37,Pin_37*%
%TO.N,/A15*%
X143809800Y-74325400D03*
%TO.P,J2,38,Pin_38*%
%TO.N,/A16*%
X143809800Y-71785400D03*
%TO.P,J2,39,Pin_39*%
%TO.N,/A17*%
X143809800Y-69245400D03*
%TO.P,J2,40,Pin_40*%
%TO.N,VCC*%
X143809800Y-66705400D03*
%TD*%
D12*
%TO.P,R4,1*%
%TO.N,GND*%
X145821400Y-61694700D03*
%TO.P,R4,2*%
%TO.N,/A19*%
X145821400Y-59869700D03*
%TD*%
%TO.P,R5,1*%
%TO.N,GND*%
X147853400Y-61694700D03*
%TO.P,R5,2*%
%TO.N,/A18*%
X147853400Y-59869700D03*
%TD*%
D13*
%TO.P,R1,1*%
%TO.N,Net-(Q1-Pad1)*%
X139725400Y-59869700D03*
%TO.P,R1,2*%
%TO.N,VCC*%
X139725400Y-61694700D03*
%TD*%
D12*
%TO.P,R2,1*%
%TO.N,GND*%
X141757400Y-61694700D03*
%TO.P,R2,2*%
%TO.N,Net-(Q1-Pad3)*%
X141757400Y-59869700D03*
%TD*%
%TO.P,R3,1*%
%TO.N,GND*%
X143789400Y-61694700D03*
%TO.P,R3,2*%
%TO.N,Net-(R3-Pad2)*%
X143789400Y-59869700D03*
%TD*%
D14*
%TO.P,Q1,1,B*%
%TO.N,Net-(Q1-Pad1)*%
X138279900Y-55534600D03*
%TO.P,Q1,2,E*%
%TO.N,/Vpp*%
X138279900Y-53634600D03*
%TO.P,Q1,3,C*%
%TO.N,Net-(Q1-Pad3)*%
X140154900Y-54584600D03*
%TD*%
D13*
%TO.P,C1,1*%
%TO.N,GND*%
X137668000Y-59869700D03*
%TO.P,C1,2*%
%TO.N,VCC*%
X137668000Y-61694700D03*
%TD*%
D15*
%TO.N,GND*%
X145796000Y-61722000D03*
X141224000Y-70231000D03*
%TO.N,VCC*%
X139725400Y-61694700D03*
X139827000Y-66001300D03*
%TO.N,/A18*%
X141986000Y-54229000D03*
X136779000Y-54483000D03*
%TO.N,/A7*%
X137283000Y-96515300D03*
X134747000Y-69342000D03*
%TO.N,/A6*%
X139700000Y-69469000D03*
X141769500Y-99695000D03*
%TO.N,/A5*%
X137930952Y-74303952D03*
X141172000Y-102362000D03*
%TO.N,/A4*%
X141097000Y-104902000D03*
X137572500Y-76835000D03*
%TO.N,/A3*%
X134747000Y-79502000D03*
X136779000Y-107569000D03*
%TO.N,/A2*%
X135932500Y-109855000D03*
X135032500Y-81915000D03*
%TO.N,/A1*%
X135509000Y-112395000D03*
X135128000Y-84455000D03*
%TO.N,/A0*%
X135032500Y-86995000D03*
X135763000Y-114935000D03*
%TO.N,/{slash}GVpp*%
X135255000Y-57912000D03*
X138182500Y-94615000D03*
X136030025Y-64770964D03*
%TO.N,/Q0*%
X136017000Y-110998000D03*
X138180299Y-97794299D03*
%TO.N,/Q8*%
X138392500Y-100330000D03*
X139082500Y-89916000D03*
%TO.N,/Q1*%
X137282500Y-105156000D03*
X137283000Y-102235000D03*
%TO.N,/Q9*%
X140335000Y-104229500D03*
X140165500Y-89916000D03*
%TO.N,/Q10*%
X137668000Y-106172000D03*
X137445500Y-82665954D03*
%TO.N,/Q11*%
X134620000Y-115062000D03*
X134747000Y-80772000D03*
%TO.N,/Q4*%
X142748000Y-103505000D03*
X141859000Y-111125000D03*
%TO.N,/Q12*%
X136779000Y-108712000D03*
X134747000Y-78232000D03*
%TO.N,/Q5*%
X141896500Y-106172000D03*
X141986000Y-101092000D03*
%TO.N,/Q13*%
X145034000Y-93345000D03*
X138182500Y-93218000D03*
X135471500Y-75692000D03*
%TO.N,/Q6*%
X142494000Y-98425000D03*
X143002000Y-100965000D03*
%TO.N,/Q14*%
X138049000Y-64770000D03*
X145288000Y-68834000D03*
X137160000Y-73025000D03*
%TO.N,/Q15*%
X137122500Y-70485000D03*
X146304000Y-68834000D03*
X137668000Y-63754000D03*
%TO.N,/A20*%
X139229500Y-80518000D03*
%TO.N,/A19*%
X145923000Y-59309000D03*
%TO.N,/Vpp*%
X133096000Y-58039000D03*
%TO.N,/{slash}OE*%
X133858000Y-116205000D03*
%TO.N,Net-(Q1-Pad3)*%
X136652000Y-52959000D03*
%TO.N,Net-(R3-Pad2)*%
X142748000Y-58674000D03*
%TD*%
D16*
%TO.N,GND*%
X142905400Y-92105400D02*
X143809800Y-92105400D01*
D17*
X138655500Y-60857200D02*
X140919900Y-60857200D01*
D16*
X139065000Y-73533000D02*
X139065000Y-78613000D01*
X145821400Y-61696600D02*
X145821400Y-61694700D01*
X141859800Y-91059800D02*
X142905400Y-92105400D01*
X143809800Y-92105400D02*
X132456000Y-92105400D01*
X139065000Y-78613000D02*
X137922000Y-79756000D01*
D17*
X132456000Y-92105400D02*
X132435600Y-92125800D01*
X140919900Y-60857200D02*
X141757400Y-61694700D01*
D16*
X141224000Y-71374000D02*
X139065000Y-73533000D01*
X137922000Y-79756000D02*
X137922000Y-81280000D01*
X141859800Y-89916800D02*
X141859800Y-91059800D01*
X145796000Y-61722000D02*
X145821400Y-61696600D01*
X141224000Y-70231000D02*
X141224000Y-71374000D01*
X138679000Y-86736000D02*
X141859800Y-89916800D01*
D17*
X137668000Y-59869700D02*
X138655500Y-60857200D01*
D16*
X138679000Y-82037000D02*
X138679000Y-86736000D01*
X137922000Y-81280000D02*
X138679000Y-82037000D01*
D17*
%TO.N,VCC*%
X137668000Y-61694700D02*
X139725400Y-61694700D01*
X143105700Y-66001300D02*
X139827000Y-66001300D01*
X143809800Y-66705400D02*
X143105700Y-66001300D01*
%TO.N,/A18*%
X134112000Y-55626000D02*
X134112000Y-63754000D01*
X134112000Y-63754000D02*
X133680200Y-64185800D01*
X147853400Y-59071095D02*
X147329305Y-58547000D01*
X147853400Y-59869700D02*
X147853400Y-59071095D01*
X133680200Y-64185800D02*
X132435600Y-64185800D01*
X141986000Y-56769000D02*
X141986000Y-54229000D01*
X143764000Y-58547000D02*
X141986000Y-56769000D01*
X132486400Y-64135000D02*
X132435600Y-64185800D01*
X135255000Y-54483000D02*
X134112000Y-55626000D01*
X147329305Y-58547000D02*
X143764000Y-58547000D01*
X136779000Y-54483000D02*
X135255000Y-54483000D01*
%TO.N,/A17*%
X132435600Y-66725800D02*
X141290200Y-66725800D01*
X141290200Y-66725800D02*
X143809800Y-69245400D01*
%TO.N,/A7*%
X143017400Y-96393000D02*
X143809800Y-97185400D01*
X137283000Y-96515300D02*
X137405300Y-96393000D01*
X137405300Y-96393000D02*
X143017400Y-96393000D01*
X134747000Y-69342000D02*
X134670800Y-69265800D01*
X134670800Y-69265800D02*
X132435600Y-69265800D01*
%TO.N,/A6*%
X137363200Y-71805800D02*
X132435600Y-71805800D01*
X139700000Y-69469000D02*
X137363200Y-71805800D01*
X141799900Y-99725400D02*
X143809800Y-99725400D01*
X141769500Y-99695000D02*
X141799900Y-99725400D01*
%TO.N,/A5*%
X137930952Y-74303952D02*
X137278048Y-74303952D01*
X141268600Y-102265400D02*
X143809800Y-102265400D01*
X141172000Y-102362000D02*
X141268600Y-102265400D01*
X137236200Y-74345800D02*
X132435600Y-74345800D01*
X137278048Y-74303952D02*
X137236200Y-74345800D01*
%TO.N,/A4*%
X141097000Y-104902000D02*
X141193600Y-104805400D01*
X135913050Y-76835000D02*
X135862250Y-76885800D01*
X141193600Y-104805400D02*
X143809800Y-104805400D01*
X137572500Y-76835000D02*
X135913050Y-76835000D01*
X135862250Y-76885800D02*
X132435600Y-76885800D01*
%TO.N,/A3*%
X136779000Y-107569000D02*
X137002600Y-107345400D01*
X137002600Y-107345400D02*
X143809800Y-107345400D01*
X134747000Y-79502000D02*
X134670800Y-79425800D01*
X134670800Y-79425800D02*
X132435600Y-79425800D01*
%TO.N,/A2*%
X135962900Y-109885400D02*
X143809800Y-109885400D01*
X134981700Y-81965800D02*
X132435600Y-81965800D01*
X135932500Y-109855000D02*
X135962900Y-109885400D01*
X135032500Y-81915000D02*
X134981700Y-81965800D01*
%TO.N,/A1*%
X135539400Y-112425400D02*
X143809800Y-112425400D01*
X135077200Y-84505800D02*
X132435600Y-84505800D01*
X135128000Y-84455000D02*
X135077200Y-84505800D01*
X135509000Y-112395000D02*
X135539400Y-112425400D01*
%TO.N,/A0*%
X135763000Y-114935000D02*
X135793400Y-114965400D01*
X134981700Y-87045800D02*
X132435600Y-87045800D01*
X135793400Y-114965400D02*
X143809800Y-114965400D01*
X135032500Y-86995000D02*
X134981700Y-87045800D01*
%TO.N,/{slash}GVpp*%
X136030025Y-63640025D02*
X136030025Y-58687025D01*
X138182500Y-94615000D02*
X138131700Y-94665800D01*
X138131700Y-94665800D02*
X132435600Y-94665800D01*
X136030025Y-64770964D02*
X136030025Y-63640025D01*
X136030025Y-58687025D02*
X135255000Y-57912000D01*
%TO.N,/Q0*%
X129964400Y-111030800D02*
X128569800Y-112425400D01*
X135984200Y-111030800D02*
X129964400Y-111030800D01*
X136017000Y-110998000D02*
X135984200Y-111030800D01*
X137930598Y-98044000D02*
X136835598Y-98044000D01*
X138180299Y-97794299D02*
X137930598Y-98044000D01*
X136835598Y-98044000D02*
X135997398Y-97205800D01*
X135997398Y-97205800D02*
X132435600Y-97205800D01*
%TO.N,/Q8*%
X138392500Y-100330000D02*
X137808300Y-99745800D01*
X136482300Y-88460800D02*
X129674400Y-88460800D01*
X139082500Y-89916000D02*
X137937500Y-89916000D01*
X137937500Y-89916000D02*
X136482300Y-88460800D01*
X129674400Y-88460800D02*
X128569800Y-89565400D01*
X137808300Y-99745800D02*
X132435600Y-99745800D01*
%TO.N,/Q1*%
X137282500Y-105156000D02*
X136236391Y-105156000D01*
X129743200Y-108712000D02*
X128569800Y-109885400D01*
X137283000Y-102235000D02*
X137232200Y-102285800D01*
X137232200Y-102285800D02*
X132435600Y-102285800D01*
X136236391Y-105156000D02*
X132680391Y-108712000D01*
X132680391Y-108712000D02*
X129743200Y-108712000D01*
%TO.N,/Q9*%
X132994400Y-104267000D02*
X132435600Y-104825800D01*
X138340000Y-89191000D02*
X135069800Y-85920800D01*
X139440500Y-89191000D02*
X138340000Y-89191000D01*
X140165500Y-89916000D02*
X139440500Y-89191000D01*
X140297500Y-104267000D02*
X132994400Y-104267000D01*
X129674400Y-85920800D02*
X128569800Y-87025400D01*
X135069800Y-85920800D02*
X129674400Y-85920800D01*
X140335000Y-104229500D02*
X140297500Y-104267000D01*
%TO.N,/Q2*%
X128569800Y-107345400D02*
X132415200Y-107345400D01*
X132415200Y-107345400D02*
X132435600Y-107365800D01*
%TO.N,/Q10*%
X136169400Y-106172000D02*
X132435600Y-109905800D01*
X129743200Y-83312000D02*
X128569800Y-84485400D01*
X137445500Y-82665954D02*
X136799454Y-83312000D01*
X136799454Y-83312000D02*
X129743200Y-83312000D01*
X137668000Y-106172000D02*
X136169400Y-106172000D01*
%TO.N,/Q11*%
X129743200Y-80772000D02*
X128569800Y-81945400D01*
X134543800Y-114985800D02*
X134620000Y-115062000D01*
X132435600Y-114985800D02*
X134543800Y-114985800D01*
X134747000Y-80772000D02*
X129743200Y-80772000D01*
%TO.N,/Q4*%
X141859000Y-111125000D02*
X146354800Y-111125000D01*
X146354800Y-111125000D02*
X147675600Y-112445800D01*
X129809400Y-103505000D02*
X128569800Y-102265400D01*
X142748000Y-103505000D02*
X129809400Y-103505000D01*
%TO.N,/Q12*%
X129870200Y-78105000D02*
X128569800Y-79405400D01*
X146481800Y-108712000D02*
X147675600Y-109905800D01*
X134747000Y-78232000D02*
X134620000Y-78105000D01*
X136779000Y-108712000D02*
X146481800Y-108712000D01*
X134620000Y-78105000D02*
X129870200Y-78105000D01*
%TO.N,/Q5*%
X129936400Y-101092000D02*
X128569800Y-99725400D01*
X141896500Y-106172000D02*
X146481800Y-106172000D01*
X141986000Y-101092000D02*
X129936400Y-101092000D01*
X146481800Y-106172000D02*
X147675600Y-107365800D01*
%TO.N,/Q13*%
X129743200Y-75692000D02*
X128569800Y-76865400D01*
X135471500Y-75692000D02*
X129743200Y-75692000D01*
X145034000Y-93345000D02*
X138309500Y-93345000D01*
X138309500Y-93345000D02*
X138182500Y-93218000D01*
%TO.N,/Q6*%
X130005200Y-98620800D02*
X128569800Y-97185400D01*
X142298200Y-98620800D02*
X130005200Y-98620800D01*
X143002000Y-100965000D02*
X143129000Y-101092000D01*
X142494000Y-98425000D02*
X142298200Y-98620800D01*
X146481800Y-101092000D02*
X147675600Y-102285800D01*
X143129000Y-101092000D02*
X146481800Y-101092000D01*
%TO.N,/Q14*%
X137013599Y-73171401D02*
X129723799Y-73171401D01*
X144018000Y-65024000D02*
X145288000Y-66294000D01*
X137160000Y-73025000D02*
X137013599Y-73171401D01*
X138049000Y-64770000D02*
X138303000Y-65024000D01*
X129723799Y-73171401D02*
X128569800Y-74325400D01*
X138303000Y-65024000D02*
X144018000Y-65024000D01*
X145288000Y-66294000D02*
X145288000Y-68834000D01*
%TO.N,/Q7*%
X146260600Y-95790800D02*
X147675600Y-97205800D01*
X129715200Y-95790800D02*
X146260600Y-95790800D01*
X128569800Y-94645400D02*
X129715200Y-95790800D01*
%TO.N,/Q15*%
X129870200Y-70485000D02*
X128569800Y-71785400D01*
X146304000Y-66673604D02*
X146304000Y-68834000D01*
X144204396Y-64574000D02*
X146304000Y-66673604D01*
X137668000Y-63754000D02*
X138176500Y-63245500D01*
X138176500Y-63245500D02*
X138476305Y-63245500D01*
X139804805Y-64574000D02*
X144204396Y-64574000D01*
X137122500Y-70485000D02*
X129870200Y-70485000D01*
X138476305Y-63245500D02*
X139804805Y-64574000D01*
%TO.N,/A20*%
X139504000Y-86037000D02*
X142684800Y-89217800D01*
X139504000Y-80792500D02*
X139504000Y-86037000D01*
X142684800Y-90031391D02*
X143458409Y-90805000D01*
X143458409Y-90805000D02*
X146456400Y-90805000D01*
X139229500Y-80518000D02*
X139504000Y-80792500D01*
X142684800Y-89217800D02*
X142684800Y-90031391D01*
X146456400Y-90805000D02*
X147675600Y-89585800D01*
%TO.N,/A16*%
X143809800Y-71785400D02*
X140520000Y-75075200D01*
X140520000Y-85503366D02*
X143408634Y-88392000D01*
X143408634Y-88392000D02*
X146329400Y-88392000D01*
X146329400Y-88392000D02*
X147675600Y-87045800D01*
X140520000Y-75075200D02*
X140520000Y-85503366D01*
%TO.N,/A15*%
X143809800Y-74325400D02*
X141456199Y-76679001D01*
X141456199Y-84380401D02*
X142800798Y-85725000D01*
X146456400Y-85725000D02*
X147675600Y-84505800D01*
X141456199Y-76679001D02*
X141456199Y-84380401D01*
X142800798Y-85725000D02*
X146456400Y-85725000D01*
%TO.N,/A14*%
X147675600Y-81965800D02*
X146329400Y-83312000D01*
X142356199Y-82285199D02*
X142356199Y-78319001D01*
X146329400Y-83312000D02*
X143383000Y-83312000D01*
X143383000Y-83312000D02*
X142356199Y-82285199D01*
X142356199Y-78319001D02*
X143809800Y-76865400D01*
%TO.N,/A13*%
X147655200Y-79405400D02*
X147675600Y-79425800D01*
X143809800Y-79405400D02*
X147655200Y-79405400D01*
%TO.N,/A12*%
X148800600Y-78010800D02*
X147675600Y-76885800D01*
X148800600Y-79926400D02*
X148800600Y-78010800D01*
X148176200Y-80550800D02*
X148800600Y-79926400D01*
X145204400Y-80550800D02*
X148176200Y-80550800D01*
X143809800Y-81945400D02*
X145204400Y-80550800D01*
%TO.N,/A11*%
X141906199Y-77178010D02*
X143633809Y-75450400D01*
X143809800Y-84485400D02*
X141906199Y-82581799D01*
X143633809Y-75450400D02*
X146571000Y-75450400D01*
X146571000Y-75450400D02*
X147675600Y-74345800D01*
X141906199Y-82581799D02*
X141906199Y-77178010D01*
%TO.N,/A10*%
X143370600Y-72910400D02*
X146571000Y-72910400D01*
X146571000Y-72910400D02*
X147675600Y-71805800D01*
X143809800Y-87025400D02*
X142678430Y-87025400D01*
X140970000Y-75311000D02*
X143370600Y-72910400D01*
X142678430Y-87025400D02*
X140970000Y-85316970D01*
X140970000Y-85316970D02*
X140970000Y-75311000D01*
%TO.N,/A9*%
X143519209Y-70485000D02*
X146456400Y-70485000D01*
X139954000Y-85709600D02*
X139954000Y-74050209D01*
X139954000Y-74050209D02*
X143519209Y-70485000D01*
X143809800Y-89565400D02*
X139954000Y-85709600D01*
X146456400Y-70485000D02*
X147675600Y-69265800D01*
%TO.N,/A19*%
X148878400Y-61194027D02*
X148878400Y-62983000D01*
X148391573Y-60707200D02*
X148878400Y-61194027D01*
X145821400Y-59869700D02*
X146658900Y-60707200D01*
X145821400Y-59410600D02*
X145821400Y-59869700D01*
X146658900Y-60707200D02*
X148391573Y-60707200D01*
X148878400Y-62983000D02*
X147675600Y-64185800D01*
X145923000Y-59309000D02*
X145821400Y-59410600D01*
%TO.N,/Vpp*%
X133096000Y-55753000D02*
X133096000Y-58039000D01*
X135128000Y-53721000D02*
X133096000Y-55753000D01*
X128620600Y-66705400D02*
X128569800Y-66705400D01*
X138279900Y-53634600D02*
X138193500Y-53721000D01*
X138193500Y-53721000D02*
X135128000Y-53721000D01*
%TO.N,/{slash}OE*%
X128569800Y-114965400D02*
X129809400Y-116205000D01*
X129809400Y-116205000D02*
X133858000Y-116205000D01*
%TO.N,Net-(Q1-Pad1)*%
X139725400Y-59869700D02*
X138279900Y-58424200D01*
X138279900Y-58424200D02*
X138279900Y-55534600D01*
%TO.N,Net-(Q1-Pad3)*%
X140154900Y-53794900D02*
X140154900Y-54584600D01*
X140175400Y-56793704D02*
X140175400Y-58287700D01*
X136652000Y-52959000D02*
X139319000Y-52959000D01*
X140175400Y-58287700D02*
X141757400Y-59869700D01*
X140154900Y-54584600D02*
X140154900Y-56773204D01*
X140154900Y-56773204D02*
X140175400Y-56793704D01*
X139319000Y-52959000D02*
X140154900Y-53794900D01*
%TO.N,Net-(R3-Pad2)*%
X143789400Y-59869700D02*
X143789400Y-59715400D01*
X143789400Y-59715400D02*
X142748000Y-58674000D01*
%TD*%
%TA.AperFunction,Conductor*%
%TO.N,GND*%
G36*
X141043727Y-67379302D02*
G01*
X141064701Y-67396205D01*
X142500648Y-68832152D01*
X142534674Y-68894464D01*
X142533259Y-68953859D01*
X142517682Y-69011991D01*
X142517681Y-69011998D01*
X142516257Y-69017313D01*
X142496302Y-69245400D01*
X142516257Y-69473487D01*
X142517681Y-69478800D01*
X142517681Y-69478802D01*
X142564188Y-69652365D01*
X142575516Y-69694643D01*
X142577839Y-69699624D01*
X142577839Y-69699625D01*
X142669951Y-69897162D01*
X142669954Y-69897167D01*
X142672277Y-69902149D01*
X142803602Y-70089700D01*
X142822008Y-70108106D01*
X142856034Y-70170418D01*
X142850969Y-70241233D01*
X142822008Y-70286296D01*
X139561747Y-73546557D01*
X139553461Y-73554097D01*
X139546982Y-73558209D01*
X139541557Y-73563986D01*
X139500357Y-73607860D01*
X139497602Y-73610702D01*
X139477865Y-73630439D01*
X139475385Y-73633636D01*
X139467682Y-73642656D01*
X139437414Y-73674888D01*
X139433595Y-73681834D01*
X139433593Y-73681837D01*
X139427652Y-73692643D01*
X139416801Y-73709162D01*
X139404386Y-73725168D01*
X139401241Y-73732437D01*
X139401238Y-73732441D01*
X139386826Y-73765746D01*
X139381609Y-73776396D01*
X139360305Y-73815149D01*
X139358334Y-73822824D01*
X139358334Y-73822825D01*
X139355267Y-73834771D01*
X139348863Y-73853475D01*
X139340819Y-73872064D01*
X139339580Y-73879887D01*
X139339577Y-73879897D01*
X139333901Y-73915733D01*
X139331495Y-73927353D01*
X139322472Y-73962498D01*
X139320500Y-73970179D01*
X139320500Y-73990433D01*
X139318949Y-74010143D01*
X139315780Y-74030152D01*
X139316526Y-74038044D01*
X139319941Y-74074170D01*
X139320500Y-74086028D01*
X139320500Y-79483500D01*
X139300498Y-79551621D01*
X139246842Y-79598114D01*
X139194500Y-79609500D01*
X139134013Y-79609500D01*
X139127561Y-79610872D01*
X139127556Y-79610872D01*
X139046945Y-79628007D01*
X138947212Y-79649206D01*
X138941182Y-79651891D01*
X138941181Y-79651891D01*
X138778778Y-79724197D01*
X138778776Y-79724198D01*
X138772748Y-79726882D01*
X138618247Y-79839134D01*
X138613826Y-79844044D01*
X138613825Y-79844045D01*
X138590696Y-79869733D01*
X138490460Y-79981056D01*
X138487159Y-79986774D01*
X138400426Y-80137000D01*
X138394973Y-80146444D01*
X138335958Y-80328072D01*
X138315996Y-80518000D01*
X138335958Y-80707928D01*
X138394973Y-80889556D01*
X138398276Y-80895278D01*
X138398277Y-80895279D01*
X138432186Y-80954010D01*
X138490460Y-81054944D01*
X138494878Y-81059851D01*
X138494879Y-81059852D01*
X138609525Y-81187179D01*
X138618247Y-81196866D01*
X138772748Y-81309118D01*
X138778775Y-81311801D01*
X138778783Y-81311806D01*
X138795750Y-81319360D01*
X138849845Y-81365340D01*
X138870500Y-81434466D01*
X138870500Y-85958233D01*
X138869973Y-85969416D01*
X138868298Y-85976909D01*
X138868547Y-85984835D01*
X138868547Y-85984836D01*
X138870438Y-86044986D01*
X138870500Y-86048945D01*
X138870500Y-86076856D01*
X138870997Y-86080790D01*
X138870997Y-86080791D01*
X138871005Y-86080856D01*
X138871938Y-86092693D01*
X138873327Y-86136889D01*
X138878978Y-86156339D01*
X138882987Y-86175700D01*
X138885526Y-86195797D01*
X138888445Y-86203168D01*
X138888445Y-86203170D01*
X138901804Y-86236912D01*
X138905649Y-86248142D01*
X138917982Y-86290593D01*
X138922015Y-86297412D01*
X138922017Y-86297417D01*
X138928293Y-86308028D01*
X138936988Y-86325776D01*
X138944448Y-86344617D01*
X138949110Y-86351033D01*
X138949110Y-86351034D01*
X138970436Y-86380387D01*
X138976952Y-86390307D01*
X138999458Y-86428362D01*
X139013779Y-86442683D01*
X139026619Y-86457716D01*
X139038528Y-86474107D01*
X139044634Y-86479158D01*
X139072605Y-86502298D01*
X139081384Y-86510288D01*
X142014395Y-89443299D01*
X142048421Y-89505611D01*
X142051300Y-89532394D01*
X142051300Y-89952624D01*
X142050773Y-89963807D01*
X142049098Y-89971300D01*
X142049347Y-89979226D01*
X142049347Y-89979227D01*
X142051238Y-90039377D01*
X142051300Y-90043336D01*
X142051300Y-90071247D01*
X142051797Y-90075181D01*
X142051797Y-90075182D01*
X142051805Y-90075247D01*
X142052738Y-90087084D01*
X142054127Y-90131280D01*
X142059778Y-90150730D01*
X142063787Y-90170091D01*
X142066326Y-90190188D01*
X142069245Y-90197559D01*
X142069245Y-90197561D01*
X142082604Y-90231303D01*
X142086449Y-90242533D01*
X142098782Y-90284984D01*
X142102815Y-90291803D01*
X142102817Y-90291808D01*
X142109093Y-90302419D01*
X142117788Y-90320167D01*
X142125248Y-90339008D01*
X142129910Y-90345424D01*
X142129910Y-90345425D01*
X142151236Y-90374778D01*
X142157752Y-90384698D01*
X142169871Y-90405189D01*
X142180258Y-90422753D01*
X142194579Y-90437074D01*
X142207419Y-90452107D01*
X142219328Y-90468498D01*
X142253405Y-90496689D01*
X142262184Y-90504679D01*
X142822362Y-91064857D01*
X142856388Y-91127169D01*
X142851323Y-91197984D01*
X142822362Y-91243047D01*
X142807884Y-91257525D01*
X142800828Y-91265933D01*
X142675869Y-91444393D01*
X142670386Y-91453889D01*
X142578310Y-91651347D01*
X142574564Y-91661639D01*
X142528406Y-91833903D01*
X142528742Y-91847999D01*
X142536684Y-91851400D01*
X145077767Y-91851400D01*
X145091298Y-91847427D01*
X145092527Y-91838878D01*
X145045036Y-91661639D01*
X145041288Y-91651342D01*
X145025624Y-91617751D01*
X145014962Y-91547559D01*
X145043941Y-91482746D01*
X145103361Y-91443890D01*
X145139818Y-91438500D01*
X146355094Y-91438500D01*
X146423215Y-91458502D01*
X146469708Y-91512158D01*
X146479812Y-91582432D01*
X146469289Y-91617749D01*
X146444112Y-91671742D01*
X146440364Y-91682039D01*
X146394206Y-91854303D01*
X146394542Y-91868399D01*
X146402484Y-91871800D01*
X147803600Y-91871800D01*
X147871721Y-91891802D01*
X147918214Y-91945458D01*
X147929600Y-91997800D01*
X147929600Y-92253800D01*
X147909598Y-92321921D01*
X147855942Y-92368414D01*
X147803600Y-92379800D01*
X146407633Y-92379800D01*
X146394102Y-92383773D01*
X146392873Y-92392322D01*
X146440364Y-92569561D01*
X146444110Y-92579853D01*
X146536186Y-92777311D01*
X146541669Y-92786807D01*
X146666628Y-92965267D01*
X146673684Y-92973675D01*
X146827725Y-93127716D01*
X146836133Y-93134772D01*
X147014593Y-93259731D01*
X147024089Y-93265214D01*
X147058649Y-93281329D01*
X147111934Y-93328246D01*
X147131395Y-93396523D01*
X147110853Y-93464483D01*
X147058649Y-93509719D01*
X147023838Y-93525951D01*
X147023833Y-93525954D01*
X147018851Y-93528277D01*
X146923163Y-93595279D01*
X146835811Y-93656443D01*
X146835808Y-93656445D01*
X146831300Y-93659602D01*
X146669402Y-93821500D01*
X146666245Y-93826008D01*
X146666243Y-93826011D01*
X146624240Y-93885998D01*
X146538077Y-94009051D01*
X146535754Y-94014033D01*
X146535751Y-94014038D01*
X146443856Y-94211109D01*
X146441316Y-94216557D01*
X146439894Y-94221865D01*
X146439893Y-94221867D01*
X146383481Y-94432398D01*
X146382057Y-94437713D01*
X146362102Y-94665800D01*
X146382057Y-94893887D01*
X146383480Y-94899199D01*
X146383481Y-94899202D01*
X146409181Y-94995115D01*
X146407491Y-95066091D01*
X146367697Y-95124887D01*
X146302433Y-95152835D01*
X146286637Y-95153527D01*
X146280657Y-95152580D01*
X146272765Y-95153326D01*
X146272764Y-95153326D01*
X146236639Y-95156741D01*
X146224781Y-95157300D01*
X145191502Y-95157300D01*
X145123381Y-95137298D01*
X145076888Y-95083642D01*
X145066784Y-95013368D01*
X145069795Y-94998689D01*
X145101919Y-94878802D01*
X145101920Y-94878798D01*
X145103343Y-94873487D01*
X145123298Y-94645400D01*
X145103343Y-94417313D01*
X145101921Y-94412006D01*
X145101919Y-94411995D01*
X145097589Y-94395836D01*
X145099279Y-94324860D01*
X145139074Y-94266064D01*
X145193099Y-94239979D01*
X145229903Y-94232156D01*
X145316288Y-94213794D01*
X145355902Y-94196157D01*
X145484722Y-94138803D01*
X145484724Y-94138802D01*
X145490752Y-94136118D01*
X145645253Y-94023866D01*
X145656854Y-94010982D01*
X145768621Y-93886852D01*
X145768622Y-93886851D01*
X145773040Y-93881944D01*
X145831314Y-93781010D01*
X145865223Y-93722279D01*
X145865224Y-93722278D01*
X145868527Y-93716556D01*
X145927542Y-93534928D01*
X145930054Y-93511034D01*
X145946814Y-93351565D01*
X145947504Y-93345000D01*
X145932304Y-93200381D01*
X145928232Y-93161635D01*
X145928232Y-93161633D01*
X145927542Y-93155072D01*
X145868527Y-92973444D01*
X145856883Y-92953275D01*
X145776341Y-92813774D01*
X145773040Y-92808056D01*
X145753908Y-92786807D01*
X145649675Y-92671045D01*
X145649674Y-92671044D01*
X145645253Y-92666134D01*
X145490752Y-92553882D01*
X145484724Y-92551198D01*
X145484722Y-92551197D01*
X145322319Y-92478891D01*
X145322318Y-92478891D01*
X145316288Y-92476206D01*
X145189821Y-92449324D01*
X145127349Y-92415597D01*
X145113428Y-92390389D01*
X145111552Y-92391659D01*
X145092495Y-92363502D01*
X145082916Y-92359400D01*
X142541833Y-92359400D01*
X142528302Y-92363373D01*
X142527073Y-92371922D01*
X142575563Y-92552889D01*
X142573873Y-92623865D01*
X142534079Y-92682661D01*
X142468814Y-92710609D01*
X142453856Y-92711500D01*
X139005050Y-92711500D01*
X138936929Y-92691498D01*
X138911414Y-92669810D01*
X138798175Y-92544045D01*
X138798174Y-92544044D01*
X138793753Y-92539134D01*
X138639252Y-92426882D01*
X138633224Y-92424198D01*
X138633222Y-92424197D01*
X138470819Y-92351891D01*
X138470818Y-92351891D01*
X138464788Y-92349206D01*
X138371388Y-92329353D01*
X138284444Y-92310872D01*
X138284439Y-92310872D01*
X138277987Y-92309500D01*
X138087013Y-92309500D01*
X138080561Y-92310872D01*
X138080556Y-92310872D01*
X137993612Y-92329353D01*
X137900212Y-92349206D01*
X137894182Y-92351891D01*
X137894181Y-92351891D01*
X137731778Y-92424197D01*
X137731776Y-92424198D01*
X137725748Y-92426882D01*
X137571247Y-92539134D01*
X137443460Y-92681056D01*
X137387887Y-92777311D01*
X137382405Y-92786807D01*
X137347973Y-92846444D01*
X137288958Y-93028072D01*
X137288268Y-93034633D01*
X137288268Y-93034635D01*
X137276270Y-93148794D01*
X137268996Y-93218000D01*
X137269686Y-93224565D01*
X137283112Y-93352302D01*
X137288958Y-93407928D01*
X137347973Y-93589556D01*
X137351276Y-93595278D01*
X137351277Y-93595279D01*
X137374812Y-93636043D01*
X137443460Y-93754944D01*
X137503830Y-93821991D01*
X137534546Y-93885998D01*
X137525781Y-93956451D01*
X137480318Y-94010982D01*
X137410192Y-94032300D01*
X133654994Y-94032300D01*
X133586873Y-94012298D01*
X133551781Y-93978571D01*
X133444957Y-93826011D01*
X133444955Y-93826008D01*
X133441798Y-93821500D01*
X133279900Y-93659602D01*
X133275392Y-93656445D01*
X133275389Y-93656443D01*
X133188037Y-93595279D01*
X133092349Y-93528277D01*
X133087367Y-93525954D01*
X133087362Y-93525951D01*
X133052551Y-93509719D01*
X132999266Y-93462802D01*
X132979805Y-93394525D01*
X133000347Y-93326565D01*
X133052551Y-93281329D01*
X133087111Y-93265214D01*
X133096607Y-93259731D01*
X133275067Y-93134772D01*
X133283475Y-93127716D01*
X133437516Y-92973675D01*
X133444572Y-92965267D01*
X133569531Y-92786807D01*
X133575014Y-92777311D01*
X133667090Y-92579853D01*
X133670836Y-92569561D01*
X133716994Y-92397297D01*
X133716658Y-92383201D01*
X133708716Y-92379800D01*
X131167633Y-92379800D01*
X131154102Y-92383773D01*
X131152873Y-92392322D01*
X131200364Y-92569561D01*
X131204110Y-92579853D01*
X131296186Y-92777311D01*
X131301669Y-92786807D01*
X131426628Y-92965267D01*
X131433684Y-92973675D01*
X131587725Y-93127716D01*
X131596133Y-93134772D01*
X131774593Y-93259731D01*
X131784089Y-93265214D01*
X131818649Y-93281329D01*
X131871934Y-93328246D01*
X131891395Y-93396523D01*
X131870853Y-93464483D01*
X131818649Y-93509719D01*
X131783838Y-93525951D01*
X131783833Y-93525954D01*
X131778851Y-93528277D01*
X131683163Y-93595279D01*
X131595811Y-93656443D01*
X131595808Y-93656445D01*
X131591300Y-93659602D01*
X131429402Y-93821500D01*
X131426245Y-93826008D01*
X131426243Y-93826011D01*
X131384240Y-93885998D01*
X131298077Y-94009051D01*
X131295754Y-94014033D01*
X131295751Y-94014038D01*
X131203856Y-94211109D01*
X131201316Y-94216557D01*
X131199894Y-94221865D01*
X131199893Y-94221867D01*
X131143481Y-94432398D01*
X131142057Y-94437713D01*
X131122102Y-94665800D01*
X131142057Y-94893887D01*
X131170139Y-94998688D01*
X131168449Y-95069665D01*
X131128655Y-95128461D01*
X131063391Y-95156409D01*
X131048432Y-95157300D01*
X130029795Y-95157300D01*
X129961674Y-95137298D01*
X129940700Y-95120395D01*
X129878952Y-95058647D01*
X129844926Y-94996335D01*
X129846340Y-94936941D01*
X129863343Y-94873487D01*
X129883298Y-94645400D01*
X129863343Y-94417313D01*
X129809550Y-94216557D01*
X129805507Y-94201467D01*
X129805506Y-94201465D01*
X129804084Y-94196157D01*
X129727677Y-94032300D01*
X129709649Y-93993638D01*
X129709646Y-93993633D01*
X129707323Y-93988651D01*
X129593441Y-93826011D01*
X129579157Y-93805611D01*
X129579155Y-93805608D01*
X129575998Y-93801100D01*
X129414100Y-93639202D01*
X129409592Y-93636045D01*
X129409589Y-93636043D01*
X129331411Y-93581302D01*
X129226549Y-93507877D01*
X129221567Y-93505554D01*
X129221562Y-93505551D01*
X129186751Y-93489319D01*
X129133466Y-93442402D01*
X129114005Y-93374125D01*
X129134547Y-93306165D01*
X129186751Y-93260929D01*
X129221311Y-93244814D01*
X129230807Y-93239331D01*
X129409267Y-93114372D01*
X129417675Y-93107316D01*
X129571716Y-92953275D01*
X129578772Y-92944867D01*
X129703731Y-92766407D01*
X129709214Y-92756911D01*
X129801290Y-92559453D01*
X129805036Y-92549161D01*
X129851194Y-92376897D01*
X129850858Y-92362801D01*
X129842916Y-92359400D01*
X128441800Y-92359400D01*
X128373679Y-92339398D01*
X128327186Y-92285742D01*
X128315800Y-92233400D01*
X128315800Y-91977400D01*
X128335802Y-91909279D01*
X128389458Y-91862786D01*
X128441800Y-91851400D01*
X129837767Y-91851400D01*
X129851298Y-91847427D01*
X129852527Y-91838878D01*
X129805036Y-91661639D01*
X129801290Y-91651347D01*
X129709214Y-91453889D01*
X129703731Y-91444393D01*
X129578772Y-91265933D01*
X129571716Y-91257525D01*
X129417675Y-91103484D01*
X129409267Y-91096428D01*
X129230807Y-90971469D01*
X129221311Y-90965986D01*
X129186751Y-90949871D01*
X129133466Y-90902954D01*
X129114005Y-90834677D01*
X129134547Y-90766717D01*
X129186751Y-90721481D01*
X129221562Y-90705249D01*
X129221567Y-90705246D01*
X129226549Y-90702923D01*
X129367600Y-90604158D01*
X129409589Y-90574757D01*
X129409592Y-90574755D01*
X129414100Y-90571598D01*
X129575998Y-90409700D01*
X129707323Y-90222149D01*
X129709646Y-90217167D01*
X129709649Y-90217162D01*
X129801761Y-90019625D01*
X129801761Y-90019624D01*
X129804084Y-90014643D01*
X129818338Y-89961449D01*
X129861919Y-89798802D01*
X129861919Y-89798800D01*
X129863343Y-89793487D01*
X129883298Y-89565400D01*
X129863343Y-89337313D01*
X129861920Y-89332001D01*
X129861918Y-89331991D01*
X129846341Y-89273859D01*
X129848030Y-89202883D01*
X129878952Y-89152152D01*
X129899899Y-89131205D01*
X129962211Y-89097179D01*
X129988994Y-89094300D01*
X131048432Y-89094300D01*
X131116553Y-89114302D01*
X131163046Y-89167958D01*
X131173150Y-89238232D01*
X131170140Y-89252905D01*
X131142057Y-89357713D01*
X131122102Y-89585800D01*
X131142057Y-89813887D01*
X131143480Y-89819198D01*
X131143481Y-89819202D01*
X131182410Y-89964484D01*
X131201316Y-90035043D01*
X131203639Y-90040024D01*
X131203639Y-90040025D01*
X131295751Y-90237562D01*
X131295754Y-90237567D01*
X131298077Y-90242549D01*
X131345975Y-90310954D01*
X131424258Y-90422753D01*
X131429402Y-90430100D01*
X131591300Y-90591998D01*
X131595808Y-90595155D01*
X131595811Y-90595157D01*
X131600941Y-90598749D01*
X131778851Y-90723323D01*
X131783833Y-90725646D01*
X131783838Y-90725649D01*
X131818649Y-90741881D01*
X131871934Y-90788798D01*
X131891395Y-90857075D01*
X131870853Y-90925035D01*
X131818649Y-90970271D01*
X131784089Y-90986386D01*
X131774593Y-90991869D01*
X131596133Y-91116828D01*
X131587725Y-91123884D01*
X131433684Y-91277925D01*
X131426628Y-91286333D01*
X131301669Y-91464793D01*
X131296186Y-91474289D01*
X131204110Y-91671747D01*
X131200364Y-91682039D01*
X131154206Y-91854303D01*
X131154542Y-91868399D01*
X131162484Y-91871800D01*
X133703567Y-91871800D01*
X133717098Y-91867827D01*
X133718327Y-91859278D01*
X133670836Y-91682039D01*
X133667090Y-91671747D01*
X133575014Y-91474289D01*
X133569531Y-91464793D01*
X133444572Y-91286333D01*
X133437516Y-91277925D01*
X133283475Y-91123884D01*
X133275067Y-91116828D01*
X133096607Y-90991869D01*
X133087111Y-90986386D01*
X133052551Y-90970271D01*
X132999266Y-90923354D01*
X132979805Y-90855077D01*
X133000347Y-90787117D01*
X133052551Y-90741881D01*
X133087362Y-90725649D01*
X133087367Y-90725646D01*
X133092349Y-90723323D01*
X133270259Y-90598749D01*
X133275389Y-90595157D01*
X133275392Y-90595155D01*
X133279900Y-90591998D01*
X133441798Y-90430100D01*
X133446943Y-90422753D01*
X133525225Y-90310954D01*
X133573123Y-90242549D01*
X133575446Y-90237567D01*
X133575449Y-90237562D01*
X133667561Y-90040025D01*
X133667561Y-90040024D01*
X133669884Y-90035043D01*
X133688791Y-89964484D01*
X133727719Y-89819202D01*
X133727720Y-89819198D01*
X133729143Y-89813887D01*
X133749098Y-89585800D01*
X133729143Y-89357713D01*
X133701061Y-89252910D01*
X133702751Y-89181935D01*
X133742545Y-89123139D01*
X133807809Y-89095191D01*
X133822768Y-89094300D01*
X136167706Y-89094300D01*
X136235827Y-89114302D01*
X136256801Y-89131205D01*
X137433843Y-90308247D01*
X137441387Y-90316537D01*
X137445500Y-90323018D01*
X137451277Y-90328443D01*
X137495167Y-90369658D01*
X137498009Y-90372413D01*
X137517731Y-90392135D01*
X137520855Y-90394558D01*
X137520859Y-90394562D01*
X137520924Y-90394612D01*
X137529945Y-90402317D01*
X137562179Y-90432586D01*
X137569127Y-90436405D01*
X137569129Y-90436407D01*
X137579932Y-90442346D01*
X137596459Y-90453202D01*
X137606198Y-90460757D01*
X137606200Y-90460758D01*
X137612460Y-90465614D01*
X137653040Y-90483174D01*
X137663688Y-90488391D01*
X137702440Y-90509695D01*
X137710116Y-90511666D01*
X137710119Y-90511667D01*
X137722062Y-90514733D01*
X137740767Y-90521137D01*
X137759355Y-90529181D01*
X137767178Y-90530420D01*
X137767188Y-90530423D01*
X137803024Y-90536099D01*
X137814644Y-90538505D01*
X137849789Y-90547528D01*
X137857470Y-90549500D01*
X137877724Y-90549500D01*
X137897434Y-90551051D01*
X137917443Y-90554220D01*
X137925335Y-90553474D01*
X137961461Y-90550059D01*
X137973319Y-90549500D01*
X138374300Y-90549500D01*
X138442421Y-90569502D01*
X138461647Y-90585843D01*
X138461920Y-90585540D01*
X138466832Y-90589963D01*
X138471247Y-90594866D01*
X138625748Y-90707118D01*
X138631776Y-90709802D01*
X138631778Y-90709803D01*
X138703827Y-90741881D01*
X138800212Y-90784794D01*
X138870264Y-90799684D01*
X138980556Y-90823128D01*
X138980561Y-90823128D01*
X138987013Y-90824500D01*
X139177987Y-90824500D01*
X139184439Y-90823128D01*
X139184444Y-90823128D01*
X139294736Y-90799684D01*
X139364788Y-90784794D01*
X139461173Y-90741881D01*
X139533222Y-90709803D01*
X139533224Y-90709802D01*
X139539252Y-90707118D01*
X139549938Y-90699354D01*
X139616803Y-90675495D01*
X139685955Y-90691573D01*
X139698057Y-90699350D01*
X139708748Y-90707118D01*
X139714776Y-90709802D01*
X139714778Y-90709803D01*
X139786827Y-90741881D01*
X139883212Y-90784794D01*
X139953264Y-90799684D01*
X140063556Y-90823128D01*
X140063561Y-90823128D01*
X140070013Y-90824500D01*
X140260987Y-90824500D01*
X140267439Y-90823128D01*
X140267444Y-90823128D01*
X140377736Y-90799684D01*
X140447788Y-90784794D01*
X140544173Y-90741881D01*
X140616222Y-90709803D01*
X140616224Y-90709802D01*
X140622252Y-90707118D01*
X140776753Y-90594866D01*
X140799591Y-90569502D01*
X140900121Y-90457852D01*
X140900122Y-90457851D01*
X140904540Y-90452944D01*
X140981193Y-90320178D01*
X140996723Y-90293279D01*
X140996724Y-90293278D01*
X141000027Y-90287556D01*
X141059042Y-90105928D01*
X141062274Y-90075182D01*
X141078314Y-89922565D01*
X141079004Y-89916000D01*
X141059042Y-89726072D01*
X141000027Y-89544444D01*
X140904540Y-89379056D01*
X140866955Y-89337313D01*
X140781175Y-89242045D01*
X140781174Y-89242044D01*
X140776753Y-89237134D01*
X140622252Y-89124882D01*
X140616224Y-89122198D01*
X140616222Y-89122197D01*
X140453819Y-89049891D01*
X140453818Y-89049891D01*
X140447788Y-89047206D01*
X140345670Y-89025500D01*
X140267444Y-89008872D01*
X140267439Y-89008872D01*
X140260987Y-89007500D01*
X140205095Y-89007500D01*
X140136974Y-88987498D01*
X140116000Y-88970595D01*
X139944152Y-88798747D01*
X139936612Y-88790461D01*
X139932500Y-88783982D01*
X139882848Y-88737356D01*
X139880007Y-88734602D01*
X139860270Y-88714865D01*
X139857073Y-88712385D01*
X139848051Y-88704680D01*
X139821600Y-88679841D01*
X139815821Y-88674414D01*
X139808875Y-88670595D01*
X139808872Y-88670593D01*
X139798066Y-88664652D01*
X139781547Y-88653801D01*
X139781083Y-88653441D01*
X139765541Y-88641386D01*
X139758272Y-88638241D01*
X139758268Y-88638238D01*
X139724963Y-88623826D01*
X139714313Y-88618609D01*
X139675560Y-88597305D01*
X139655937Y-88592267D01*
X139637234Y-88585863D01*
X139625920Y-88580967D01*
X139625919Y-88580967D01*
X139618645Y-88577819D01*
X139610822Y-88576580D01*
X139610812Y-88576577D01*
X139574976Y-88570901D01*
X139563356Y-88568495D01*
X139528211Y-88559472D01*
X139528210Y-88559472D01*
X139520530Y-88557500D01*
X139500276Y-88557500D01*
X139480565Y-88555949D01*
X139468386Y-88554020D01*
X139460557Y-88552780D01*
X139452665Y-88553526D01*
X139416539Y-88556941D01*
X139404681Y-88557500D01*
X138654595Y-88557500D01*
X138586474Y-88537498D01*
X138565500Y-88520595D01*
X135573452Y-85528547D01*
X135565912Y-85520261D01*
X135561800Y-85513782D01*
X135514069Y-85468960D01*
X135478104Y-85407748D01*
X135480941Y-85336808D01*
X135521681Y-85278664D01*
X135549074Y-85262003D01*
X135578719Y-85248805D01*
X135578726Y-85248801D01*
X135584752Y-85246118D01*
X135739253Y-85133866D01*
X135762498Y-85108050D01*
X135862621Y-84996852D01*
X135862622Y-84996851D01*
X135867040Y-84991944D01*
X135962527Y-84826556D01*
X136021542Y-84644928D01*
X136041504Y-84455000D01*
X136022871Y-84277713D01*
X136022232Y-84271635D01*
X136022232Y-84271633D01*
X136021542Y-84265072D01*
X135971297Y-84110435D01*
X135969269Y-84039469D01*
X136005932Y-83978671D01*
X136069644Y-83947346D01*
X136091130Y-83945500D01*
X136720687Y-83945500D01*
X136731870Y-83946027D01*
X136739363Y-83947702D01*
X136747289Y-83947453D01*
X136747290Y-83947453D01*
X136807440Y-83945562D01*
X136811399Y-83945500D01*
X136839310Y-83945500D01*
X136843245Y-83945003D01*
X136843310Y-83944995D01*
X136855147Y-83944062D01*
X136887405Y-83943048D01*
X136891424Y-83942922D01*
X136899343Y-83942673D01*
X136918797Y-83937021D01*
X136938154Y-83933013D01*
X136950384Y-83931468D01*
X136950385Y-83931468D01*
X136958251Y-83930474D01*
X136965622Y-83927555D01*
X136965624Y-83927555D01*
X136999366Y-83914196D01*
X137010596Y-83910351D01*
X137045437Y-83900229D01*
X137045438Y-83900229D01*
X137053047Y-83898018D01*
X137059866Y-83893985D01*
X137059871Y-83893983D01*
X137070482Y-83887707D01*
X137088230Y-83879012D01*
X137107071Y-83871552D01*
X137142841Y-83845564D01*
X137152761Y-83839048D01*
X137183989Y-83820580D01*
X137183992Y-83820578D01*
X137190816Y-83816542D01*
X137205137Y-83802221D01*
X137220171Y-83789380D01*
X137230147Y-83782132D01*
X137236561Y-83777472D01*
X137264747Y-83743401D01*
X137272736Y-83734622D01*
X137395999Y-83611359D01*
X137458311Y-83577333D01*
X137485094Y-83574454D01*
X137540987Y-83574454D01*
X137547439Y-83573082D01*
X137547444Y-83573082D01*
X137634387Y-83554601D01*
X137727788Y-83534748D01*
X137733819Y-83532063D01*
X137896222Y-83459757D01*
X137896224Y-83459756D01*
X137902252Y-83457072D01*
X138056753Y-83344820D01*
X138135752Y-83257083D01*
X138180121Y-83207806D01*
X138180122Y-83207805D01*
X138184540Y-83202898D01*
X138280027Y-83037510D01*
X138339042Y-82855882D01*
X138359004Y-82665954D01*
X138352298Y-82602149D01*
X138339732Y-82482589D01*
X138339732Y-82482587D01*
X138339042Y-82476026D01*
X138280027Y-82294398D01*
X138275500Y-82286556D01*
X138221997Y-82193887D01*
X138184540Y-82129010D01*
X138162857Y-82104928D01*
X138061175Y-81991999D01*
X138061174Y-81991998D01*
X138056753Y-81987088D01*
X137902252Y-81874836D01*
X137896224Y-81872152D01*
X137896222Y-81872151D01*
X137733819Y-81799845D01*
X137733818Y-81799845D01*
X137727788Y-81797160D01*
X137634388Y-81777307D01*
X137547444Y-81758826D01*
X137547439Y-81758826D01*
X137540987Y-81757454D01*
X137350013Y-81757454D01*
X137343561Y-81758826D01*
X137343556Y-81758826D01*
X137256612Y-81777307D01*
X137163212Y-81797160D01*
X137157182Y-81799845D01*
X137157181Y-81799845D01*
X136994778Y-81872151D01*
X136994776Y-81872152D01*
X136988748Y-81874836D01*
X136834247Y-81987088D01*
X136829826Y-81991998D01*
X136829825Y-81991999D01*
X136728144Y-82104928D01*
X136706460Y-82129010D01*
X136669003Y-82193887D01*
X136615501Y-82286556D01*
X136610973Y-82294398D01*
X136551958Y-82476026D01*
X136551269Y-82482585D01*
X136551268Y-82482588D01*
X136542536Y-82565671D01*
X136515523Y-82631327D01*
X136457301Y-82671957D01*
X136417226Y-82678500D01*
X135850548Y-82678500D01*
X135782427Y-82658498D01*
X135735934Y-82604842D01*
X135725830Y-82534568D01*
X135756911Y-82468191D01*
X135771540Y-82451944D01*
X135858871Y-82300683D01*
X135863723Y-82292279D01*
X135863724Y-82292278D01*
X135867027Y-82286556D01*
X135926042Y-82104928D01*
X135938836Y-81983205D01*
X135945314Y-81921565D01*
X135946004Y-81915000D01*
X135933619Y-81797160D01*
X135926732Y-81731635D01*
X135926732Y-81731633D01*
X135926042Y-81725072D01*
X135867027Y-81543444D01*
X135854570Y-81521867D01*
X135774841Y-81383774D01*
X135771540Y-81378056D01*
X135760091Y-81365340D01*
X135648175Y-81241045D01*
X135648174Y-81241044D01*
X135643753Y-81236134D01*
X135638408Y-81232251D01*
X135633502Y-81227833D01*
X135635434Y-81225687D01*
X135599796Y-81179498D01*
X135593699Y-81108764D01*
X135597361Y-81094824D01*
X135640542Y-80961928D01*
X135644712Y-80922258D01*
X135659814Y-80778565D01*
X135660504Y-80772000D01*
X135640542Y-80582072D01*
X135581527Y-80400444D01*
X135486040Y-80235056D01*
X135473662Y-80221309D01*
X135442946Y-80157303D01*
X135451710Y-80086850D01*
X135473661Y-80052693D01*
X135486040Y-80038944D01*
X135581527Y-79873556D01*
X135640542Y-79691928D01*
X135645177Y-79647834D01*
X135659814Y-79508565D01*
X135660504Y-79502000D01*
X135651920Y-79420325D01*
X135641232Y-79318635D01*
X135641232Y-79318633D01*
X135640542Y-79312072D01*
X135581527Y-79130444D01*
X135486040Y-78965056D01*
X135473662Y-78951309D01*
X135442946Y-78887303D01*
X135451710Y-78816850D01*
X135473661Y-78782693D01*
X135486040Y-78768944D01*
X135581527Y-78603556D01*
X135640542Y-78421928D01*
X135660504Y-78232000D01*
X135640542Y-78042072D01*
X135581527Y-77860444D01*
X135493686Y-77708299D01*
X135476948Y-77639305D01*
X135500168Y-77572213D01*
X135555975Y-77528326D01*
X135602805Y-77519300D01*
X135783483Y-77519300D01*
X135794666Y-77519827D01*
X135802159Y-77521502D01*
X135810085Y-77521253D01*
X135810086Y-77521253D01*
X135870236Y-77519362D01*
X135874195Y-77519300D01*
X135902106Y-77519300D01*
X135906041Y-77518803D01*
X135906106Y-77518795D01*
X135917943Y-77517862D01*
X135950201Y-77516848D01*
X135954220Y-77516722D01*
X135962139Y-77516473D01*
X135981593Y-77510821D01*
X136000950Y-77506813D01*
X136013180Y-77505268D01*
X136013181Y-77505268D01*
X136021047Y-77504274D01*
X136028418Y-77501355D01*
X136028420Y-77501355D01*
X136062162Y-77487996D01*
X136073392Y-77484151D01*
X136085876Y-77480524D01*
X136110044Y-77473503D01*
X136145195Y-77468500D01*
X136864300Y-77468500D01*
X136932421Y-77488502D01*
X136951647Y-77504843D01*
X136951920Y-77504540D01*
X136956832Y-77508963D01*
X136961247Y-77513866D01*
X136966747Y-77517862D01*
X137015295Y-77553134D01*
X137115748Y-77626118D01*
X137121776Y-77628802D01*
X137121778Y-77628803D01*
X137270586Y-77695056D01*
X137290212Y-77703794D01*
X137383613Y-77723647D01*
X137470556Y-77742128D01*
X137470561Y-77742128D01*
X137477013Y-77743500D01*
X137667987Y-77743500D01*
X137674439Y-77742128D01*
X137674444Y-77742128D01*
X137761387Y-77723647D01*
X137854788Y-77703794D01*
X137874414Y-77695056D01*
X138023222Y-77628803D01*
X138023224Y-77628802D01*
X138029252Y-77626118D01*
X138183753Y-77513866D01*
X138206591Y-77488502D01*
X138307121Y-77376852D01*
X138307122Y-77376851D01*
X138311540Y-77371944D01*
X138407027Y-77206556D01*
X138466042Y-77024928D01*
X138486004Y-76835000D01*
X138467371Y-76657713D01*
X138466732Y-76651635D01*
X138466732Y-76651633D01*
X138466042Y-76645072D01*
X138407027Y-76463444D01*
X138394570Y-76441867D01*
X138314841Y-76303774D01*
X138311540Y-76298056D01*
X138231040Y-76208651D01*
X138188175Y-76161045D01*
X138188174Y-76161044D01*
X138183753Y-76156134D01*
X138029252Y-76043882D01*
X138023224Y-76041198D01*
X138023222Y-76041197D01*
X137860819Y-75968891D01*
X137860818Y-75968891D01*
X137854788Y-75966206D01*
X137761388Y-75946353D01*
X137674444Y-75927872D01*
X137674439Y-75927872D01*
X137667987Y-75926500D01*
X137477013Y-75926500D01*
X137470561Y-75927872D01*
X137470556Y-75927872D01*
X137383612Y-75946353D01*
X137290212Y-75966206D01*
X137284182Y-75968891D01*
X137284181Y-75968891D01*
X137121778Y-76041197D01*
X137121776Y-76041198D01*
X137115748Y-76043882D01*
X136961247Y-76156134D01*
X136956832Y-76161037D01*
X136951920Y-76165460D01*
X136950795Y-76164211D01*
X136897486Y-76197051D01*
X136864300Y-76201500D01*
X136434630Y-76201500D01*
X136366509Y-76181498D01*
X136320016Y-76127842D01*
X136309912Y-76057568D01*
X136314795Y-76036570D01*
X136365042Y-75881928D01*
X136385004Y-75692000D01*
X136371097Y-75559684D01*
X136365732Y-75508635D01*
X136365732Y-75508633D01*
X136365042Y-75502072D01*
X136306027Y-75320444D01*
X136218186Y-75168299D01*
X136201448Y-75099305D01*
X136224668Y-75032213D01*
X136280475Y-74988326D01*
X136327305Y-74979300D01*
X137157433Y-74979300D01*
X137168616Y-74979827D01*
X137176109Y-74981502D01*
X137184035Y-74981253D01*
X137184036Y-74981253D01*
X137244186Y-74979362D01*
X137248145Y-74979300D01*
X137273917Y-74979300D01*
X137342038Y-74999302D01*
X137347978Y-75003364D01*
X137461107Y-75085557D01*
X137474200Y-75095070D01*
X137480228Y-75097754D01*
X137480230Y-75097755D01*
X137608931Y-75155056D01*
X137648664Y-75172746D01*
X137730308Y-75190100D01*
X137829008Y-75211080D01*
X137829013Y-75211080D01*
X137835465Y-75212452D01*
X138026439Y-75212452D01*
X138032891Y-75211080D01*
X138032896Y-75211080D01*
X138131596Y-75190100D01*
X138213240Y-75172746D01*
X138252973Y-75155056D01*
X138381674Y-75097755D01*
X138381676Y-75097754D01*
X138387704Y-75095070D01*
X138400798Y-75085557D01*
X138498936Y-75014255D01*
X138542205Y-74982818D01*
X138546627Y-74977907D01*
X138665573Y-74845804D01*
X138665574Y-74845803D01*
X138669992Y-74840896D01*
X138765479Y-74675508D01*
X138824494Y-74493880D01*
X138844456Y-74303952D01*
X138824494Y-74114024D01*
X138765479Y-73932396D01*
X138669992Y-73767008D01*
X138581844Y-73669109D01*
X138546627Y-73629997D01*
X138546626Y-73629996D01*
X138542205Y-73625086D01*
X138387704Y-73512834D01*
X138381676Y-73510150D01*
X138381674Y-73510149D01*
X138219271Y-73437843D01*
X138219270Y-73437843D01*
X138213240Y-73435158D01*
X138206779Y-73433785D01*
X138206774Y-73433783D01*
X138133804Y-73418272D01*
X138071330Y-73384544D01*
X138037009Y-73322394D01*
X138040168Y-73256091D01*
X138051502Y-73221209D01*
X138051504Y-73221202D01*
X138053542Y-73214928D01*
X138073504Y-73025000D01*
X138064588Y-72940166D01*
X138054232Y-72841635D01*
X138054232Y-72841633D01*
X138053542Y-72835072D01*
X137994527Y-72653444D01*
X137899040Y-72488056D01*
X137826893Y-72407928D01*
X137796176Y-72343921D01*
X137804941Y-72273468D01*
X137823446Y-72243303D01*
X137828499Y-72237195D01*
X137836488Y-72228416D01*
X139650499Y-70414405D01*
X139712811Y-70380379D01*
X139739594Y-70377500D01*
X139795487Y-70377500D01*
X139801939Y-70376128D01*
X139801944Y-70376128D01*
X139888888Y-70357647D01*
X139982288Y-70337794D01*
X139988319Y-70335109D01*
X140150722Y-70262803D01*
X140150724Y-70262802D01*
X140156752Y-70260118D01*
X140311253Y-70147866D01*
X140315675Y-70142955D01*
X140434621Y-70010852D01*
X140434622Y-70010851D01*
X140439040Y-70005944D01*
X140527486Y-69852751D01*
X140531223Y-69846279D01*
X140531224Y-69846278D01*
X140534527Y-69840556D01*
X140593542Y-69658928D01*
X140598177Y-69614834D01*
X140612814Y-69475565D01*
X140613504Y-69469000D01*
X140593542Y-69279072D01*
X140534527Y-69097444D01*
X140439040Y-68932056D01*
X140339826Y-68821867D01*
X140315675Y-68795045D01*
X140315674Y-68795044D01*
X140311253Y-68790134D01*
X140156752Y-68677882D01*
X140150724Y-68675198D01*
X140150722Y-68675197D01*
X139988319Y-68602891D01*
X139988318Y-68602891D01*
X139982288Y-68600206D01*
X139880504Y-68578571D01*
X139801944Y-68561872D01*
X139801939Y-68561872D01*
X139795487Y-68560500D01*
X139604513Y-68560500D01*
X139598061Y-68561872D01*
X139598056Y-68561872D01*
X139519496Y-68578571D01*
X139417712Y-68600206D01*
X139411682Y-68602891D01*
X139411681Y-68602891D01*
X139249278Y-68675197D01*
X139249276Y-68675198D01*
X139243248Y-68677882D01*
X139088747Y-68790134D01*
X139084326Y-68795044D01*
X139084325Y-68795045D01*
X139060175Y-68821867D01*
X138960960Y-68932056D01*
X138865473Y-69097444D01*
X138806458Y-69279072D01*
X138805768Y-69285633D01*
X138805768Y-69285635D01*
X138789093Y-69444292D01*
X138762080Y-69509949D01*
X138752878Y-69520217D01*
X138147304Y-70125791D01*
X138084992Y-70159817D01*
X138014177Y-70154752D01*
X137957341Y-70112205D01*
X137949090Y-70099696D01*
X137864842Y-69953774D01*
X137864839Y-69953769D01*
X137861540Y-69948056D01*
X137774097Y-69850940D01*
X137738175Y-69811045D01*
X137738174Y-69811044D01*
X137733753Y-69806134D01*
X137598089Y-69707568D01*
X137584594Y-69697763D01*
X137584593Y-69697762D01*
X137579252Y-69693882D01*
X137573224Y-69691198D01*
X137573222Y-69691197D01*
X137410819Y-69618891D01*
X137410818Y-69618891D01*
X137404788Y-69616206D01*
X137311388Y-69596353D01*
X137224444Y-69577872D01*
X137224439Y-69577872D01*
X137217987Y-69576500D01*
X137027013Y-69576500D01*
X137020561Y-69577872D01*
X137020556Y-69577872D01*
X136933612Y-69596353D01*
X136840212Y-69616206D01*
X136834182Y-69618891D01*
X136834181Y-69618891D01*
X136671778Y-69691197D01*
X136671776Y-69691198D01*
X136665748Y-69693882D01*
X136660407Y-69697762D01*
X136660406Y-69697763D01*
X136646911Y-69707568D01*
X136511247Y-69806134D01*
X136506832Y-69811037D01*
X136501920Y-69815460D01*
X136500795Y-69814211D01*
X136447486Y-69847051D01*
X136414300Y-69851500D01*
X135710130Y-69851500D01*
X135642009Y-69831498D01*
X135595516Y-69777842D01*
X135585412Y-69707568D01*
X135590295Y-69686570D01*
X135640542Y-69531928D01*
X135660504Y-69342000D01*
X135651920Y-69260325D01*
X135641232Y-69158635D01*
X135641232Y-69158633D01*
X135640542Y-69152072D01*
X135581527Y-68970444D01*
X135486040Y-68805056D01*
X135358253Y-68663134D01*
X135249532Y-68584143D01*
X135209094Y-68554763D01*
X135209093Y-68554762D01*
X135203752Y-68550882D01*
X135197724Y-68548198D01*
X135197722Y-68548197D01*
X135035319Y-68475891D01*
X135035318Y-68475891D01*
X135029288Y-68473206D01*
X134935888Y-68453353D01*
X134848944Y-68434872D01*
X134848939Y-68434872D01*
X134842487Y-68433500D01*
X134651513Y-68433500D01*
X134645061Y-68434872D01*
X134645056Y-68434872D01*
X134558112Y-68453353D01*
X134464712Y-68473206D01*
X134458682Y-68475891D01*
X134458681Y-68475891D01*
X134296278Y-68548197D01*
X134296276Y-68548198D01*
X134290248Y-68550882D01*
X134284907Y-68554762D01*
X134284906Y-68554763D01*
X134211307Y-68608236D01*
X134144439Y-68632095D01*
X134137246Y-68632300D01*
X133654994Y-68632300D01*
X133586873Y-68612298D01*
X133551781Y-68578571D01*
X133444957Y-68426011D01*
X133444955Y-68426008D01*
X133441798Y-68421500D01*
X133279900Y-68259602D01*
X133275392Y-68256445D01*
X133275389Y-68256443D01*
X133197211Y-68201702D01*
X133092349Y-68128277D01*
X133087367Y-68125954D01*
X133087362Y-68125951D01*
X133053143Y-68109995D01*
X132999858Y-68063078D01*
X132980397Y-67994801D01*
X133000939Y-67926841D01*
X133053143Y-67881605D01*
X133087362Y-67865649D01*
X133087367Y-67865646D01*
X133092349Y-67863323D01*
X133240922Y-67759291D01*
X133275389Y-67735157D01*
X133275392Y-67735155D01*
X133279900Y-67731998D01*
X133441798Y-67570100D01*
X133453398Y-67553534D01*
X133551781Y-67413029D01*
X133607238Y-67368701D01*
X133654994Y-67359300D01*
X140975606Y-67359300D01*
X141043727Y-67379302D01*
G37*
%TD.AperFunction*%
%TA.AperFunction,Conductor*%
G36*
X148049521Y-61460702D02*
G01*
X148096014Y-61514358D01*
X148107400Y-61566700D01*
X148107400Y-61822700D01*
X148087398Y-61890821D01*
X148033742Y-61937314D01*
X147981400Y-61948700D01*
X146093515Y-61948700D01*
X146078276Y-61953175D01*
X146077071Y-61954565D01*
X146075400Y-61962248D01*
X146075400Y-62697084D01*
X146079875Y-62712323D01*
X146081265Y-62713528D01*
X146088948Y-62715199D01*
X146318495Y-62715199D01*
X146325014Y-62714862D01*
X146420606Y-62704943D01*
X146434000Y-62702051D01*
X146588184Y-62650612D01*
X146601362Y-62644439D01*
X146739207Y-62559137D01*
X146756345Y-62545554D01*
X146757696Y-62547258D01*
X146810614Y-62518304D01*
X146881434Y-62523307D01*
X146918794Y-62547274D01*
X146919483Y-62546401D01*
X146936640Y-62559951D01*
X147074643Y-62645016D01*
X147087824Y-62651163D01*
X147248641Y-62704504D01*
X147247946Y-62706599D01*
X147301176Y-62735452D01*
X147335393Y-62797659D01*
X147330547Y-62868490D01*
X147288176Y-62925457D01*
X147244970Y-62946528D01*
X147231670Y-62950092D01*
X147231666Y-62950093D01*
X147226357Y-62951516D01*
X147221376Y-62953839D01*
X147221375Y-62953839D01*
X147023838Y-63045951D01*
X147023833Y-63045954D01*
X147018851Y-63048277D01*
X146973482Y-63080045D01*
X146835811Y-63176443D01*
X146835808Y-63176445D01*
X146831300Y-63179602D01*
X146669402Y-63341500D01*
X146666245Y-63346008D01*
X146666243Y-63346011D01*
X146611502Y-63424189D01*
X146538077Y-63529051D01*
X146535754Y-63534033D01*
X146535751Y-63534038D01*
X146449881Y-63718189D01*
X146441316Y-63736557D01*
X146439894Y-63741865D01*
X146439893Y-63741867D01*
X146386959Y-63939417D01*
X146382057Y-63957713D01*
X146362102Y-64185800D01*
X146382057Y-64413887D01*
X146383481Y-64419200D01*
X146383481Y-64419202D01*
X146436534Y-64617195D01*
X146441316Y-64635043D01*
X146443639Y-64640024D01*
X146443639Y-64640025D01*
X146535751Y-64837562D01*
X146535754Y-64837567D01*
X146538077Y-64842549D01*
X146568594Y-64886131D01*
X146647436Y-64998729D01*
X146669402Y-65030100D01*
X146831300Y-65191998D01*
X146835808Y-65195155D01*
X146835811Y-65195157D01*
X146877142Y-65224097D01*
X147018851Y-65323323D01*
X147023833Y-65325646D01*
X147023838Y-65325649D01*
X147058057Y-65341605D01*
X147111342Y-65388522D01*
X147130803Y-65456799D01*
X147110261Y-65524759D01*
X147058057Y-65569995D01*
X147023838Y-65585951D01*
X147023833Y-65585954D01*
X147018851Y-65588277D01*
X146928547Y-65651509D01*
X146835811Y-65716443D01*
X146835808Y-65716445D01*
X146831300Y-65719602D01*
X146669402Y-65881500D01*
X146666243Y-65886012D01*
X146666241Y-65886014D01*
X146647792Y-65912361D01*
X146592334Y-65956689D01*
X146521715Y-65963997D01*
X146455485Y-65929184D01*
X144708048Y-64181747D01*
X144700508Y-64173461D01*
X144696396Y-64166982D01*
X144646744Y-64120356D01*
X144643903Y-64117602D01*
X144624166Y-64097865D01*
X144620969Y-64095385D01*
X144611947Y-64087680D01*
X144609419Y-64085306D01*
X144579717Y-64057414D01*
X144572771Y-64053595D01*
X144572768Y-64053593D01*
X144561962Y-64047652D01*
X144545443Y-64036801D01*
X144540564Y-64033017D01*
X144529437Y-64024386D01*
X144522168Y-64021241D01*
X144522164Y-64021238D01*
X144488859Y-64006826D01*
X144478209Y-64001609D01*
X144439456Y-63980305D01*
X144419833Y-63975267D01*
X144401130Y-63968863D01*
X144389816Y-63963967D01*
X144389815Y-63963967D01*
X144382541Y-63960819D01*
X144374718Y-63959580D01*
X144374708Y-63959577D01*
X144338872Y-63953901D01*
X144327252Y-63951495D01*
X144292107Y-63942472D01*
X144292106Y-63942472D01*
X144284426Y-63940500D01*
X144264172Y-63940500D01*
X144244461Y-63938949D01*
X144232282Y-63937020D01*
X144224453Y-63935780D01*
X144216561Y-63936526D01*
X144180435Y-63939941D01*
X144168577Y-63940500D01*
X140119399Y-63940500D01*
X140051278Y-63920498D01*
X140030304Y-63903595D01*
X139049290Y-62922580D01*
X139015264Y-62860268D01*
X139020329Y-62789452D01*
X139062876Y-62732617D01*
X139129396Y-62707806D01*
X139151224Y-62708141D01*
X139225000Y-62715700D01*
X140225800Y-62715700D01*
X140229046Y-62715363D01*
X140229050Y-62715363D01*
X140324708Y-62705438D01*
X140324712Y-62705437D01*
X140331566Y-62704726D01*
X140338102Y-62702545D01*
X140338104Y-62702545D01*
X140490189Y-62651805D01*
X140499346Y-62648750D01*
X140649748Y-62555678D01*
X140654921Y-62550496D01*
X140660658Y-62545949D01*
X140661998Y-62547640D01*
X140714969Y-62518657D01*
X140785789Y-62523662D01*
X140822728Y-62547357D01*
X140823483Y-62546401D01*
X140840640Y-62559951D01*
X140978643Y-62645016D01*
X140991824Y-62651163D01*
X141146110Y-62702338D01*
X141159486Y-62705205D01*
X141253838Y-62714872D01*
X141260254Y-62715200D01*
X141485285Y-62715200D01*
X141500524Y-62710725D01*
X141501729Y-62709335D01*
X141503400Y-62701652D01*
X141503400Y-62697084D01*
X142011400Y-62697084D01*
X142015875Y-62712323D01*
X142017265Y-62713528D01*
X142024948Y-62715199D01*
X142254495Y-62715199D01*
X142261014Y-62714862D01*
X142356606Y-62704943D01*
X142370000Y-62702051D01*
X142524184Y-62650612D01*
X142537362Y-62644439D01*
X142675207Y-62559137D01*
X142692345Y-62545554D01*
X142693696Y-62547258D01*
X142746614Y-62518304D01*
X142817434Y-62523307D01*
X142854794Y-62547274D01*
X142855483Y-62546401D01*
X142872640Y-62559951D01*
X143010643Y-62645016D01*
X143023824Y-62651163D01*
X143178110Y-62702338D01*
X143191486Y-62705205D01*
X143285838Y-62714872D01*
X143292254Y-62715200D01*
X143517285Y-62715200D01*
X143532524Y-62710725D01*
X143533729Y-62709335D01*
X143535400Y-62701652D01*
X143535400Y-62697084D01*
X144043400Y-62697084D01*
X144047875Y-62712323D01*
X144049265Y-62713528D01*
X144056948Y-62715199D01*
X144286495Y-62715199D01*
X144293014Y-62714862D01*
X144388606Y-62704943D01*
X144402000Y-62702051D01*
X144556184Y-62650612D01*
X144569362Y-62644439D01*
X144707207Y-62559137D01*
X144724345Y-62545554D01*
X144725696Y-62547258D01*
X144778614Y-62518304D01*
X144849434Y-62523307D01*
X144886794Y-62547274D01*
X144887483Y-62546401D01*
X144904640Y-62559951D01*
X145042643Y-62645016D01*
X145055824Y-62651163D01*
X145210110Y-62702338D01*
X145223486Y-62705205D01*
X145317838Y-62714872D01*
X145324254Y-62715200D01*
X145549285Y-62715200D01*
X145564524Y-62710725D01*
X145565729Y-62709335D01*
X145567400Y-62701652D01*
X145567400Y-61966815D01*
X145562925Y-61951576D01*
X145561535Y-61950371D01*
X145553852Y-61948700D01*
X144061515Y-61948700D01*
X144046276Y-61953175D01*
X144045071Y-61954565D01*
X144043400Y-61962248D01*
X144043400Y-62697084D01*
X143535400Y-62697084D01*
X143535400Y-61966815D01*
X143530925Y-61951576D01*
X143529535Y-61950371D01*
X143521852Y-61948700D01*
X142029515Y-61948700D01*
X142014276Y-61953175D01*
X142013071Y-61954565D01*
X142011400Y-61962248D01*
X142011400Y-62697084D01*
X141503400Y-62697084D01*
X141503400Y-61566700D01*
X141523402Y-61498579D01*
X141577058Y-61452086D01*
X141629400Y-61440700D01*
X147981400Y-61440700D01*
X148049521Y-61460702D01*
G37*
%TD.AperFunction*%
%TA.AperFunction,Conductor*%
G36*
X136138921Y-55136502D02*
G01*
X136158147Y-55152843D01*
X136158420Y-55152540D01*
X136163332Y-55156963D01*
X136167747Y-55161866D01*
X136173086Y-55165745D01*
X136304193Y-55261000D01*
X136322248Y-55274118D01*
X136328276Y-55276802D01*
X136328278Y-55276803D01*
X136483604Y-55345958D01*
X136496712Y-55351794D01*
X136590112Y-55371647D01*
X136677056Y-55390128D01*
X136677061Y-55390128D01*
X136683513Y-55391500D01*
X136874487Y-55391500D01*
X136881253Y-55390062D01*
X136881700Y-55389967D01*
X136882147Y-55390001D01*
X136887515Y-55389437D01*
X136887618Y-55390418D01*
X136952491Y-55395367D01*
X137009125Y-55438182D01*
X137033620Y-55504819D01*
X137033900Y-55513213D01*
X137033900Y-55751102D01*
X137036838Y-55788431D01*
X137083255Y-55948201D01*
X137087292Y-55955027D01*
X137163909Y-56084580D01*
X137163911Y-56084583D01*
X137167947Y-56091407D01*
X137285593Y-56209053D01*
X137292417Y-56213089D01*
X137292420Y-56213091D01*
X137366770Y-56257061D01*
X137428799Y-56293745D01*
X137436409Y-56295956D01*
X137436414Y-56295958D01*
X137555552Y-56330570D01*
X137615388Y-56368783D01*
X137645066Y-56433279D01*
X137646400Y-56451567D01*
X137646400Y-58345433D01*
X137645873Y-58356616D01*
X137644198Y-58364109D01*
X137644447Y-58372035D01*
X137644447Y-58372036D01*
X137646338Y-58432186D01*
X137646400Y-58436145D01*
X137646400Y-58464056D01*
X137646897Y-58467990D01*
X137646897Y-58467991D01*
X137646905Y-58468056D01*
X137647838Y-58479893D01*
X137649227Y-58524089D01*
X137654878Y-58543539D01*
X137658887Y-58562900D01*
X137659813Y-58570226D01*
X137661426Y-58582997D01*
X137664345Y-58590368D01*
X137664345Y-58590370D01*
X137677704Y-58624112D01*
X137681549Y-58635342D01*
X137690284Y-58665408D01*
X137693882Y-58677793D01*
X137697915Y-58684612D01*
X137697917Y-58684617D01*
X137704193Y-58695228D01*
X137712888Y-58712976D01*
X137720348Y-58731817D01*
X137725010Y-58738233D01*
X137725010Y-58738234D01*
X137746336Y-58767587D01*
X137752852Y-58777507D01*
X137766192Y-58800063D01*
X137775358Y-58815562D01*
X137789679Y-58829883D01*
X137802519Y-58844916D01*
X137814428Y-58861307D01*
X137832761Y-58876473D01*
X137848505Y-58889498D01*
X137857284Y-58897488D01*
X137885095Y-58925299D01*
X137919121Y-58987611D01*
X137922000Y-59014394D01*
X137922000Y-59997700D01*
X137901998Y-60065821D01*
X137848342Y-60112314D01*
X137796000Y-60123700D01*
X137540000Y-60123700D01*
X137471879Y-60103698D01*
X137425386Y-60050042D01*
X137414000Y-59997700D01*
X137414000Y-58867316D01*
X137409525Y-58852077D01*
X137408135Y-58850872D01*
X137400452Y-58849201D01*
X137170905Y-58849201D01*
X137164386Y-58849538D01*
X137068794Y-58859457D01*
X137055400Y-58862349D01*
X136901216Y-58913788D01*
X136888042Y-58919959D01*
X136855829Y-58939894D01*
X136787377Y-58958732D01*
X136719607Y-58937571D01*
X136674036Y-58883131D01*
X136663525Y-58832750D01*
X136663525Y-58765792D01*
X136664052Y-58754609D01*
X136665727Y-58747116D01*
X136665118Y-58727720D01*
X136663587Y-58679026D01*
X136663525Y-58675068D01*
X136663525Y-58647169D01*
X136663021Y-58643178D01*
X136662088Y-58631336D01*
X136662035Y-58629631D01*
X136660699Y-58587136D01*
X136658487Y-58579522D01*
X136658486Y-58579517D01*
X136655048Y-58567684D01*
X136651037Y-58548320D01*
X136649492Y-58536089D01*
X136648499Y-58528228D01*
X136645582Y-58520861D01*
X136645581Y-58520856D01*
X136632223Y-58487117D01*
X136628379Y-58475890D01*
X136618255Y-58441047D01*
X136616043Y-58433432D01*
X136611722Y-58426125D01*
X136605732Y-58415997D01*
X136597037Y-58398249D01*
X136589577Y-58379408D01*
X136563589Y-58343638D01*
X136557073Y-58333718D01*
X136538605Y-58302490D01*
X136538603Y-58302487D01*
X136534567Y-58295663D01*
X136520246Y-58281342D01*
X136507405Y-58266308D01*
X136500156Y-58256331D01*
X136495497Y-58249918D01*
X136489392Y-58244867D01*
X136489387Y-58244862D01*
X136461427Y-58221731D01*
X136452649Y-58213744D01*
X136329507Y-58090602D01*
X136202122Y-57963218D01*
X136168097Y-57900905D01*
X136165907Y-57887292D01*
X136149232Y-57728635D01*
X136149232Y-57728633D01*
X136148542Y-57722072D01*
X136089527Y-57540444D01*
X135994040Y-57375056D01*
X135959303Y-57336476D01*
X135870675Y-57238045D01*
X135870674Y-57238044D01*
X135866253Y-57233134D01*
X135711752Y-57120882D01*
X135705724Y-57118198D01*
X135705722Y-57118197D01*
X135543319Y-57045891D01*
X135543318Y-57045891D01*
X135537288Y-57043206D01*
X135440312Y-57022593D01*
X135356944Y-57004872D01*
X135356939Y-57004872D01*
X135350487Y-57003500D01*
X135159513Y-57003500D01*
X135153061Y-57004872D01*
X135153056Y-57004872D01*
X135069688Y-57022593D01*
X134972712Y-57043206D01*
X134966682Y-57045891D01*
X134966681Y-57045891D01*
X134922749Y-57065451D01*
X134852382Y-57074885D01*
X134788085Y-57044779D01*
X134750271Y-56984690D01*
X134745500Y-56950344D01*
X134745500Y-55940595D01*
X134765502Y-55872474D01*
X134782405Y-55851499D01*
X135480501Y-55153404D01*
X135542813Y-55119379D01*
X135569596Y-55116500D01*
X136070800Y-55116500D01*
X136138921Y-55136502D01*
G37*
%TD.AperFunction*%
%TD*%
%TA.AperFunction,NonConductor*%
G36*
X138851021Y-54463102D02*
G01*
X138897514Y-54516758D01*
X138908900Y-54569100D01*
X138908900Y-54600100D01*
X138888898Y-54668221D01*
X138835242Y-54714714D01*
X138782900Y-54726100D01*
X137806891Y-54726100D01*
X137738770Y-54706098D01*
X137692277Y-54652442D01*
X137681581Y-54586930D01*
X137684839Y-54555930D01*
X137711852Y-54490273D01*
X137770073Y-54449643D01*
X137810149Y-54443100D01*
X138782900Y-54443100D01*
X138851021Y-54463102D01*
G37*
%TD.AperFunction*%
%TA.AperFunction,NonConductor*%
G36*
X139439432Y-56147994D02*
G01*
X139496268Y-56190541D01*
X139521079Y-56257061D01*
X139521400Y-56266050D01*
X139521400Y-56694437D01*
X139520873Y-56705620D01*
X139519198Y-56713113D01*
X139519447Y-56721039D01*
X139519447Y-56721040D01*
X139521338Y-56781190D01*
X139521400Y-56785149D01*
X139521400Y-56813060D01*
X139521897Y-56816994D01*
X139521897Y-56816995D01*
X139521905Y-56817060D01*
X139522838Y-56828897D01*
X139524227Y-56873093D01*
X139529878Y-56892543D01*
X139533887Y-56911904D01*
X139536426Y-56932001D01*
X139538298Y-56936730D01*
X139541900Y-56965243D01*
X139541900Y-58208933D01*
X139541373Y-58220116D01*
X139539698Y-58227609D01*
X139539947Y-58235535D01*
X139539947Y-58235536D01*
X139541838Y-58295686D01*
X139541900Y-58299645D01*
X139541900Y-58327556D01*
X139542397Y-58331490D01*
X139542397Y-58331491D01*
X139542405Y-58331556D01*
X139543338Y-58343393D01*
X139544727Y-58387589D01*
X139550378Y-58407039D01*
X139554387Y-58426400D01*
X139556926Y-58446497D01*
X139559844Y-58453867D01*
X139568132Y-58474799D01*
X139574613Y-58545499D01*
X139541841Y-58608480D01*
X139480223Y-58643745D01*
X139409320Y-58640098D01*
X139361886Y-58610280D01*
X138950305Y-58198699D01*
X138916279Y-58136387D01*
X138913400Y-58109604D01*
X138913400Y-56451567D01*
X138933402Y-56383446D01*
X138987058Y-56336953D01*
X139004248Y-56330570D01*
X139123386Y-56295958D01*
X139123391Y-56295956D01*
X139131001Y-56293745D01*
X139193030Y-56257061D01*
X139267380Y-56213091D01*
X139267383Y-56213089D01*
X139274207Y-56209053D01*
X139306305Y-56176955D01*
X139368617Y-56142929D01*
X139439432Y-56147994D01*
G37*
%TD.AperFunction*%
%TA.AperFunction,NonConductor*%
G36*
X141284983Y-55245698D02*
G01*
X141336037Y-55295033D01*
X141352500Y-55357303D01*
X141352500Y-56690233D01*
X141351973Y-56701416D01*
X141350298Y-56708909D01*
X141350547Y-56716835D01*
X141350547Y-56716836D01*
X141352438Y-56776986D01*
X141352500Y-56780945D01*
X141352500Y-56808856D01*
X141352997Y-56812790D01*
X141352997Y-56812791D01*
X141353005Y-56812856D01*
X141353938Y-56824693D01*
X141355327Y-56868889D01*
X141358759Y-56880701D01*
X141360978Y-56888339D01*
X141364987Y-56907700D01*
X141367526Y-56927797D01*
X141370445Y-56935168D01*
X141370445Y-56935170D01*
X141383804Y-56968912D01*
X141387649Y-56980142D01*
X141399982Y-57022593D01*
X141404015Y-57029412D01*
X141404017Y-57029417D01*
X141410293Y-57040028D01*
X141418988Y-57057776D01*
X141426448Y-57076617D01*
X141431110Y-57083033D01*
X141431110Y-57083034D01*
X141452436Y-57112387D01*
X141458952Y-57122307D01*
X141460405Y-57124763D01*
X141481458Y-57160362D01*
X141495779Y-57174683D01*
X141508619Y-57189716D01*
X141520528Y-57206107D01*
X141526634Y-57211158D01*
X141554605Y-57234298D01*
X141563384Y-57242288D01*
X142137794Y-57816698D01*
X142171820Y-57879010D01*
X142166755Y-57949825D01*
X142136240Y-57994678D01*
X142136747Y-57995134D01*
X142008960Y-58137056D01*
X142005659Y-58142774D01*
X141920628Y-58290052D01*
X141913473Y-58302444D01*
X141854458Y-58484072D01*
X141853768Y-58490633D01*
X141853768Y-58490635D01*
X141844802Y-58575944D01*
X141834496Y-58674000D01*
X141835186Y-58680565D01*
X141835186Y-58680567D01*
X141838230Y-58709531D01*
X141825457Y-58779369D01*
X141776955Y-58831215D01*
X141712920Y-58848700D01*
X141684495Y-58848700D01*
X141616374Y-58828698D01*
X141595399Y-58811795D01*
X140845804Y-58062199D01*
X140811779Y-57999887D01*
X140808900Y-57973104D01*
X140808900Y-56872467D01*
X140809427Y-56861283D01*
X140811101Y-56853795D01*
X140808962Y-56785736D01*
X140808900Y-56781779D01*
X140808900Y-56753848D01*
X140808394Y-56749842D01*
X140807461Y-56737996D01*
X140806322Y-56701741D01*
X140806073Y-56693814D01*
X140800422Y-56674362D01*
X140796414Y-56655010D01*
X140794867Y-56642770D01*
X140793874Y-56634907D01*
X140792003Y-56630180D01*
X140788400Y-56601665D01*
X140788400Y-55501567D01*
X140808402Y-55433446D01*
X140862058Y-55386953D01*
X140879248Y-55380570D01*
X140998386Y-55345958D01*
X140998391Y-55345956D01*
X141006001Y-55343745D01*
X141061960Y-55310651D01*
X141142378Y-55263092D01*
X141142380Y-55263091D01*
X141149207Y-55259053D01*
X141151321Y-55256939D01*
X141215361Y-55231796D01*
X141284983Y-55245698D01*
G37*
%TD.AperFunction*%
%TA.AperFunction,NonConductor*%
G36*
X148233518Y-52631500D02*
G01*
X148248352Y-52633810D01*
X148248355Y-52633810D01*
X148257224Y-52635191D01*
X148266126Y-52634027D01*
X148266250Y-52634011D01*
X148296692Y-52633740D01*
X148304121Y-52634577D01*
X148358764Y-52640734D01*
X148386271Y-52647013D01*
X148463353Y-52673985D01*
X148488774Y-52686227D01*
X148557926Y-52729678D01*
X148579985Y-52747270D01*
X148637730Y-52805015D01*
X148655322Y-52827074D01*
X148698773Y-52896226D01*
X148711015Y-52921647D01*
X148737987Y-52998728D01*
X148744266Y-53026236D01*
X148750518Y-53081726D01*
X148750423Y-53097368D01*
X148751300Y-53097379D01*
X148751190Y-53106351D01*
X148749809Y-53115224D01*
X148750973Y-53124126D01*
X148750973Y-53124128D01*
X148753936Y-53146783D01*
X148755000Y-53163121D01*
X148755000Y-58783284D01*
X148734998Y-58851405D01*
X148681342Y-58897898D01*
X148611068Y-58908002D01*
X148589333Y-58902877D01*
X148509727Y-58876473D01*
X148451367Y-58836043D01*
X148439960Y-58817178D01*
X148439417Y-58817499D01*
X148429106Y-58800063D01*
X148420410Y-58782313D01*
X148415872Y-58770851D01*
X148415869Y-58770846D01*
X148412952Y-58763478D01*
X148395305Y-58739189D01*
X148386973Y-58727720D01*
X148380457Y-58717802D01*
X148361975Y-58686552D01*
X148357942Y-58679732D01*
X148343618Y-58665408D01*
X148330776Y-58650373D01*
X148318872Y-58633988D01*
X148284806Y-58605806D01*
X148276027Y-58597817D01*
X147832957Y-58154747D01*
X147825417Y-58146461D01*
X147821305Y-58139982D01*
X147771653Y-58093356D01*
X147768812Y-58090602D01*
X147749075Y-58070865D01*
X147745878Y-58068385D01*
X147736856Y-58060680D01*
X147710405Y-58035841D01*
X147704626Y-58030414D01*
X147697680Y-58026595D01*
X147697677Y-58026593D01*
X147686871Y-58020652D01*
X147670352Y-58009801D01*
X147669888Y-58009441D01*
X147654346Y-57997386D01*
X147647077Y-57994241D01*
X147647073Y-57994238D01*
X147613768Y-57979826D01*
X147603118Y-57974609D01*
X147564365Y-57953305D01*
X147544742Y-57948267D01*
X147526039Y-57941863D01*
X147514725Y-57936967D01*
X147514724Y-57936967D01*
X147507450Y-57933819D01*
X147499627Y-57932580D01*
X147499617Y-57932577D01*
X147463781Y-57926901D01*
X147452161Y-57924495D01*
X147417016Y-57915472D01*
X147417015Y-57915472D01*
X147409335Y-57913500D01*
X147389081Y-57913500D01*
X147369370Y-57911949D01*
X147357191Y-57910020D01*
X147349362Y-57908780D01*
X147341470Y-57909526D01*
X147305344Y-57912941D01*
X147293486Y-57913500D01*
X144078594Y-57913500D01*
X144010473Y-57893498D01*
X143989499Y-57876595D01*
X142656405Y-56543500D01*
X142622379Y-56481188D01*
X142619500Y-56454405D01*
X142619500Y-54931524D01*
X142639502Y-54863403D01*
X142651858Y-54847221D01*
X142725040Y-54765944D01*
X142820527Y-54600556D01*
X142879542Y-54418928D01*
X142899504Y-54229000D01*
X142879542Y-54039072D01*
X142820527Y-53857444D01*
X142725040Y-53692056D01*
X142701613Y-53666037D01*
X142601675Y-53555045D01*
X142601674Y-53555044D01*
X142597253Y-53550134D01*
X142498157Y-53478136D01*
X142448094Y-53441763D01*
X142448093Y-53441762D01*
X142442752Y-53437882D01*
X142436724Y-53435198D01*
X142436722Y-53435197D01*
X142274319Y-53362891D01*
X142274318Y-53362891D01*
X142268288Y-53360206D01*
X142174887Y-53340353D01*
X142087944Y-53321872D01*
X142087939Y-53321872D01*
X142081487Y-53320500D01*
X141890513Y-53320500D01*
X141884061Y-53321872D01*
X141884056Y-53321872D01*
X141797112Y-53340353D01*
X141703712Y-53360206D01*
X141697682Y-53362891D01*
X141697681Y-53362891D01*
X141535278Y-53435197D01*
X141535276Y-53435198D01*
X141529248Y-53437882D01*
X141523907Y-53441762D01*
X141523906Y-53441763D01*
X141473843Y-53478136D01*
X141374747Y-53550134D01*
X141370326Y-53555044D01*
X141370325Y-53555045D01*
X141270388Y-53666037D01*
X141246960Y-53692056D01*
X141192364Y-53786620D01*
X141191877Y-53787463D01*
X141140495Y-53836456D01*
X141070781Y-53849892D01*
X141018620Y-53832917D01*
X141012828Y-53829492D01*
X141012825Y-53829491D01*
X141006001Y-53825455D01*
X140998390Y-53823244D01*
X140998388Y-53823243D01*
X140872330Y-53786620D01*
X140812495Y-53748407D01*
X140787316Y-53694501D01*
X140785572Y-53695008D01*
X140784715Y-53692056D01*
X140779922Y-53675558D01*
X140775914Y-53656206D01*
X140774367Y-53643963D01*
X140773374Y-53636103D01*
X140770456Y-53628732D01*
X140757100Y-53594997D01*
X140753255Y-53583770D01*
X140744909Y-53555045D01*
X140740918Y-53541307D01*
X140730607Y-53523872D01*
X140721912Y-53506124D01*
X140714452Y-53487283D01*
X140688464Y-53451513D01*
X140681948Y-53441593D01*
X140663480Y-53410365D01*
X140663478Y-53410362D01*
X140659442Y-53403538D01*
X140645121Y-53389217D01*
X140632280Y-53374183D01*
X140625031Y-53364206D01*
X140620372Y-53357793D01*
X140614267Y-53352742D01*
X140614262Y-53352737D01*
X140586296Y-53329601D01*
X140577518Y-53321613D01*
X140101000Y-52845095D01*
X140066974Y-52782783D01*
X140072039Y-52711968D01*
X140114586Y-52655132D01*
X140181106Y-52630321D01*
X140190095Y-52630000D01*
X148214133Y-52630000D01*
X148233518Y-52631500D01*
G37*
%TD.AperFunction*%
%TA.AperFunction,NonConductor*%
G36*
X135701259Y-52650002D02*
G01*
X135747752Y-52703658D01*
X135758448Y-52769169D01*
X135738496Y-52959000D01*
X135738871Y-52962571D01*
X135719184Y-53029621D01*
X135665528Y-53076114D01*
X135613186Y-53087500D01*
X135206767Y-53087500D01*
X135195584Y-53086973D01*
X135188091Y-53085298D01*
X135180165Y-53085547D01*
X135180164Y-53085547D01*
X135120001Y-53087438D01*
X135116043Y-53087500D01*
X135088144Y-53087500D01*
X135084154Y-53088004D01*
X135072320Y-53088936D01*
X135028111Y-53090326D01*
X135020497Y-53092538D01*
X135020492Y-53092539D01*
X135008659Y-53095977D01*
X134989296Y-53099988D01*
X134969203Y-53102526D01*
X134961836Y-53105443D01*
X134961831Y-53105444D01*
X134928092Y-53118802D01*
X134916865Y-53122646D01*
X134874407Y-53134982D01*
X134867581Y-53139019D01*
X134856972Y-53145293D01*
X134839224Y-53153988D01*
X134820383Y-53161448D01*
X134813967Y-53166110D01*
X134813966Y-53166110D01*
X134784613Y-53187436D01*
X134774693Y-53193952D01*
X134743465Y-53212420D01*
X134743462Y-53212422D01*
X134736638Y-53216458D01*
X134722317Y-53230779D01*
X134707284Y-53243619D01*
X134690893Y-53255528D01*
X134685842Y-53261634D01*
X134662702Y-53289605D01*
X134654712Y-53298384D01*
X132703747Y-55249348D01*
X132695461Y-55256888D01*
X132688982Y-55261000D01*
X132683557Y-55266777D01*
X132642357Y-55310651D01*
X132639602Y-55313493D01*
X132619865Y-55333230D01*
X132617385Y-55336427D01*
X132609682Y-55345447D01*
X132579414Y-55377679D01*
X132575595Y-55384625D01*
X132575593Y-55384628D01*
X132569652Y-55395434D01*
X132558801Y-55411953D01*
X132546386Y-55427959D01*
X132543241Y-55435228D01*
X132543238Y-55435232D01*
X132528826Y-55468537D01*
X132523609Y-55479187D01*
X132502305Y-55517940D01*
X132500334Y-55525615D01*
X132500334Y-55525616D01*
X132497267Y-55537562D01*
X132490863Y-55556266D01*
X132482819Y-55574855D01*
X132481580Y-55582678D01*
X132481577Y-55582688D01*
X132475901Y-55618524D01*
X132473495Y-55630144D01*
X132462500Y-55672970D01*
X132462500Y-55693224D01*
X132460949Y-55712934D01*
X132457780Y-55732943D01*
X132458526Y-55740835D01*
X132461941Y-55776961D01*
X132462500Y-55788819D01*
X132462500Y-57336476D01*
X132442498Y-57404597D01*
X132430142Y-57420779D01*
X132356960Y-57502056D01*
X132261473Y-57667444D01*
X132202458Y-57849072D01*
X132201768Y-57855633D01*
X132201768Y-57855635D01*
X132191710Y-57951334D01*
X132182496Y-58039000D01*
X132183186Y-58045565D01*
X132201702Y-58221731D01*
X132202458Y-58228928D01*
X132261473Y-58410556D01*
X132264776Y-58416278D01*
X132264777Y-58416279D01*
X132286479Y-58453867D01*
X132356960Y-58575944D01*
X132361378Y-58580851D01*
X132361379Y-58580852D01*
X132477242Y-58709531D01*
X132484747Y-58717866D01*
X132567664Y-58778109D01*
X132624122Y-58819128D01*
X132639248Y-58830118D01*
X132645276Y-58832802D01*
X132645278Y-58832803D01*
X132772618Y-58889498D01*
X132813712Y-58907794D01*
X132896066Y-58925299D01*
X132994056Y-58946128D01*
X132994061Y-58946128D01*
X133000513Y-58947500D01*
X133191487Y-58947500D01*
X133197939Y-58946128D01*
X133197944Y-58946128D01*
X133326303Y-58918844D01*
X133397094Y-58924246D01*
X133453726Y-58967063D01*
X133478220Y-59033701D01*
X133478500Y-59042091D01*
X133478500Y-62758029D01*
X133458498Y-62826150D01*
X133404842Y-62872643D01*
X133338892Y-62883292D01*
X133287131Y-62877669D01*
X133283734Y-62877300D01*
X131587466Y-62877300D01*
X131525284Y-62884055D01*
X131442229Y-62915191D01*
X131371423Y-62920374D01*
X131309054Y-62886453D01*
X131274924Y-62824198D01*
X131272000Y-62797209D01*
X131272000Y-53174750D01*
X131273746Y-53153845D01*
X131276270Y-53138844D01*
X131276270Y-53138841D01*
X131277076Y-53134052D01*
X131277229Y-53121500D01*
X131276540Y-53116688D01*
X131276223Y-53111827D01*
X131276508Y-53111808D01*
X131276107Y-53085049D01*
X131282734Y-53026236D01*
X131289013Y-52998729D01*
X131315985Y-52921647D01*
X131328227Y-52896226D01*
X131371678Y-52827074D01*
X131389270Y-52805015D01*
X131447015Y-52747270D01*
X131469074Y-52729678D01*
X131538226Y-52686227D01*
X131563647Y-52673985D01*
X131640728Y-52647013D01*
X131668236Y-52640734D01*
X131723726Y-52634482D01*
X131739368Y-52634577D01*
X131739379Y-52633700D01*
X131748351Y-52633810D01*
X131757224Y-52635191D01*
X131766126Y-52634027D01*
X131766128Y-52634027D01*
X131781451Y-52632023D01*
X131788786Y-52631064D01*
X131805121Y-52630000D01*
X135633138Y-52630000D01*
X135701259Y-52650002D01*
G37*
%TD.AperFunction*%
%TA.AperFunction,NonConductor*%
G36*
X136855641Y-62624892D02*
G01*
X136888288Y-62645016D01*
X136895262Y-62649315D01*
X136939630Y-62664031D01*
X137056611Y-62702832D01*
X137056613Y-62702832D01*
X137063139Y-62704997D01*
X137069975Y-62705697D01*
X137069978Y-62705698D01*
X137113031Y-62710109D01*
X137167600Y-62715700D01*
X137173644Y-62715700D01*
X137241765Y-62735702D01*
X137288258Y-62789358D01*
X137298362Y-62859632D01*
X137268868Y-62924212D01*
X137224892Y-62956807D01*
X137218312Y-62959737D01*
X137211248Y-62962882D01*
X137056747Y-63075134D01*
X136928960Y-63217056D01*
X136925659Y-63222774D01*
X136898644Y-63269565D01*
X136847262Y-63318558D01*
X136777548Y-63331994D01*
X136711637Y-63305608D01*
X136670455Y-63247776D01*
X136663525Y-63206565D01*
X136663525Y-62732152D01*
X136683527Y-62664031D01*
X136737183Y-62617538D01*
X136807457Y-62607434D01*
X136855641Y-62624892D01*
G37*
%TD.AperFunction*%
%TA.AperFunction,NonConductor*%
G36*
X148673032Y-65143032D02*
G01*
X148729868Y-65185579D01*
X148754679Y-65252099D01*
X148755000Y-65261088D01*
X148755000Y-65650512D01*
X148734998Y-65718633D01*
X148681342Y-65765126D01*
X148611068Y-65775230D01*
X148546488Y-65745736D01*
X148539905Y-65739607D01*
X148519900Y-65719602D01*
X148515392Y-65716445D01*
X148515389Y-65716443D01*
X148422653Y-65651509D01*
X148332349Y-65588277D01*
X148327367Y-65585954D01*
X148327362Y-65585951D01*
X148293143Y-65569995D01*
X148239858Y-65523078D01*
X148220397Y-65454801D01*
X148240939Y-65386841D01*
X148293143Y-65341605D01*
X148327362Y-65325649D01*
X148327367Y-65325646D01*
X148332349Y-65323323D01*
X148474058Y-65224097D01*
X148515389Y-65195157D01*
X148515392Y-65195155D01*
X148519900Y-65191998D01*
X148539905Y-65171993D01*
X148602217Y-65137967D01*
X148673032Y-65143032D01*
G37*
%TD.AperFunction*%
%TA.AperFunction,NonConductor*%
G36*
X134922748Y-58758549D02*
G01*
X134939017Y-58765792D01*
X134950380Y-58770851D01*
X134972712Y-58780794D01*
X135063365Y-58800063D01*
X135153056Y-58819128D01*
X135153061Y-58819128D01*
X135159513Y-58820500D01*
X135215405Y-58820500D01*
X135283526Y-58840502D01*
X135304500Y-58857405D01*
X135359620Y-58912525D01*
X135393646Y-58974837D01*
X135396525Y-59001620D01*
X135396525Y-64068440D01*
X135376523Y-64136561D01*
X135364167Y-64152743D01*
X135290985Y-64234020D01*
X135195498Y-64399408D01*
X135136483Y-64581036D01*
X135135793Y-64587597D01*
X135135793Y-64587599D01*
X135129101Y-64651272D01*
X135116521Y-64770964D01*
X135136483Y-64960892D01*
X135195498Y-65142520D01*
X135198801Y-65148242D01*
X135198802Y-65148243D01*
X135202658Y-65154921D01*
X135290985Y-65307908D01*
X135295403Y-65312815D01*
X135295404Y-65312816D01*
X135406693Y-65436415D01*
X135418772Y-65449830D01*
X135509785Y-65515955D01*
X135521903Y-65524759D01*
X135573273Y-65562082D01*
X135579301Y-65564766D01*
X135579303Y-65564767D01*
X135739541Y-65636109D01*
X135747737Y-65639758D01*
X135831206Y-65657500D01*
X135928081Y-65678092D01*
X135928086Y-65678092D01*
X135934538Y-65679464D01*
X136125512Y-65679464D01*
X136131964Y-65678092D01*
X136131969Y-65678092D01*
X136228844Y-65657500D01*
X136312313Y-65639758D01*
X136320509Y-65636109D01*
X136480747Y-65564767D01*
X136480749Y-65564766D01*
X136486777Y-65562082D01*
X136538148Y-65524759D01*
X136550265Y-65515955D01*
X136641278Y-65449830D01*
X136653357Y-65436415D01*
X136764646Y-65312816D01*
X136764647Y-65312815D01*
X136769065Y-65307908D01*
X136857392Y-65154921D01*
X136861248Y-65148243D01*
X136861249Y-65148242D01*
X136864552Y-65142520D01*
X136919836Y-64972373D01*
X136959910Y-64913768D01*
X137025306Y-64886131D01*
X137095263Y-64898238D01*
X137147569Y-64946244D01*
X137159502Y-64972374D01*
X137214473Y-65141556D01*
X137309960Y-65306944D01*
X137314378Y-65311851D01*
X137314379Y-65311852D01*
X137426536Y-65436415D01*
X137437747Y-65448866D01*
X137592248Y-65561118D01*
X137598276Y-65563802D01*
X137598278Y-65563803D01*
X137648024Y-65585951D01*
X137766712Y-65638794D01*
X137854716Y-65657500D01*
X137947056Y-65677128D01*
X137947061Y-65677128D01*
X137953513Y-65678500D01*
X138144487Y-65678500D01*
X138160421Y-65675113D01*
X138224652Y-65661461D01*
X138270554Y-65660259D01*
X138275106Y-65660980D01*
X138275116Y-65660980D01*
X138282943Y-65662220D01*
X138290835Y-65661474D01*
X138326961Y-65658059D01*
X138338819Y-65657500D01*
X138811273Y-65657500D01*
X138879394Y-65677502D01*
X138925887Y-65731158D01*
X138935991Y-65801432D01*
X138935147Y-65806173D01*
X138933458Y-65811372D01*
X138928275Y-65860683D01*
X138915790Y-65979471D01*
X138888777Y-66045127D01*
X138830555Y-66085757D01*
X138790480Y-66092300D01*
X133654994Y-66092300D01*
X133586873Y-66072298D01*
X133551781Y-66038571D01*
X133444957Y-65886011D01*
X133444955Y-65886008D01*
X133441798Y-65881500D01*
X133279900Y-65719602D01*
X133275389Y-65716443D01*
X133271176Y-65712908D01*
X133272127Y-65711774D01*
X133232129Y-65661729D01*
X133224824Y-65591110D01*
X133256858Y-65527751D01*
X133318062Y-65491770D01*
X133335117Y-65488718D01*
X133345916Y-65487545D01*
X133482305Y-65436415D01*
X133598861Y-65349061D01*
X133686215Y-65232505D01*
X133737345Y-65096116D01*
X133744100Y-65033934D01*
X133744100Y-64925349D01*
X133764102Y-64857228D01*
X133817758Y-64810735D01*
X133834386Y-64804857D01*
X133838997Y-64804274D01*
X133846367Y-64801356D01*
X133880112Y-64787996D01*
X133891342Y-64784151D01*
X133926183Y-64774029D01*
X133926184Y-64774029D01*
X133933793Y-64771818D01*
X133940612Y-64767785D01*
X133940617Y-64767783D01*
X133951228Y-64761507D01*
X133968976Y-64752812D01*
X133987817Y-64745352D01*
X134023587Y-64719364D01*
X134033507Y-64712848D01*
X134064735Y-64694380D01*
X134064738Y-64694378D01*
X134071562Y-64690342D01*
X134085883Y-64676021D01*
X134100917Y-64663180D01*
X134110894Y-64655931D01*
X134117307Y-64651272D01*
X134145498Y-64617195D01*
X134153488Y-64608416D01*
X134504247Y-64257657D01*
X134512537Y-64250113D01*
X134519018Y-64246000D01*
X134565659Y-64196332D01*
X134568413Y-64193491D01*
X134588134Y-64173770D01*
X134590612Y-64170575D01*
X134598318Y-64161553D01*
X134623158Y-64135101D01*
X134628586Y-64129321D01*
X134636422Y-64115068D01*
X134638346Y-64111568D01*
X134649199Y-64095045D01*
X134656753Y-64085306D01*
X134661613Y-64079041D01*
X134679176Y-64038457D01*
X134684383Y-64027827D01*
X134705695Y-63989060D01*
X134707666Y-63981383D01*
X134707668Y-63981378D01*
X134710732Y-63969442D01*
X134717138Y-63950730D01*
X134722034Y-63939417D01*
X134725181Y-63932145D01*
X134732097Y-63888481D01*
X134734504Y-63876860D01*
X134743528Y-63841711D01*
X134743528Y-63841710D01*
X134745500Y-63834030D01*
X134745500Y-63813769D01*
X134747051Y-63794058D01*
X134748979Y-63781885D01*
X134750219Y-63774057D01*
X134746059Y-63730046D01*
X134745500Y-63718189D01*
X134745500Y-58873656D01*
X134765502Y-58805535D01*
X134819158Y-58759042D01*
X134889432Y-58748938D01*
X134922748Y-58758549D01*
G37*
%TD.AperFunction*%
%TA.AperFunction,NonConductor*%
G36*
X148673032Y-67683032D02*
G01*
X148729868Y-67725579D01*
X148754679Y-67792099D01*
X148755000Y-67801088D01*
X148755000Y-68190512D01*
X148734998Y-68258633D01*
X148681342Y-68305126D01*
X148611068Y-68315230D01*
X148546488Y-68285736D01*
X148539905Y-68279607D01*
X148519900Y-68259602D01*
X148515392Y-68256445D01*
X148515389Y-68256443D01*
X148437211Y-68201702D01*
X148332349Y-68128277D01*
X148327367Y-68125954D01*
X148327362Y-68125951D01*
X148293143Y-68109995D01*
X148239858Y-68063078D01*
X148220397Y-67994801D01*
X148240939Y-67926841D01*
X148293143Y-67881605D01*
X148327362Y-67865649D01*
X148327367Y-67865646D01*
X148332349Y-67863323D01*
X148480922Y-67759291D01*
X148515389Y-67735157D01*
X148515392Y-67735155D01*
X148519900Y-67731998D01*
X148539905Y-67711993D01*
X148602217Y-67677967D01*
X148673032Y-67683032D01*
G37*
%TD.AperFunction*%
%TA.AperFunction,NonConductor*%
G36*
X131036601Y-64073682D02*
G01*
X131096326Y-64112067D01*
X131125818Y-64176648D01*
X131127100Y-64194577D01*
X131127100Y-65033934D01*
X131133855Y-65096116D01*
X131184985Y-65232505D01*
X131272339Y-65349061D01*
X131388895Y-65436415D01*
X131525284Y-65487545D01*
X131536074Y-65488717D01*
X131538206Y-65489603D01*
X131540822Y-65490225D01*
X131540721Y-65490648D01*
X131601635Y-65515955D01*
X131642063Y-65574317D01*
X131644522Y-65645271D01*
X131608229Y-65706290D01*
X131599569Y-65713289D01*
X131595807Y-65716446D01*
X131591300Y-65719602D01*
X131429402Y-65881500D01*
X131298077Y-66069051D01*
X131295754Y-66074033D01*
X131295751Y-66074038D01*
X131203639Y-66271575D01*
X131201316Y-66276557D01*
X131142057Y-66497713D01*
X131122102Y-66725800D01*
X131142057Y-66953887D01*
X131143481Y-66959200D01*
X131143481Y-66959202D01*
X131181417Y-67100778D01*
X131201316Y-67175043D01*
X131203639Y-67180024D01*
X131203639Y-67180025D01*
X131295751Y-67377562D01*
X131295754Y-67377567D01*
X131298077Y-67382549D01*
X131356200Y-67465557D01*
X131415410Y-67550117D01*
X131429402Y-67570100D01*
X131591300Y-67731998D01*
X131595808Y-67735155D01*
X131595811Y-67735157D01*
X131630278Y-67759291D01*
X131778851Y-67863323D01*
X131783833Y-67865646D01*
X131783838Y-67865649D01*
X131818057Y-67881605D01*
X131871342Y-67928522D01*
X131890803Y-67996799D01*
X131870261Y-68064759D01*
X131818057Y-68109995D01*
X131783838Y-68125951D01*
X131783833Y-68125954D01*
X131778851Y-68128277D01*
X131673989Y-68201702D01*
X131595811Y-68256443D01*
X131595808Y-68256445D01*
X131591300Y-68259602D01*
X131429402Y-68421500D01*
X131426245Y-68426008D01*
X131426243Y-68426011D01*
X131394158Y-68471834D01*
X131298077Y-68609051D01*
X131295754Y-68614033D01*
X131295751Y-68614038D01*
X131206679Y-68805056D01*
X131201316Y-68816557D01*
X131142057Y-69037713D01*
X131122102Y-69265800D01*
X131142057Y-69493887D01*
X131195380Y-69692888D01*
X131193690Y-69763865D01*
X131153896Y-69822661D01*
X131088632Y-69850609D01*
X131073673Y-69851500D01*
X129948967Y-69851500D01*
X129937779Y-69850972D01*
X129930291Y-69849298D01*
X129922373Y-69849547D01*
X129914961Y-69848846D01*
X129849025Y-69822520D01*
X129807790Y-69764726D01*
X129805115Y-69690795D01*
X129861919Y-69478802D01*
X129861919Y-69478800D01*
X129863343Y-69473487D01*
X129883298Y-69245400D01*
X129863343Y-69017313D01*
X129861917Y-69011991D01*
X129805507Y-68801467D01*
X129805506Y-68801465D01*
X129804084Y-68796157D01*
X129801761Y-68791175D01*
X129709649Y-68593638D01*
X129709646Y-68593633D01*
X129707323Y-68588651D01*
X129625527Y-68471834D01*
X129579157Y-68405611D01*
X129579155Y-68405608D01*
X129575998Y-68401100D01*
X129414100Y-68239202D01*
X129409589Y-68236043D01*
X129405376Y-68232508D01*
X129406327Y-68231374D01*
X129366329Y-68181329D01*
X129359024Y-68110710D01*
X129391058Y-68047351D01*
X129452262Y-68011370D01*
X129469317Y-68008318D01*
X129480116Y-68007145D01*
X129616505Y-67956015D01*
X129733061Y-67868661D01*
X129820415Y-67752105D01*
X129871545Y-67615716D01*
X129878300Y-67553534D01*
X129878300Y-65857266D01*
X129871545Y-65795084D01*
X129820415Y-65658695D01*
X129733061Y-65542139D01*
X129616505Y-65454785D01*
X129480116Y-65403655D01*
X129417934Y-65396900D01*
X127898000Y-65396900D01*
X127829879Y-65376898D01*
X127783386Y-65323242D01*
X127772000Y-65270900D01*
X127772000Y-65174750D01*
X127773746Y-65153845D01*
X127776270Y-65138844D01*
X127776270Y-65138841D01*
X127777076Y-65134052D01*
X127777229Y-65121500D01*
X127776540Y-65116688D01*
X127776223Y-65111827D01*
X127776508Y-65111808D01*
X127776107Y-65085049D01*
X127782734Y-65026236D01*
X127789013Y-64998729D01*
X127815985Y-64921647D01*
X127828227Y-64896226D01*
X127871678Y-64827074D01*
X127889270Y-64805015D01*
X127947015Y-64747270D01*
X127969074Y-64729678D01*
X128038226Y-64686227D01*
X128063647Y-64673985D01*
X128140728Y-64647013D01*
X128168236Y-64640734D01*
X128223726Y-64634482D01*
X128239368Y-64634577D01*
X128239379Y-64633700D01*
X128248351Y-64633810D01*
X128257224Y-64635191D01*
X128266126Y-64634027D01*
X128266128Y-64634027D01*
X128281177Y-64632059D01*
X128288786Y-64631064D01*
X128305121Y-64630000D01*
X129710250Y-64630000D01*
X129731155Y-64631746D01*
X129746156Y-64634270D01*
X129746159Y-64634270D01*
X129750948Y-64635076D01*
X129757187Y-64635152D01*
X129758640Y-64635170D01*
X129758643Y-64635170D01*
X129763500Y-64635229D01*
X129778290Y-64633111D01*
X129787143Y-64632162D01*
X129974242Y-64618780D01*
X129978730Y-64618459D01*
X130030271Y-64607247D01*
X130185182Y-64573549D01*
X130185189Y-64573547D01*
X130189579Y-64572592D01*
X130193794Y-64571020D01*
X130193797Y-64571019D01*
X130290667Y-64534888D01*
X130391754Y-64497185D01*
X130581140Y-64393772D01*
X130753881Y-64264460D01*
X130906460Y-64111881D01*
X130906738Y-64111510D01*
X130965604Y-64073680D01*
X131036601Y-64073682D01*
G37*
%TD.AperFunction*%
%TA.AperFunction,NonConductor*%
G36*
X148673032Y-70223032D02*
G01*
X148729868Y-70265579D01*
X148754679Y-70332099D01*
X148755000Y-70341088D01*
X148755000Y-70730512D01*
X148734998Y-70798633D01*
X148681342Y-70845126D01*
X148611068Y-70855230D01*
X148546488Y-70825736D01*
X148539905Y-70819607D01*
X148519900Y-70799602D01*
X148515392Y-70796445D01*
X148515389Y-70796443D01*
X148437211Y-70741702D01*
X148332349Y-70668277D01*
X148327367Y-70665954D01*
X148327362Y-70665951D01*
X148293143Y-70649995D01*
X148239858Y-70603078D01*
X148220397Y-70534801D01*
X148240939Y-70466841D01*
X148293143Y-70421605D01*
X148327362Y-70405649D01*
X148327367Y-70405646D01*
X148332349Y-70403323D01*
X148437211Y-70329898D01*
X148515389Y-70275157D01*
X148515392Y-70275155D01*
X148519900Y-70271998D01*
X148539905Y-70251993D01*
X148602217Y-70217967D01*
X148673032Y-70223032D01*
G37*
%TD.AperFunction*%
%TA.AperFunction,NonConductor*%
G36*
X146422664Y-71138502D02*
G01*
X146469157Y-71192158D01*
X146479261Y-71262432D01*
X146468738Y-71297750D01*
X146448353Y-71341467D01*
X146441316Y-71356557D01*
X146382057Y-71577713D01*
X146362102Y-71805800D01*
X146382057Y-72033887D01*
X146399060Y-72097341D01*
X146397370Y-72168318D01*
X146366448Y-72219047D01*
X146345500Y-72239995D01*
X146283188Y-72274021D01*
X146256405Y-72276900D01*
X145196968Y-72276900D01*
X145128847Y-72256898D01*
X145082354Y-72203242D01*
X145072250Y-72132968D01*
X145075261Y-72118288D01*
X145080874Y-72097341D01*
X145103343Y-72013487D01*
X145123298Y-71785400D01*
X145103343Y-71557313D01*
X145101917Y-71551991D01*
X145045507Y-71341467D01*
X145045506Y-71341465D01*
X145044084Y-71336157D01*
X145026175Y-71297750D01*
X145026175Y-71297749D01*
X145015514Y-71227557D01*
X145044495Y-71162745D01*
X145103915Y-71123889D01*
X145140370Y-71118500D01*
X146354543Y-71118500D01*
X146422664Y-71138502D01*
G37*
%TD.AperFunction*%
%TA.AperFunction,NonConductor*%
G36*
X131182664Y-71138502D02*
G01*
X131229157Y-71192158D01*
X131239261Y-71262432D01*
X131228738Y-71297750D01*
X131208353Y-71341467D01*
X131201316Y-71356557D01*
X131142057Y-71577713D01*
X131122102Y-71805800D01*
X131142057Y-72033887D01*
X131143480Y-72039198D01*
X131143481Y-72039202D01*
X131196534Y-72237195D01*
X131201316Y-72255043D01*
X131203639Y-72260024D01*
X131203639Y-72260025D01*
X131249629Y-72358651D01*
X131260290Y-72428843D01*
X131231310Y-72493656D01*
X131171890Y-72532512D01*
X131135434Y-72537901D01*
X129860454Y-72537901D01*
X129792333Y-72517899D01*
X129745840Y-72464243D01*
X129735736Y-72393969D01*
X129746259Y-72358652D01*
X129801759Y-72239630D01*
X129801761Y-72239625D01*
X129804084Y-72234643D01*
X129822047Y-72167607D01*
X129861919Y-72018802D01*
X129861920Y-72018799D01*
X129863343Y-72013487D01*
X129883298Y-71785400D01*
X129863343Y-71557313D01*
X129861919Y-71551998D01*
X129861918Y-71551991D01*
X129846341Y-71493859D01*
X129848030Y-71422883D01*
X129878952Y-71372152D01*
X130095699Y-71155405D01*
X130158011Y-71121379D01*
X130184794Y-71118500D01*
X131114543Y-71118500D01*
X131182664Y-71138502D01*
G37*
%TD.AperFunction*%
%TA.AperFunction,NonConductor*%
G36*
X148673032Y-72763032D02*
G01*
X148729868Y-72805579D01*
X148754679Y-72872099D01*
X148755000Y-72881088D01*
X148755000Y-73270512D01*
X148734998Y-73338633D01*
X148681342Y-73385126D01*
X148611068Y-73395230D01*
X148546488Y-73365736D01*
X148539905Y-73359607D01*
X148519900Y-73339602D01*
X148515392Y-73336445D01*
X148515389Y-73336443D01*
X148437211Y-73281702D01*
X148332349Y-73208277D01*
X148327367Y-73205954D01*
X148327362Y-73205951D01*
X148293143Y-73189995D01*
X148239858Y-73143078D01*
X148220397Y-73074801D01*
X148240939Y-73006841D01*
X148293143Y-72961605D01*
X148327362Y-72945649D01*
X148327367Y-72945646D01*
X148332349Y-72943323D01*
X148502534Y-72824158D01*
X148515389Y-72815157D01*
X148515392Y-72815155D01*
X148519900Y-72811998D01*
X148539905Y-72791993D01*
X148602217Y-72757967D01*
X148673032Y-72763032D01*
G37*
%TD.AperFunction*%
%TA.AperFunction,NonConductor*%
G36*
X146476102Y-73563902D02*
G01*
X146522595Y-73617558D01*
X146532699Y-73687832D01*
X146522176Y-73723149D01*
X146443641Y-73891570D01*
X146441316Y-73896557D01*
X146439894Y-73901865D01*
X146439893Y-73901867D01*
X146423647Y-73962498D01*
X146382057Y-74117713D01*
X146362102Y-74345800D01*
X146382057Y-74573887D01*
X146399060Y-74637341D01*
X146397370Y-74708318D01*
X146366448Y-74759047D01*
X146345500Y-74779995D01*
X146283188Y-74814021D01*
X146256405Y-74816900D01*
X145196968Y-74816900D01*
X145128847Y-74796898D01*
X145082354Y-74743242D01*
X145072250Y-74672968D01*
X145075261Y-74658288D01*
X145080874Y-74637341D01*
X145103343Y-74553487D01*
X145123298Y-74325400D01*
X145103343Y-74097313D01*
X145100319Y-74086028D01*
X145045507Y-73881467D01*
X145045506Y-73881465D01*
X145044084Y-73876157D01*
X145012200Y-73807780D01*
X144990899Y-73762100D01*
X144972736Y-73723149D01*
X144962075Y-73652958D01*
X144991055Y-73588145D01*
X145050475Y-73549289D01*
X145086931Y-73543900D01*
X146407981Y-73543900D01*
X146476102Y-73563902D01*
G37*
%TD.AperFunction*%
%TA.AperFunction,NonConductor*%
G36*
X131129789Y-73824903D02*
G01*
X131176282Y-73878559D01*
X131186386Y-73948833D01*
X131183375Y-73963512D01*
X131142057Y-74117713D01*
X131122102Y-74345800D01*
X131142057Y-74573887D01*
X131143480Y-74579198D01*
X131143481Y-74579202D01*
X131159060Y-74637341D01*
X131201316Y-74795043D01*
X131203639Y-74800025D01*
X131203641Y-74800030D01*
X131240582Y-74879251D01*
X131251243Y-74949442D01*
X131222263Y-75014255D01*
X131162843Y-75053111D01*
X131126387Y-75058500D01*
X129869500Y-75058500D01*
X129801379Y-75038498D01*
X129754886Y-74984842D01*
X129744782Y-74914568D01*
X129755305Y-74879250D01*
X129801761Y-74779625D01*
X129801761Y-74779624D01*
X129804084Y-74774643D01*
X129822047Y-74707607D01*
X129861919Y-74558802D01*
X129861920Y-74558799D01*
X129863343Y-74553487D01*
X129883298Y-74325400D01*
X129863343Y-74097313D01*
X129860319Y-74086028D01*
X129846341Y-74033859D01*
X129848031Y-73962882D01*
X129878953Y-73912153D01*
X129949300Y-73841806D01*
X130011612Y-73807780D01*
X130038395Y-73804901D01*
X131061668Y-73804901D01*
X131129789Y-73824903D01*
G37*
%TD.AperFunction*%
%TA.AperFunction,NonConductor*%
G36*
X148673032Y-75303032D02*
G01*
X148729868Y-75345579D01*
X148754679Y-75412099D01*
X148755000Y-75421088D01*
X148755000Y-75810512D01*
X148734998Y-75878633D01*
X148681342Y-75925126D01*
X148611068Y-75935230D01*
X148546488Y-75905736D01*
X148539905Y-75899607D01*
X148519900Y-75879602D01*
X148515392Y-75876445D01*
X148515389Y-75876443D01*
X148437211Y-75821702D01*
X148332349Y-75748277D01*
X148327367Y-75745954D01*
X148327362Y-75745951D01*
X148293143Y-75729995D01*
X148239858Y-75683078D01*
X148220397Y-75614801D01*
X148240939Y-75546841D01*
X148293143Y-75501605D01*
X148327362Y-75485649D01*
X148327367Y-75485646D01*
X148332349Y-75483323D01*
X148502534Y-75364158D01*
X148515389Y-75355157D01*
X148515392Y-75355155D01*
X148519900Y-75351998D01*
X148539905Y-75331993D01*
X148602217Y-75297967D01*
X148673032Y-75303032D01*
G37*
%TD.AperFunction*%
%TA.AperFunction,NonConductor*%
G36*
X131134988Y-76345502D02*
G01*
X131181481Y-76399158D01*
X131191585Y-76469432D01*
X131188575Y-76484105D01*
X131142057Y-76657713D01*
X131122102Y-76885800D01*
X131142057Y-77113887D01*
X131194427Y-77309333D01*
X131195380Y-77312888D01*
X131193690Y-77383865D01*
X131153896Y-77442661D01*
X131088632Y-77470609D01*
X131073673Y-77471500D01*
X129948967Y-77471500D01*
X129937779Y-77470972D01*
X129930291Y-77469298D01*
X129922373Y-77469547D01*
X129914961Y-77468846D01*
X129849025Y-77442520D01*
X129807790Y-77384726D01*
X129805115Y-77310795D01*
X129861919Y-77098802D01*
X129861919Y-77098800D01*
X129863343Y-77093487D01*
X129883298Y-76865400D01*
X129863343Y-76637313D01*
X129861919Y-76631998D01*
X129861918Y-76631991D01*
X129846341Y-76573859D01*
X129848030Y-76502883D01*
X129878952Y-76452152D01*
X129968699Y-76362405D01*
X130031011Y-76328379D01*
X130057794Y-76325500D01*
X131066867Y-76325500D01*
X131134988Y-76345502D01*
G37*
%TD.AperFunction*%
%TA.AperFunction,NonConductor*%
G36*
X146476102Y-76103902D02*
G01*
X146522595Y-76157558D01*
X146532699Y-76227832D01*
X146522176Y-76263149D01*
X146443641Y-76431570D01*
X146441316Y-76436557D01*
X146439894Y-76441865D01*
X146439893Y-76441867D01*
X146383481Y-76652398D01*
X146382057Y-76657713D01*
X146362102Y-76885800D01*
X146382057Y-77113887D01*
X146383480Y-77119199D01*
X146383481Y-77119202D01*
X146435380Y-77312888D01*
X146441316Y-77335043D01*
X146443639Y-77340024D01*
X146443639Y-77340025D01*
X146535751Y-77537562D01*
X146535754Y-77537567D01*
X146538077Y-77542549D01*
X146611502Y-77647411D01*
X146655118Y-77709700D01*
X146669402Y-77730100D01*
X146831300Y-77891998D01*
X146835808Y-77895155D01*
X146835811Y-77895157D01*
X146848666Y-77904158D01*
X147018851Y-78023323D01*
X147023833Y-78025646D01*
X147023838Y-78025649D01*
X147058057Y-78041605D01*
X147111342Y-78088522D01*
X147130803Y-78156799D01*
X147110261Y-78224759D01*
X147058057Y-78269995D01*
X147023838Y-78285951D01*
X147023833Y-78285954D01*
X147018851Y-78288277D01*
X146913989Y-78361702D01*
X146835811Y-78416443D01*
X146835808Y-78416445D01*
X146831300Y-78419602D01*
X146669402Y-78581500D01*
X146666245Y-78586008D01*
X146666243Y-78586011D01*
X146573704Y-78718171D01*
X146518247Y-78762499D01*
X146470491Y-78771900D01*
X145029194Y-78771900D01*
X144961073Y-78751898D01*
X144925981Y-78718171D01*
X144819157Y-78565611D01*
X144819155Y-78565608D01*
X144815998Y-78561100D01*
X144654100Y-78399202D01*
X144649592Y-78396045D01*
X144649589Y-78396043D01*
X144571411Y-78341302D01*
X144466549Y-78267877D01*
X144461567Y-78265554D01*
X144461562Y-78265551D01*
X144427343Y-78249595D01*
X144374058Y-78202678D01*
X144354597Y-78134401D01*
X144375139Y-78066441D01*
X144427343Y-78021205D01*
X144461562Y-78005249D01*
X144461567Y-78005246D01*
X144466549Y-78002923D01*
X144607600Y-77904158D01*
X144649589Y-77874757D01*
X144649592Y-77874755D01*
X144654100Y-77871598D01*
X144815998Y-77709700D01*
X144820134Y-77703794D01*
X144877240Y-77622237D01*
X144947323Y-77522149D01*
X144949646Y-77517167D01*
X144949649Y-77517162D01*
X145041761Y-77319625D01*
X145041761Y-77319624D01*
X145044084Y-77314643D01*
X145096454Y-77119199D01*
X145101919Y-77098802D01*
X145101919Y-77098800D01*
X145103343Y-77093487D01*
X145123298Y-76865400D01*
X145103343Y-76637313D01*
X145101917Y-76631991D01*
X145045507Y-76421467D01*
X145045506Y-76421465D01*
X145044084Y-76416157D01*
X144972736Y-76263149D01*
X144962075Y-76192958D01*
X144991055Y-76128145D01*
X145050475Y-76089289D01*
X145086931Y-76083900D01*
X146407981Y-76083900D01*
X146476102Y-76103902D01*
G37*
%TD.AperFunction*%
%TA.AperFunction,NonConductor*%
G36*
X131182664Y-78758502D02*
G01*
X131229157Y-78812158D01*
X131239261Y-78882432D01*
X131228738Y-78917750D01*
X131201316Y-78976557D01*
X131142057Y-79197713D01*
X131122102Y-79425800D01*
X131142057Y-79653887D01*
X131143481Y-79659200D01*
X131143481Y-79659202D01*
X131160897Y-79724197D01*
X131201316Y-79875043D01*
X131203639Y-79880025D01*
X131203641Y-79880030D01*
X131240582Y-79959251D01*
X131251243Y-80029442D01*
X131222263Y-80094255D01*
X131162843Y-80133111D01*
X131126387Y-80138500D01*
X129869500Y-80138500D01*
X129801379Y-80118498D01*
X129754886Y-80064842D01*
X129744782Y-79994568D01*
X129755305Y-79959250D01*
X129801761Y-79859625D01*
X129801761Y-79859624D01*
X129804084Y-79854643D01*
X129846002Y-79698206D01*
X129861919Y-79638802D01*
X129861919Y-79638800D01*
X129863343Y-79633487D01*
X129883298Y-79405400D01*
X129863343Y-79177313D01*
X129861920Y-79172002D01*
X129861918Y-79171991D01*
X129846341Y-79113859D01*
X129848030Y-79042883D01*
X129878952Y-78992152D01*
X130095699Y-78775405D01*
X130158011Y-78741379D01*
X130184794Y-78738500D01*
X131114543Y-78738500D01*
X131182664Y-78758502D01*
G37*
%TD.AperFunction*%
%TA.AperFunction,NonConductor*%
G36*
X131134988Y-81425502D02*
G01*
X131181481Y-81479158D01*
X131191585Y-81549432D01*
X131188575Y-81564105D01*
X131142057Y-81737713D01*
X131122102Y-81965800D01*
X131142057Y-82193887D01*
X131143480Y-82199198D01*
X131143481Y-82199202D01*
X131167456Y-82288675D01*
X131201316Y-82415043D01*
X131203639Y-82420025D01*
X131203641Y-82420030D01*
X131240582Y-82499251D01*
X131251243Y-82569442D01*
X131222263Y-82634255D01*
X131162843Y-82673111D01*
X131126387Y-82678500D01*
X129869500Y-82678500D01*
X129801379Y-82658498D01*
X129754886Y-82604842D01*
X129744782Y-82534568D01*
X129755305Y-82499250D01*
X129801761Y-82399625D01*
X129801761Y-82399624D01*
X129804084Y-82394643D01*
X129822047Y-82327607D01*
X129861919Y-82178802D01*
X129861919Y-82178800D01*
X129863343Y-82173487D01*
X129883298Y-81945400D01*
X129863343Y-81717313D01*
X129861920Y-81712002D01*
X129861918Y-81711991D01*
X129846341Y-81653859D01*
X129848030Y-81582883D01*
X129878952Y-81532152D01*
X129968699Y-81442405D01*
X130031011Y-81408379D01*
X130057794Y-81405500D01*
X131066867Y-81405500D01*
X131134988Y-81425502D01*
G37*
%TD.AperFunction*%
%TA.AperFunction,NonConductor*%
G36*
X146466590Y-81204302D02*
G01*
X146513083Y-81257958D01*
X146523187Y-81328232D01*
X146512664Y-81363549D01*
X146441316Y-81516557D01*
X146439894Y-81521865D01*
X146439893Y-81521867D01*
X146383481Y-81732398D01*
X146382057Y-81737713D01*
X146362102Y-81965800D01*
X146382057Y-82193887D01*
X146399060Y-82257341D01*
X146397370Y-82328318D01*
X146366448Y-82379047D01*
X146103900Y-82641595D01*
X146041588Y-82675621D01*
X146014805Y-82678500D01*
X145109500Y-82678500D01*
X145041379Y-82658498D01*
X144994886Y-82604842D01*
X144984782Y-82534568D01*
X144995305Y-82499250D01*
X145041761Y-82399625D01*
X145041761Y-82399624D01*
X145044084Y-82394643D01*
X145062047Y-82327607D01*
X145101919Y-82178802D01*
X145101919Y-82178800D01*
X145103343Y-82173487D01*
X145123298Y-81945400D01*
X145103343Y-81717313D01*
X145101920Y-81712002D01*
X145101918Y-81711991D01*
X145086341Y-81653859D01*
X145088030Y-81582883D01*
X145118952Y-81532152D01*
X145429899Y-81221205D01*
X145492211Y-81187179D01*
X145518994Y-81184300D01*
X146398469Y-81184300D01*
X146466590Y-81204302D01*
G37*
%TD.AperFunction*%
%TA.AperFunction,NonConductor*%
G36*
X148673032Y-82923032D02*
G01*
X148729868Y-82965579D01*
X148754679Y-83032099D01*
X148755000Y-83041088D01*
X148755000Y-83430512D01*
X148734998Y-83498633D01*
X148681342Y-83545126D01*
X148611068Y-83555230D01*
X148546488Y-83525736D01*
X148539905Y-83519607D01*
X148519900Y-83499602D01*
X148515392Y-83496445D01*
X148515389Y-83496443D01*
X148437211Y-83441702D01*
X148332349Y-83368277D01*
X148327367Y-83365954D01*
X148327362Y-83365951D01*
X148293143Y-83349995D01*
X148239858Y-83303078D01*
X148220397Y-83234801D01*
X148240939Y-83166841D01*
X148293143Y-83121605D01*
X148327362Y-83105649D01*
X148327367Y-83105646D01*
X148332349Y-83103323D01*
X148502534Y-82984158D01*
X148515389Y-82975157D01*
X148515392Y-82975155D01*
X148519900Y-82971998D01*
X148539905Y-82951993D01*
X148602217Y-82917967D01*
X148673032Y-82923032D01*
G37*
%TD.AperFunction*%
%TA.AperFunction,NonConductor*%
G36*
X142298211Y-83870169D02*
G01*
X142304794Y-83876298D01*
X142500648Y-84072152D01*
X142534674Y-84134464D01*
X142533259Y-84193859D01*
X142517681Y-84251994D01*
X142517680Y-84252001D01*
X142516257Y-84257313D01*
X142515778Y-84262789D01*
X142515645Y-84263543D01*
X142484119Y-84327156D01*
X142423205Y-84363626D01*
X142352244Y-84361374D01*
X142302464Y-84330760D01*
X142126604Y-84154900D01*
X142092578Y-84092588D01*
X142089699Y-84065805D01*
X142089699Y-83965393D01*
X142109701Y-83897272D01*
X142163357Y-83850779D01*
X142233631Y-83840675D01*
X142298211Y-83870169D01*
G37*
%TD.AperFunction*%
%TA.AperFunction,NonConductor*%
G36*
X146261816Y-83946027D02*
G01*
X146269309Y-83947702D01*
X146277235Y-83947453D01*
X146277236Y-83947453D01*
X146300013Y-83946737D01*
X146302615Y-83946655D01*
X146371331Y-83964507D01*
X146419486Y-84016675D01*
X146431793Y-84086597D01*
X146428281Y-84105204D01*
X146383686Y-84271635D01*
X146382057Y-84277713D01*
X146362102Y-84505800D01*
X146382057Y-84733887D01*
X146399060Y-84797341D01*
X146397370Y-84868318D01*
X146366448Y-84919047D01*
X146230900Y-85054595D01*
X146168588Y-85088621D01*
X146141805Y-85091500D01*
X145166261Y-85091500D01*
X145098140Y-85071498D01*
X145051647Y-85017842D01*
X145041543Y-84947568D01*
X145044554Y-84932889D01*
X145101919Y-84718802D01*
X145101919Y-84718800D01*
X145103343Y-84713487D01*
X145123298Y-84485400D01*
X145103343Y-84257313D01*
X145062292Y-84104110D01*
X145063982Y-84033135D01*
X145103776Y-83974339D01*
X145169040Y-83946391D01*
X145183999Y-83945500D01*
X146250633Y-83945500D01*
X146261816Y-83946027D01*
G37*
%TD.AperFunction*%
%TA.AperFunction,NonConductor*%
G36*
X131134988Y-83965502D02*
G01*
X131181481Y-84019158D01*
X131191585Y-84089432D01*
X131188575Y-84104105D01*
X131142057Y-84277713D01*
X131122102Y-84505800D01*
X131142057Y-84733887D01*
X131143480Y-84739198D01*
X131143481Y-84739202D01*
X131159060Y-84797341D01*
X131201316Y-84955043D01*
X131203639Y-84960024D01*
X131203639Y-84960025D01*
X131272664Y-85108050D01*
X131283325Y-85178242D01*
X131254345Y-85243055D01*
X131194925Y-85281911D01*
X131158469Y-85287300D01*
X129837419Y-85287300D01*
X129769298Y-85267298D01*
X129722805Y-85213642D01*
X129712701Y-85143368D01*
X129723224Y-85108051D01*
X129801759Y-84939630D01*
X129801761Y-84939625D01*
X129804084Y-84934643D01*
X129822047Y-84867607D01*
X129861919Y-84718802D01*
X129861919Y-84718800D01*
X129863343Y-84713487D01*
X129883298Y-84485400D01*
X129863343Y-84257313D01*
X129861920Y-84252001D01*
X129861918Y-84251991D01*
X129846341Y-84193859D01*
X129848030Y-84122883D01*
X129878952Y-84072152D01*
X129968699Y-83982405D01*
X130031011Y-83948379D01*
X130057794Y-83945500D01*
X131066867Y-83945500D01*
X131134988Y-83965502D01*
G37*
%TD.AperFunction*%
%TA.AperFunction,NonConductor*%
G36*
X148673032Y-85463032D02*
G01*
X148729868Y-85505579D01*
X148754679Y-85572099D01*
X148755000Y-85581088D01*
X148755000Y-85970512D01*
X148734998Y-86038633D01*
X148681342Y-86085126D01*
X148611068Y-86095230D01*
X148546488Y-86065736D01*
X148539905Y-86059607D01*
X148519900Y-86039602D01*
X148515392Y-86036445D01*
X148515389Y-86036443D01*
X148430365Y-85976909D01*
X148332349Y-85908277D01*
X148327367Y-85905954D01*
X148327362Y-85905951D01*
X148293143Y-85889995D01*
X148239858Y-85843078D01*
X148220397Y-85774801D01*
X148240939Y-85706841D01*
X148293143Y-85661605D01*
X148327362Y-85645649D01*
X148327367Y-85645646D01*
X148332349Y-85643323D01*
X148502534Y-85524158D01*
X148515389Y-85515157D01*
X148515392Y-85515155D01*
X148519900Y-85511998D01*
X148539905Y-85491993D01*
X148602217Y-85457967D01*
X148673032Y-85463032D01*
G37*
%TD.AperFunction*%
%TA.AperFunction,NonConductor*%
G36*
X146422664Y-86378502D02*
G01*
X146469157Y-86432158D01*
X146479261Y-86502432D01*
X146468738Y-86537750D01*
X146448353Y-86581467D01*
X146441316Y-86596557D01*
X146439894Y-86601865D01*
X146439893Y-86601867D01*
X146404526Y-86733859D01*
X146382057Y-86817713D01*
X146362102Y-87045800D01*
X146382057Y-87273887D01*
X146399060Y-87337341D01*
X146397370Y-87408318D01*
X146366448Y-87459047D01*
X146103900Y-87721595D01*
X146041588Y-87755621D01*
X146014805Y-87758500D01*
X145109500Y-87758500D01*
X145041379Y-87738498D01*
X144994886Y-87684842D01*
X144984782Y-87614568D01*
X144995305Y-87579250D01*
X145041761Y-87479625D01*
X145041761Y-87479624D01*
X145044084Y-87474643D01*
X145062047Y-87407607D01*
X145101919Y-87258802D01*
X145101919Y-87258800D01*
X145103343Y-87253487D01*
X145123298Y-87025400D01*
X145103343Y-86797313D01*
X145101917Y-86791991D01*
X145045507Y-86581467D01*
X145045506Y-86581465D01*
X145044084Y-86576157D01*
X145041759Y-86571170D01*
X145026175Y-86537749D01*
X145015514Y-86467557D01*
X145044495Y-86402745D01*
X145103915Y-86363889D01*
X145140370Y-86358500D01*
X146354543Y-86358500D01*
X146422664Y-86378502D01*
G37*
%TD.AperFunction*%
%TA.AperFunction,NonConductor*%
G36*
X131116553Y-86574302D02*
G01*
X131163046Y-86627958D01*
X131173150Y-86698232D01*
X131170140Y-86712905D01*
X131142057Y-86817713D01*
X131122102Y-87045800D01*
X131142057Y-87273887D01*
X131143480Y-87279198D01*
X131143481Y-87279202D01*
X131159060Y-87337341D01*
X131201316Y-87495043D01*
X131203639Y-87500024D01*
X131203639Y-87500025D01*
X131272664Y-87648050D01*
X131283325Y-87718242D01*
X131254345Y-87783055D01*
X131194925Y-87821911D01*
X131158469Y-87827300D01*
X129837419Y-87827300D01*
X129769298Y-87807298D01*
X129722805Y-87753642D01*
X129712701Y-87683368D01*
X129723224Y-87648051D01*
X129801759Y-87479630D01*
X129801761Y-87479625D01*
X129804084Y-87474643D01*
X129822047Y-87407607D01*
X129861919Y-87258802D01*
X129861919Y-87258800D01*
X129863343Y-87253487D01*
X129883298Y-87025400D01*
X129863343Y-86797313D01*
X129861919Y-86791998D01*
X129861918Y-86791991D01*
X129846341Y-86733859D01*
X129848030Y-86662883D01*
X129878952Y-86612152D01*
X129899899Y-86591205D01*
X129962211Y-86557179D01*
X129988994Y-86554300D01*
X131048432Y-86554300D01*
X131116553Y-86574302D01*
G37*
%TD.AperFunction*%
%TA.AperFunction,NonConductor*%
G36*
X148673032Y-88003032D02*
G01*
X148729868Y-88045579D01*
X148754679Y-88112099D01*
X148755000Y-88121088D01*
X148755000Y-88510512D01*
X148734998Y-88578633D01*
X148681342Y-88625126D01*
X148611068Y-88635230D01*
X148546488Y-88605736D01*
X148539905Y-88599607D01*
X148519900Y-88579602D01*
X148515392Y-88576445D01*
X148515389Y-88576443D01*
X148435630Y-88520595D01*
X148332349Y-88448277D01*
X148327367Y-88445954D01*
X148327362Y-88445951D01*
X148293143Y-88429995D01*
X148239858Y-88383078D01*
X148220397Y-88314801D01*
X148240939Y-88246841D01*
X148293143Y-88201605D01*
X148327362Y-88185649D01*
X148327367Y-88185646D01*
X148332349Y-88183323D01*
X148502534Y-88064158D01*
X148515389Y-88055157D01*
X148515392Y-88055155D01*
X148519900Y-88051998D01*
X148539905Y-88031993D01*
X148602217Y-87997967D01*
X148673032Y-88003032D01*
G37*
%TD.AperFunction*%
%TA.AperFunction,NonConductor*%
G36*
X146261816Y-89026027D02*
G01*
X146269309Y-89027702D01*
X146277235Y-89027453D01*
X146277236Y-89027453D01*
X146300013Y-89026737D01*
X146302615Y-89026655D01*
X146371331Y-89044507D01*
X146419486Y-89096675D01*
X146431793Y-89166597D01*
X146428281Y-89185204D01*
X146388947Y-89332001D01*
X146382057Y-89357713D01*
X146362102Y-89585800D01*
X146382057Y-89813887D01*
X146399060Y-89877341D01*
X146397370Y-89948318D01*
X146366448Y-89999047D01*
X146230900Y-90134595D01*
X146168588Y-90168621D01*
X146141805Y-90171500D01*
X145166261Y-90171500D01*
X145098140Y-90151498D01*
X145051647Y-90097842D01*
X145041543Y-90027568D01*
X145044554Y-90012889D01*
X145101919Y-89798802D01*
X145101919Y-89798800D01*
X145103343Y-89793487D01*
X145123298Y-89565400D01*
X145103343Y-89337313D01*
X145062292Y-89184110D01*
X145063982Y-89113135D01*
X145103776Y-89054339D01*
X145169040Y-89026391D01*
X145183999Y-89025500D01*
X146250633Y-89025500D01*
X146261816Y-89026027D01*
G37*
%TD.AperFunction*%
%TA.AperFunction,NonConductor*%
G36*
X148673032Y-90543032D02*
G01*
X148729868Y-90585579D01*
X148754679Y-90652099D01*
X148755000Y-90661088D01*
X148755000Y-91051219D01*
X148734998Y-91119340D01*
X148681342Y-91165833D01*
X148611068Y-91175937D01*
X148546488Y-91146443D01*
X148539905Y-91140314D01*
X148523475Y-91123884D01*
X148515067Y-91116828D01*
X148336607Y-90991869D01*
X148327111Y-90986386D01*
X148292551Y-90970271D01*
X148239266Y-90923354D01*
X148219805Y-90855077D01*
X148240347Y-90787117D01*
X148292551Y-90741881D01*
X148327362Y-90725649D01*
X148327367Y-90725646D01*
X148332349Y-90723323D01*
X148510259Y-90598749D01*
X148515389Y-90595157D01*
X148515392Y-90595155D01*
X148519900Y-90591998D01*
X148539905Y-90571993D01*
X148602217Y-90537967D01*
X148673032Y-90543032D01*
G37*
%TD.AperFunction*%
%TA.AperFunction,NonConductor*%
G36*
X148673032Y-93082325D02*
G01*
X148729868Y-93124872D01*
X148754679Y-93191392D01*
X148755000Y-93200381D01*
X148755000Y-93590512D01*
X148734998Y-93658633D01*
X148681342Y-93705126D01*
X148611068Y-93715230D01*
X148546488Y-93685736D01*
X148539905Y-93679607D01*
X148519900Y-93659602D01*
X148515392Y-93656445D01*
X148515389Y-93656443D01*
X148428037Y-93595279D01*
X148332349Y-93528277D01*
X148327367Y-93525954D01*
X148327362Y-93525951D01*
X148292551Y-93509719D01*
X148239266Y-93462802D01*
X148219805Y-93394525D01*
X148240347Y-93326565D01*
X148292551Y-93281329D01*
X148327111Y-93265214D01*
X148336607Y-93259731D01*
X148515067Y-93134772D01*
X148523475Y-93127716D01*
X148539905Y-93111286D01*
X148602217Y-93077260D01*
X148673032Y-93082325D01*
G37*
%TD.AperFunction*%
%TA.AperFunction,NonConductor*%
G36*
X142547351Y-93998502D02*
G01*
X142593844Y-94052158D01*
X142603948Y-94122432D01*
X142593425Y-94157749D01*
X142577841Y-94191170D01*
X142575516Y-94196157D01*
X142574094Y-94201465D01*
X142574093Y-94201467D01*
X142570050Y-94216557D01*
X142516257Y-94417313D01*
X142496302Y-94645400D01*
X142516257Y-94873487D01*
X142517680Y-94878798D01*
X142517681Y-94878802D01*
X142549805Y-94998689D01*
X142548115Y-95069665D01*
X142508321Y-95128461D01*
X142443057Y-95156409D01*
X142428098Y-95157300D01*
X139134274Y-95157300D01*
X139066153Y-95137298D01*
X139019660Y-95083642D01*
X139009556Y-95013368D01*
X139017268Y-94986634D01*
X139017027Y-94986556D01*
X139074002Y-94811206D01*
X139076042Y-94804928D01*
X139096004Y-94615000D01*
X139076042Y-94425072D01*
X139017027Y-94243444D01*
X139013723Y-94237721D01*
X138973181Y-94167500D01*
X138956443Y-94098504D01*
X138979664Y-94031413D01*
X139035471Y-93987526D01*
X139082300Y-93978500D01*
X142479230Y-93978500D01*
X142547351Y-93998502D01*
G37*
%TD.AperFunction*%
%TA.AperFunction,NonConductor*%
G36*
X148673032Y-95623032D02*
G01*
X148729868Y-95665579D01*
X148754679Y-95732099D01*
X148755000Y-95741088D01*
X148755000Y-96130512D01*
X148734998Y-96198633D01*
X148681342Y-96245126D01*
X148611068Y-96255230D01*
X148546488Y-96225736D01*
X148539905Y-96219607D01*
X148519900Y-96199602D01*
X148515392Y-96196445D01*
X148515389Y-96196443D01*
X148437211Y-96141702D01*
X148332349Y-96068277D01*
X148327367Y-96065954D01*
X148327362Y-96065951D01*
X148293143Y-96049995D01*
X148239858Y-96003078D01*
X148220397Y-95934801D01*
X148240939Y-95866841D01*
X148293143Y-95821605D01*
X148327362Y-95805649D01*
X148327367Y-95805646D01*
X148332349Y-95803323D01*
X148502534Y-95684158D01*
X148515389Y-95675157D01*
X148515392Y-95675155D01*
X148519900Y-95671998D01*
X148539905Y-95651993D01*
X148602217Y-95617967D01*
X148673032Y-95623032D01*
G37*
%TD.AperFunction*%
%TA.AperFunction,NonConductor*%
G36*
X131226590Y-96444302D02*
G01*
X131273083Y-96497958D01*
X131283187Y-96568232D01*
X131272664Y-96603550D01*
X131208353Y-96741467D01*
X131201316Y-96756557D01*
X131199894Y-96761865D01*
X131199893Y-96761867D01*
X131148947Y-96951998D01*
X131142057Y-96977713D01*
X131122102Y-97205800D01*
X131142057Y-97433887D01*
X131143481Y-97439200D01*
X131143481Y-97439202D01*
X131174833Y-97556206D01*
X131201316Y-97655043D01*
X131263191Y-97787734D01*
X131272664Y-97808050D01*
X131283325Y-97878242D01*
X131254345Y-97943055D01*
X131194925Y-97981911D01*
X131158469Y-97987300D01*
X130319794Y-97987300D01*
X130251673Y-97967298D01*
X130230699Y-97950395D01*
X129878952Y-97598648D01*
X129844926Y-97536336D01*
X129846341Y-97476941D01*
X129861918Y-97418809D01*
X129861920Y-97418798D01*
X129863343Y-97413487D01*
X129883298Y-97185400D01*
X129863343Y-96957313D01*
X129804084Y-96736157D01*
X129801759Y-96731170D01*
X129742249Y-96603549D01*
X129731588Y-96533358D01*
X129760568Y-96468545D01*
X129819988Y-96429689D01*
X129856444Y-96424300D01*
X131158469Y-96424300D01*
X131226590Y-96444302D01*
G37*
%TD.AperFunction*%
%TA.AperFunction,NonConductor*%
G36*
X142440820Y-97046502D02*
G01*
X142487313Y-97100158D01*
X142498219Y-97163484D01*
X142496781Y-97179917D01*
X142496781Y-97179925D01*
X142496302Y-97185400D01*
X142496781Y-97190875D01*
X142513383Y-97380637D01*
X142499394Y-97450242D01*
X142449994Y-97501235D01*
X142402371Y-97516500D01*
X142398513Y-97516500D01*
X142211712Y-97556206D01*
X142205682Y-97558891D01*
X142205681Y-97558891D01*
X142043278Y-97631197D01*
X142043276Y-97631198D01*
X142037248Y-97633882D01*
X141882747Y-97746134D01*
X141878326Y-97751044D01*
X141878325Y-97751045D01*
X141763797Y-97878242D01*
X141754960Y-97888056D01*
X141740188Y-97913642D01*
X141734034Y-97924301D01*
X141682650Y-97973294D01*
X141624915Y-97987300D01*
X139213455Y-97987300D01*
X139145334Y-97967298D01*
X139098841Y-97913642D01*
X139088145Y-97848129D01*
X139093113Y-97800863D01*
X139093803Y-97794299D01*
X139088333Y-97742251D01*
X139074531Y-97610934D01*
X139074531Y-97610932D01*
X139073841Y-97604371D01*
X139014826Y-97422743D01*
X139007758Y-97410500D01*
X138922640Y-97263073D01*
X138919339Y-97257355D01*
X138900839Y-97236808D01*
X138870123Y-97172804D01*
X138878886Y-97102350D01*
X138924349Y-97047819D01*
X138994476Y-97026500D01*
X142372699Y-97026500D01*
X142440820Y-97046502D01*
G37*
%TD.AperFunction*%
%TA.AperFunction,NonConductor*%
G36*
X148673032Y-98163032D02*
G01*
X148729868Y-98205579D01*
X148754679Y-98272099D01*
X148755000Y-98281088D01*
X148755000Y-98670512D01*
X148734998Y-98738633D01*
X148681342Y-98785126D01*
X148611068Y-98795230D01*
X148546488Y-98765736D01*
X148539905Y-98759607D01*
X148519900Y-98739602D01*
X148515392Y-98736445D01*
X148515389Y-98736443D01*
X148437211Y-98681702D01*
X148332349Y-98608277D01*
X148327367Y-98605954D01*
X148327362Y-98605951D01*
X148293143Y-98589995D01*
X148239858Y-98543078D01*
X148220397Y-98474801D01*
X148240939Y-98406841D01*
X148293143Y-98361605D01*
X148327362Y-98345649D01*
X148327367Y-98345646D01*
X148332349Y-98343323D01*
X148502534Y-98224158D01*
X148515389Y-98215157D01*
X148515392Y-98215155D01*
X148519900Y-98211998D01*
X148539905Y-98191993D01*
X148602217Y-98157967D01*
X148673032Y-98163032D01*
G37*
%TD.AperFunction*%
%TA.AperFunction,NonConductor*%
G36*
X146014127Y-96444302D02*
G01*
X146035101Y-96461205D01*
X146366448Y-96792552D01*
X146400474Y-96854864D01*
X146399059Y-96914259D01*
X146383482Y-96972391D01*
X146383481Y-96972398D01*
X146382057Y-96977713D01*
X146362102Y-97205800D01*
X146382057Y-97433887D01*
X146383481Y-97439200D01*
X146383481Y-97439202D01*
X146414833Y-97556206D01*
X146441316Y-97655043D01*
X146443639Y-97660024D01*
X146443639Y-97660025D01*
X146535751Y-97857562D01*
X146535754Y-97857567D01*
X146538077Y-97862549D01*
X146594448Y-97943055D01*
X146655118Y-98029700D01*
X146669402Y-98050100D01*
X146831300Y-98211998D01*
X146835808Y-98215155D01*
X146835811Y-98215157D01*
X146848666Y-98224158D01*
X147018851Y-98343323D01*
X147023833Y-98345646D01*
X147023838Y-98345649D01*
X147058057Y-98361605D01*
X147111342Y-98408522D01*
X147130803Y-98476799D01*
X147110261Y-98544759D01*
X147058057Y-98589995D01*
X147023838Y-98605951D01*
X147023833Y-98605954D01*
X147018851Y-98608277D01*
X146913989Y-98681702D01*
X146835811Y-98736443D01*
X146835808Y-98736445D01*
X146831300Y-98739602D01*
X146669402Y-98901500D01*
X146538077Y-99089051D01*
X146535754Y-99094033D01*
X146535751Y-99094038D01*
X146446261Y-99285953D01*
X146441316Y-99296557D01*
X146439894Y-99301865D01*
X146439893Y-99301867D01*
X146383481Y-99512398D01*
X146382057Y-99517713D01*
X146362102Y-99745800D01*
X146382057Y-99973887D01*
X146383481Y-99979200D01*
X146383481Y-99979202D01*
X146426205Y-100138647D01*
X146441316Y-100195043D01*
X146443639Y-100200025D01*
X146443641Y-100200030D01*
X146480582Y-100279251D01*
X146491243Y-100349442D01*
X146462263Y-100414255D01*
X146402843Y-100453111D01*
X146366387Y-100458500D01*
X145109500Y-100458500D01*
X145041379Y-100438498D01*
X144994886Y-100384842D01*
X144984782Y-100314568D01*
X144995305Y-100279250D01*
X145041761Y-100179625D01*
X145041761Y-100179624D01*
X145044084Y-100174643D01*
X145053348Y-100140072D01*
X145101919Y-99958802D01*
X145101920Y-99958798D01*
X145103343Y-99953487D01*
X145123298Y-99725400D01*
X145103343Y-99497313D01*
X145072311Y-99381500D01*
X145045507Y-99281467D01*
X145045506Y-99281465D01*
X145044084Y-99276157D01*
X145016037Y-99216009D01*
X144949649Y-99073638D01*
X144949646Y-99073633D01*
X144947323Y-99068651D01*
X144833441Y-98906011D01*
X144819157Y-98885611D01*
X144819155Y-98885608D01*
X144815998Y-98881100D01*
X144654100Y-98719202D01*
X144649592Y-98716045D01*
X144649589Y-98716043D01*
X144571411Y-98661302D01*
X144466549Y-98587877D01*
X144461567Y-98585554D01*
X144461562Y-98585551D01*
X144427343Y-98569595D01*
X144374058Y-98522678D01*
X144354597Y-98454401D01*
X144375139Y-98386441D01*
X144427343Y-98341205D01*
X144461562Y-98325249D01*
X144461567Y-98325246D01*
X144466549Y-98322923D01*
X144607600Y-98224158D01*
X144649589Y-98194757D01*
X144649592Y-98194755D01*
X144654100Y-98191598D01*
X144815998Y-98029700D01*
X144859693Y-97967298D01*
X144929882Y-97867057D01*
X144947323Y-97842149D01*
X144949646Y-97837167D01*
X144949649Y-97837162D01*
X145041761Y-97639625D01*
X145041761Y-97639624D01*
X145044084Y-97634643D01*
X145052196Y-97604371D01*
X145101919Y-97418802D01*
X145101919Y-97418800D01*
X145103343Y-97413487D01*
X145123298Y-97185400D01*
X145103343Y-96957313D01*
X145044084Y-96736157D01*
X145041759Y-96731170D01*
X144982249Y-96603549D01*
X144971588Y-96533358D01*
X145000568Y-96468545D01*
X145059988Y-96429689D01*
X145096444Y-96424300D01*
X145946006Y-96424300D01*
X146014127Y-96444302D01*
G37*
%TD.AperFunction*%
%TA.AperFunction,NonConductor*%
G36*
X131116553Y-99274302D02*
G01*
X131163046Y-99327958D01*
X131173150Y-99398232D01*
X131170140Y-99412905D01*
X131142057Y-99517713D01*
X131122102Y-99745800D01*
X131142057Y-99973887D01*
X131143481Y-99979200D01*
X131143481Y-99979202D01*
X131186205Y-100138647D01*
X131201316Y-100195043D01*
X131203639Y-100200025D01*
X131203641Y-100200030D01*
X131240582Y-100279251D01*
X131251243Y-100349442D01*
X131222263Y-100414255D01*
X131162843Y-100453111D01*
X131126387Y-100458500D01*
X130250995Y-100458500D01*
X130182874Y-100438498D01*
X130161900Y-100421595D01*
X129878952Y-100138647D01*
X129844926Y-100076335D01*
X129846340Y-100016941D01*
X129863343Y-99953487D01*
X129883298Y-99725400D01*
X129863343Y-99497313D01*
X129861919Y-99491998D01*
X129861918Y-99491991D01*
X129841482Y-99415726D01*
X129843171Y-99344749D01*
X129882964Y-99285953D01*
X129948229Y-99258005D01*
X129969362Y-99258406D01*
X129969389Y-99257531D01*
X129977314Y-99257780D01*
X129985143Y-99259020D01*
X129993035Y-99258274D01*
X130029161Y-99254859D01*
X130041019Y-99254300D01*
X131048432Y-99254300D01*
X131116553Y-99274302D01*
G37*
%TD.AperFunction*%
%TA.AperFunction,NonConductor*%
G36*
X140852136Y-99274302D02*
G01*
X140898629Y-99327958D01*
X140908733Y-99398232D01*
X140903848Y-99419236D01*
X140875958Y-99505072D01*
X140875268Y-99511633D01*
X140875268Y-99511635D01*
X140861015Y-99647251D01*
X140855996Y-99695000D01*
X140875958Y-99884928D01*
X140934973Y-100066556D01*
X141030460Y-100231944D01*
X141045089Y-100248191D01*
X141075805Y-100312197D01*
X141067041Y-100382651D01*
X141021579Y-100437182D01*
X140951452Y-100458500D01*
X139431314Y-100458500D01*
X139363193Y-100438498D01*
X139316700Y-100384842D01*
X139305602Y-100333824D01*
X139306004Y-100330000D01*
X139300670Y-100279250D01*
X139286732Y-100146635D01*
X139286732Y-100146633D01*
X139286042Y-100140072D01*
X139227027Y-99958444D01*
X139131540Y-99793056D01*
X139003753Y-99651134D01*
X138849252Y-99538882D01*
X138843224Y-99536198D01*
X138843222Y-99536197D01*
X138751605Y-99495407D01*
X138697510Y-99449427D01*
X138676860Y-99381500D01*
X138696212Y-99313192D01*
X138749423Y-99266190D01*
X138802854Y-99254300D01*
X140784015Y-99254300D01*
X140852136Y-99274302D01*
G37*
%TD.AperFunction*%
%TA.AperFunction,NonConductor*%
G36*
X148673032Y-100703032D02*
G01*
X148729868Y-100745579D01*
X148754679Y-100812099D01*
X148755000Y-100821088D01*
X148755000Y-101210512D01*
X148734998Y-101278633D01*
X148681342Y-101325126D01*
X148611068Y-101335230D01*
X148546488Y-101305736D01*
X148539905Y-101299607D01*
X148519900Y-101279602D01*
X148515392Y-101276445D01*
X148515389Y-101276443D01*
X148437211Y-101221702D01*
X148332349Y-101148277D01*
X148327367Y-101145954D01*
X148327362Y-101145951D01*
X148293143Y-101129995D01*
X148239858Y-101083078D01*
X148220397Y-101014801D01*
X148240939Y-100946841D01*
X148293143Y-100901605D01*
X148327362Y-100885649D01*
X148327367Y-100885646D01*
X148332349Y-100883323D01*
X148502534Y-100764158D01*
X148515389Y-100755157D01*
X148515392Y-100755155D01*
X148519900Y-100751998D01*
X148539905Y-100731993D01*
X148602217Y-100697967D01*
X148673032Y-100703032D01*
G37*
%TD.AperFunction*%
%TA.AperFunction,NonConductor*%
G36*
X131134988Y-101745502D02*
G01*
X131181481Y-101799158D01*
X131191585Y-101869432D01*
X131188575Y-101884105D01*
X131142057Y-102057713D01*
X131122102Y-102285800D01*
X131142057Y-102513887D01*
X131193685Y-102706563D01*
X131195380Y-102712888D01*
X131193690Y-102783865D01*
X131153896Y-102842661D01*
X131088632Y-102870609D01*
X131073673Y-102871500D01*
X130123994Y-102871500D01*
X130055873Y-102851498D01*
X130034899Y-102834595D01*
X129878952Y-102678648D01*
X129844926Y-102616336D01*
X129846341Y-102556941D01*
X129861918Y-102498809D01*
X129861920Y-102498798D01*
X129863343Y-102493487D01*
X129883298Y-102265400D01*
X129863343Y-102037313D01*
X129861920Y-102032001D01*
X129861918Y-102031991D01*
X129822990Y-101886714D01*
X129824679Y-101815737D01*
X129864473Y-101756941D01*
X129932837Y-101728661D01*
X129947433Y-101727281D01*
X129960363Y-101726059D01*
X129972219Y-101725500D01*
X131066867Y-101725500D01*
X131134988Y-101745502D01*
G37*
%TD.AperFunction*%
%TA.AperFunction,NonConductor*%
G36*
X140340321Y-101745502D02*
G01*
X140386814Y-101799158D01*
X140396918Y-101869432D01*
X140381319Y-101914500D01*
X140337473Y-101990444D01*
X140278458Y-102172072D01*
X140277768Y-102178633D01*
X140277768Y-102178635D01*
X140267080Y-102280325D01*
X140258496Y-102362000D01*
X140278458Y-102551928D01*
X140328703Y-102706565D01*
X140330731Y-102777531D01*
X140294068Y-102838329D01*
X140230356Y-102869654D01*
X140208870Y-102871500D01*
X138182800Y-102871500D01*
X138114679Y-102851498D01*
X138068186Y-102797842D01*
X138058082Y-102727568D01*
X138073681Y-102682500D01*
X138114223Y-102612279D01*
X138114224Y-102612278D01*
X138117527Y-102606556D01*
X138176542Y-102424928D01*
X138196504Y-102235000D01*
X138178447Y-102063193D01*
X138177232Y-102051635D01*
X138177232Y-102051633D01*
X138176542Y-102045072D01*
X138126297Y-101890435D01*
X138124269Y-101819469D01*
X138160932Y-101758671D01*
X138224644Y-101727346D01*
X138246130Y-101725500D01*
X140272200Y-101725500D01*
X140340321Y-101745502D01*
G37*
%TD.AperFunction*%
%TA.AperFunction,NonConductor*%
G36*
X148673032Y-103243032D02*
G01*
X148729868Y-103285579D01*
X148754679Y-103352099D01*
X148755000Y-103361088D01*
X148755000Y-103750512D01*
X148734998Y-103818633D01*
X148681342Y-103865126D01*
X148611068Y-103875230D01*
X148546488Y-103845736D01*
X148539905Y-103839607D01*
X148519900Y-103819602D01*
X148515392Y-103816445D01*
X148515389Y-103816443D01*
X148437211Y-103761702D01*
X148332349Y-103688277D01*
X148327367Y-103685954D01*
X148327362Y-103685951D01*
X148293143Y-103669995D01*
X148239858Y-103623078D01*
X148220397Y-103554801D01*
X148240939Y-103486841D01*
X148293143Y-103441605D01*
X148327362Y-103425649D01*
X148327367Y-103425646D01*
X148332349Y-103423323D01*
X148502534Y-103304158D01*
X148515389Y-103295157D01*
X148515392Y-103295155D01*
X148519900Y-103291998D01*
X148539905Y-103271993D01*
X148602217Y-103237967D01*
X148673032Y-103243032D01*
G37*
%TD.AperFunction*%
%TA.AperFunction,NonConductor*%
G36*
X146235327Y-101745502D02*
G01*
X146256301Y-101762405D01*
X146366448Y-101872552D01*
X146400474Y-101934864D01*
X146399059Y-101994259D01*
X146383482Y-102052391D01*
X146383480Y-102052401D01*
X146382057Y-102057713D01*
X146362102Y-102285800D01*
X146382057Y-102513887D01*
X146383480Y-102519199D01*
X146383481Y-102519202D01*
X146435380Y-102712888D01*
X146441316Y-102735043D01*
X146443639Y-102740024D01*
X146443639Y-102740025D01*
X146535751Y-102937562D01*
X146535754Y-102937567D01*
X146538077Y-102942549D01*
X146541234Y-102947057D01*
X146655118Y-103109700D01*
X146669402Y-103130100D01*
X146831300Y-103291998D01*
X146835808Y-103295155D01*
X146835811Y-103295157D01*
X146848666Y-103304158D01*
X147018851Y-103423323D01*
X147023833Y-103425646D01*
X147023838Y-103425649D01*
X147058057Y-103441605D01*
X147111342Y-103488522D01*
X147130803Y-103556799D01*
X147110261Y-103624759D01*
X147058057Y-103669995D01*
X147023838Y-103685951D01*
X147023833Y-103685954D01*
X147018851Y-103688277D01*
X146913989Y-103761702D01*
X146835811Y-103816443D01*
X146835808Y-103816445D01*
X146831300Y-103819602D01*
X146669402Y-103981500D01*
X146538077Y-104169051D01*
X146535754Y-104174033D01*
X146535751Y-104174038D01*
X146443639Y-104371575D01*
X146441316Y-104376557D01*
X146382057Y-104597713D01*
X146362102Y-104825800D01*
X146382057Y-105053887D01*
X146383481Y-105059200D01*
X146383481Y-105059202D01*
X146394324Y-105099666D01*
X146441316Y-105275043D01*
X146443639Y-105280025D01*
X146443641Y-105280030D01*
X146480582Y-105359251D01*
X146491243Y-105429442D01*
X146462263Y-105494255D01*
X146402843Y-105533111D01*
X146366387Y-105538500D01*
X145109500Y-105538500D01*
X145041379Y-105518498D01*
X144994886Y-105464842D01*
X144984782Y-105394568D01*
X144995305Y-105359250D01*
X145041761Y-105259625D01*
X145041761Y-105259624D01*
X145044084Y-105254643D01*
X145068757Y-105162565D01*
X145101919Y-105038802D01*
X145101919Y-105038800D01*
X145103343Y-105033487D01*
X145123298Y-104805400D01*
X145103343Y-104577313D01*
X145044084Y-104356157D01*
X145009706Y-104282432D01*
X144949649Y-104153638D01*
X144949646Y-104153633D01*
X144947323Y-104148651D01*
X144833441Y-103986011D01*
X144819157Y-103965611D01*
X144819155Y-103965608D01*
X144815998Y-103961100D01*
X144654100Y-103799202D01*
X144649592Y-103796045D01*
X144649589Y-103796043D01*
X144571411Y-103741302D01*
X144466549Y-103667877D01*
X144461567Y-103665554D01*
X144461562Y-103665551D01*
X144427343Y-103649595D01*
X144374058Y-103602678D01*
X144354597Y-103534401D01*
X144375139Y-103466441D01*
X144427343Y-103421205D01*
X144461562Y-103405249D01*
X144461567Y-103405246D01*
X144466549Y-103402923D01*
X144607600Y-103304158D01*
X144649589Y-103274757D01*
X144649592Y-103274755D01*
X144654100Y-103271598D01*
X144815998Y-103109700D01*
X144947323Y-102922149D01*
X144949646Y-102917167D01*
X144949649Y-102917162D01*
X145041761Y-102719625D01*
X145041761Y-102719624D01*
X145044084Y-102714643D01*
X145070426Y-102616336D01*
X145101919Y-102498802D01*
X145101919Y-102498800D01*
X145103343Y-102493487D01*
X145123298Y-102265400D01*
X145103343Y-102037313D01*
X145062292Y-101884110D01*
X145063982Y-101813135D01*
X145103776Y-101754339D01*
X145169040Y-101726391D01*
X145183999Y-101725500D01*
X146167206Y-101725500D01*
X146235327Y-101745502D01*
G37*
%TD.AperFunction*%
%TA.AperFunction,NonConductor*%
G36*
X148673032Y-105783032D02*
G01*
X148729868Y-105825579D01*
X148754679Y-105892099D01*
X148755000Y-105901088D01*
X148755000Y-106290512D01*
X148734998Y-106358633D01*
X148681342Y-106405126D01*
X148611068Y-106415230D01*
X148546488Y-106385736D01*
X148539905Y-106379607D01*
X148519900Y-106359602D01*
X148515392Y-106356445D01*
X148515389Y-106356443D01*
X148437211Y-106301702D01*
X148332349Y-106228277D01*
X148327367Y-106225954D01*
X148327362Y-106225951D01*
X148293143Y-106209995D01*
X148239858Y-106163078D01*
X148220397Y-106094801D01*
X148240939Y-106026841D01*
X148293143Y-105981605D01*
X148327362Y-105965649D01*
X148327367Y-105965646D01*
X148332349Y-105963323D01*
X148502534Y-105844158D01*
X148515389Y-105835157D01*
X148515392Y-105835155D01*
X148519900Y-105831998D01*
X148539905Y-105811993D01*
X148602217Y-105777967D01*
X148673032Y-105783032D01*
G37*
%TD.AperFunction*%
%TA.AperFunction,NonConductor*%
G36*
X139740102Y-104920502D02*
G01*
X139746034Y-104924559D01*
X139878248Y-105020618D01*
X139884276Y-105023302D01*
X139884278Y-105023303D01*
X140046681Y-105095609D01*
X140052712Y-105098294D01*
X140145708Y-105118061D01*
X140208181Y-105151790D01*
X140239344Y-105202372D01*
X140262473Y-105273556D01*
X140357960Y-105438944D01*
X140362378Y-105443851D01*
X140362379Y-105443852D01*
X140451948Y-105543328D01*
X140485747Y-105580866D01*
X140584843Y-105652864D01*
X140608567Y-105670100D01*
X140640248Y-105693118D01*
X140646276Y-105695802D01*
X140646278Y-105695803D01*
X140808681Y-105768109D01*
X140814712Y-105770794D01*
X140821167Y-105772166D01*
X140821176Y-105772169D01*
X140918132Y-105792778D01*
X140980605Y-105826506D01*
X141014926Y-105888656D01*
X141011767Y-105954961D01*
X141002958Y-105982072D01*
X141002268Y-105988635D01*
X141002267Y-105988642D01*
X140993254Y-106074401D01*
X140982996Y-106172000D01*
X141002958Y-106361928D01*
X141004998Y-106368206D01*
X141061973Y-106543556D01*
X141060044Y-106544183D01*
X141068197Y-106605028D01*
X141038085Y-106669323D01*
X140977993Y-106707131D01*
X140943657Y-106711900D01*
X138620843Y-106711900D01*
X138552722Y-106691898D01*
X138506229Y-106638242D01*
X138496125Y-106567968D01*
X138503112Y-106543746D01*
X138502527Y-106543556D01*
X138559502Y-106368206D01*
X138561542Y-106361928D01*
X138581504Y-106172000D01*
X138566424Y-106028522D01*
X138562232Y-105988635D01*
X138562232Y-105988633D01*
X138561542Y-105982072D01*
X138502527Y-105800444D01*
X138486203Y-105772169D01*
X138438321Y-105689237D01*
X138407040Y-105635056D01*
X138361744Y-105584749D01*
X138283675Y-105498045D01*
X138283674Y-105498044D01*
X138279253Y-105493134D01*
X138227841Y-105455781D01*
X138184489Y-105399559D01*
X138176594Y-105340676D01*
X138195314Y-105162565D01*
X138196004Y-105156000D01*
X138183777Y-105039669D01*
X138196549Y-104969832D01*
X138245051Y-104917986D01*
X138309087Y-104900500D01*
X139671981Y-104900500D01*
X139740102Y-104920502D01*
G37*
%TD.AperFunction*%
%TA.AperFunction,NonConductor*%
G36*
X131182664Y-104158502D02*
G01*
X131229157Y-104212158D01*
X131239261Y-104282432D01*
X131228738Y-104317750D01*
X131208353Y-104361467D01*
X131201316Y-104376557D01*
X131142057Y-104597713D01*
X131122102Y-104825800D01*
X131142057Y-105053887D01*
X131143481Y-105059200D01*
X131143481Y-105059202D01*
X131154324Y-105099666D01*
X131201316Y-105275043D01*
X131203639Y-105280024D01*
X131203639Y-105280025D01*
X131295751Y-105477562D01*
X131295754Y-105477567D01*
X131298077Y-105482549D01*
X131340635Y-105543328D01*
X131415118Y-105649700D01*
X131429402Y-105670100D01*
X131591300Y-105831998D01*
X131595808Y-105835155D01*
X131595811Y-105835157D01*
X131608666Y-105844158D01*
X131778851Y-105963323D01*
X131783833Y-105965646D01*
X131783838Y-105965649D01*
X131818057Y-105981605D01*
X131871342Y-106028522D01*
X131890803Y-106096799D01*
X131870261Y-106164759D01*
X131818057Y-106209995D01*
X131783838Y-106225951D01*
X131783833Y-106225954D01*
X131778851Y-106228277D01*
X131673989Y-106301702D01*
X131595811Y-106356443D01*
X131595808Y-106356445D01*
X131591300Y-106359602D01*
X131429402Y-106521500D01*
X131426245Y-106526008D01*
X131426243Y-106526011D01*
X131333704Y-106658171D01*
X131278247Y-106702499D01*
X131230491Y-106711900D01*
X129789194Y-106711900D01*
X129721073Y-106691898D01*
X129685981Y-106658171D01*
X129579157Y-106505611D01*
X129579155Y-106505608D01*
X129575998Y-106501100D01*
X129414100Y-106339202D01*
X129409592Y-106336045D01*
X129409589Y-106336043D01*
X129331411Y-106281302D01*
X129226549Y-106207877D01*
X129221567Y-106205554D01*
X129221562Y-106205551D01*
X129187343Y-106189595D01*
X129134058Y-106142678D01*
X129114597Y-106074401D01*
X129135139Y-106006441D01*
X129187343Y-105961205D01*
X129221562Y-105945249D01*
X129221567Y-105945246D01*
X129226549Y-105942923D01*
X129367600Y-105844158D01*
X129409589Y-105814757D01*
X129409592Y-105814755D01*
X129414100Y-105811598D01*
X129575998Y-105649700D01*
X129589689Y-105630148D01*
X129689882Y-105487057D01*
X129707323Y-105462149D01*
X129709646Y-105457167D01*
X129709649Y-105457162D01*
X129801761Y-105259625D01*
X129801761Y-105259624D01*
X129804084Y-105254643D01*
X129828757Y-105162565D01*
X129861919Y-105038802D01*
X129861919Y-105038800D01*
X129863343Y-105033487D01*
X129883298Y-104805400D01*
X129863343Y-104577313D01*
X129804084Y-104356157D01*
X129786175Y-104317750D01*
X129786175Y-104317749D01*
X129775514Y-104247557D01*
X129804495Y-104182745D01*
X129863915Y-104143889D01*
X129900370Y-104138500D01*
X131114543Y-104138500D01*
X131182664Y-104158502D01*
G37*
%TD.AperFunction*%
%TA.AperFunction,NonConductor*%
G36*
X135359917Y-104920502D02*
G01*
X135406410Y-104974158D01*
X135416514Y-105044432D01*
X135387020Y-105109012D01*
X135380891Y-105115595D01*
X133767327Y-106729159D01*
X133705015Y-106763185D01*
X133634200Y-106758120D01*
X133577364Y-106715573D01*
X133573270Y-106709366D01*
X133573123Y-106709051D01*
X133500285Y-106605028D01*
X133444957Y-106526011D01*
X133444955Y-106526008D01*
X133441798Y-106521500D01*
X133279900Y-106359602D01*
X133275392Y-106356445D01*
X133275389Y-106356443D01*
X133197211Y-106301702D01*
X133092349Y-106228277D01*
X133087367Y-106225954D01*
X133087362Y-106225951D01*
X133053143Y-106209995D01*
X132999858Y-106163078D01*
X132980397Y-106094801D01*
X133000939Y-106026841D01*
X133053143Y-105981605D01*
X133087362Y-105965649D01*
X133087367Y-105965646D01*
X133092349Y-105963323D01*
X133262534Y-105844158D01*
X133275389Y-105835157D01*
X133275392Y-105835155D01*
X133279900Y-105831998D01*
X133441798Y-105670100D01*
X133456083Y-105649700D01*
X133530565Y-105543328D01*
X133573123Y-105482549D01*
X133575446Y-105477567D01*
X133575449Y-105477562D01*
X133667561Y-105280025D01*
X133667561Y-105280024D01*
X133669884Y-105275043D01*
X133716877Y-105099666D01*
X133727719Y-105059202D01*
X133727719Y-105059200D01*
X133729143Y-105053887D01*
X133729624Y-105048395D01*
X133732501Y-105015518D01*
X133758364Y-104949400D01*
X133815868Y-104907760D01*
X133858021Y-104900500D01*
X135291796Y-104900500D01*
X135359917Y-104920502D01*
G37*
%TD.AperFunction*%
%TA.AperFunction,NonConductor*%
G36*
X146235327Y-106825502D02*
G01*
X146256301Y-106842405D01*
X146366448Y-106952552D01*
X146400474Y-107014864D01*
X146399059Y-107074259D01*
X146383482Y-107132391D01*
X146383480Y-107132402D01*
X146382057Y-107137713D01*
X146362102Y-107365800D01*
X146382057Y-107593887D01*
X146383481Y-107599200D01*
X146383481Y-107599202D01*
X146424522Y-107752366D01*
X146441316Y-107815043D01*
X146443639Y-107820025D01*
X146443641Y-107820030D01*
X146480582Y-107899251D01*
X146491243Y-107969442D01*
X146462263Y-108034255D01*
X146402843Y-108073111D01*
X146366387Y-108078500D01*
X145109500Y-108078500D01*
X145041379Y-108058498D01*
X144994886Y-108004842D01*
X144984782Y-107934568D01*
X144995305Y-107899250D01*
X145041761Y-107799625D01*
X145041761Y-107799624D01*
X145044084Y-107794643D01*
X145103343Y-107573487D01*
X145123298Y-107345400D01*
X145103343Y-107117313D01*
X145062292Y-106964110D01*
X145063982Y-106893135D01*
X145103776Y-106834339D01*
X145169040Y-106806391D01*
X145183999Y-106805500D01*
X146167206Y-106805500D01*
X146235327Y-106825502D01*
G37*
%TD.AperFunction*%
%TA.AperFunction,NonConductor*%
G36*
X148673032Y-108323032D02*
G01*
X148729868Y-108365579D01*
X148754679Y-108432099D01*
X148755000Y-108441088D01*
X148755000Y-108830512D01*
X148734998Y-108898633D01*
X148681342Y-108945126D01*
X148611068Y-108955230D01*
X148546488Y-108925736D01*
X148539905Y-108919607D01*
X148519900Y-108899602D01*
X148515392Y-108896445D01*
X148515389Y-108896443D01*
X148437211Y-108841702D01*
X148332349Y-108768277D01*
X148327367Y-108765954D01*
X148327362Y-108765951D01*
X148293143Y-108749995D01*
X148239858Y-108703078D01*
X148220397Y-108634801D01*
X148240939Y-108566841D01*
X148293143Y-108521605D01*
X148327362Y-108505649D01*
X148327367Y-108505646D01*
X148332349Y-108503323D01*
X148502534Y-108384158D01*
X148515389Y-108375157D01*
X148515392Y-108375155D01*
X148519900Y-108371998D01*
X148539905Y-108351993D01*
X148602217Y-108317967D01*
X148673032Y-108323032D01*
G37*
%TD.AperFunction*%
%TA.AperFunction,NonConductor*%
G36*
X135793076Y-107548394D02*
G01*
X135849912Y-107590941D01*
X135874354Y-107653279D01*
X135885458Y-107758928D01*
X135944473Y-107940556D01*
X135947776Y-107946278D01*
X135947777Y-107946279D01*
X136023538Y-108077500D01*
X136040276Y-108146495D01*
X136023538Y-108203499D01*
X135944473Y-108340444D01*
X135885458Y-108522072D01*
X135884768Y-108528633D01*
X135884768Y-108528635D01*
X135879403Y-108579684D01*
X135865496Y-108712000D01*
X135866186Y-108718565D01*
X135877123Y-108822625D01*
X135864351Y-108892463D01*
X135815849Y-108944310D01*
X135778013Y-108959041D01*
X135650212Y-108986206D01*
X135644182Y-108988891D01*
X135644181Y-108988891D01*
X135481778Y-109061197D01*
X135481776Y-109061198D01*
X135475748Y-109063882D01*
X135321247Y-109176134D01*
X135193460Y-109318056D01*
X135097973Y-109483444D01*
X135038958Y-109665072D01*
X135038268Y-109671633D01*
X135038268Y-109671635D01*
X135037053Y-109683193D01*
X135018996Y-109855000D01*
X135038958Y-110044928D01*
X135040998Y-110051206D01*
X135097973Y-110226556D01*
X135096757Y-110226951D01*
X135105267Y-110290416D01*
X135075162Y-110354714D01*
X135015074Y-110392528D01*
X134980726Y-110397300D01*
X133822768Y-110397300D01*
X133754647Y-110377298D01*
X133708154Y-110323642D01*
X133698050Y-110253368D01*
X133701061Y-110238688D01*
X133704312Y-110226556D01*
X133729143Y-110133887D01*
X133749098Y-109905800D01*
X133729143Y-109677713D01*
X133727720Y-109672401D01*
X133727718Y-109672391D01*
X133712141Y-109614259D01*
X133713830Y-109543283D01*
X133744752Y-109492552D01*
X135659949Y-107577355D01*
X135722261Y-107543329D01*
X135793076Y-107548394D01*
G37*
%TD.AperFunction*%
%TA.AperFunction,NonConductor*%
G36*
X131134988Y-109365502D02*
G01*
X131181481Y-109419158D01*
X131191585Y-109489432D01*
X131188575Y-109504105D01*
X131142057Y-109677713D01*
X131122102Y-109905800D01*
X131142057Y-110133887D01*
X131166888Y-110226556D01*
X131170139Y-110238688D01*
X131168449Y-110309665D01*
X131128655Y-110368461D01*
X131063391Y-110396409D01*
X131048432Y-110397300D01*
X130043167Y-110397300D01*
X130031984Y-110396773D01*
X130024491Y-110395098D01*
X130016565Y-110395347D01*
X130016564Y-110395347D01*
X129956414Y-110397238D01*
X129952455Y-110397300D01*
X129951502Y-110397300D01*
X129883381Y-110377298D01*
X129836888Y-110323642D01*
X129826784Y-110253368D01*
X129829795Y-110238689D01*
X129861919Y-110118802D01*
X129861919Y-110118800D01*
X129863343Y-110113487D01*
X129883298Y-109885400D01*
X129863343Y-109657313D01*
X129861920Y-109652001D01*
X129861918Y-109651991D01*
X129846341Y-109593859D01*
X129848030Y-109522883D01*
X129878952Y-109472152D01*
X129968699Y-109382405D01*
X130031011Y-109348379D01*
X130057794Y-109345500D01*
X131066867Y-109345500D01*
X131134988Y-109365502D01*
G37*
%TD.AperFunction*%
%TA.AperFunction,NonConductor*%
G36*
X146235327Y-109365502D02*
G01*
X146256301Y-109382405D01*
X146366448Y-109492552D01*
X146400474Y-109554864D01*
X146399059Y-109614259D01*
X146383482Y-109672391D01*
X146383480Y-109672401D01*
X146382057Y-109677713D01*
X146362102Y-109905800D01*
X146382057Y-110133887D01*
X146435380Y-110332888D01*
X146433690Y-110403865D01*
X146393896Y-110462661D01*
X146328632Y-110490609D01*
X146313673Y-110491500D01*
X145166261Y-110491500D01*
X145098140Y-110471498D01*
X145051647Y-110417842D01*
X145041543Y-110347568D01*
X145044554Y-110332889D01*
X145101919Y-110118802D01*
X145101919Y-110118800D01*
X145103343Y-110113487D01*
X145123298Y-109885400D01*
X145103343Y-109657313D01*
X145062292Y-109504110D01*
X145063982Y-109433135D01*
X145103776Y-109374339D01*
X145169040Y-109346391D01*
X145183999Y-109345500D01*
X146167206Y-109345500D01*
X146235327Y-109365502D01*
G37*
%TD.AperFunction*%
%TA.AperFunction,NonConductor*%
G36*
X148673032Y-110863032D02*
G01*
X148729868Y-110905579D01*
X148754679Y-110972099D01*
X148755000Y-110981088D01*
X148755000Y-111370512D01*
X148734998Y-111438633D01*
X148681342Y-111485126D01*
X148611068Y-111495230D01*
X148546488Y-111465736D01*
X148539905Y-111459607D01*
X148519900Y-111439602D01*
X148515392Y-111436445D01*
X148515389Y-111436443D01*
X148428037Y-111375279D01*
X148332349Y-111308277D01*
X148327367Y-111305954D01*
X148327362Y-111305951D01*
X148293143Y-111289995D01*
X148239858Y-111243078D01*
X148220397Y-111174801D01*
X148240939Y-111106841D01*
X148293143Y-111061605D01*
X148327362Y-111045649D01*
X148327367Y-111045646D01*
X148332349Y-111043323D01*
X148502534Y-110924158D01*
X148515389Y-110915157D01*
X148515392Y-110915155D01*
X148519900Y-110911998D01*
X148539905Y-110891993D01*
X148602217Y-110857967D01*
X148673032Y-110863032D01*
G37*
%TD.AperFunction*%
%TA.AperFunction,NonConductor*%
G36*
X141009770Y-110538902D02*
G01*
X141056263Y-110592558D01*
X141066367Y-110662832D01*
X141050768Y-110707900D01*
X141024473Y-110753444D01*
X140965458Y-110935072D01*
X140964768Y-110941633D01*
X140964768Y-110941635D01*
X140954412Y-111040166D01*
X140945496Y-111125000D01*
X140965458Y-111314928D01*
X141024473Y-111496556D01*
X141027776Y-111502278D01*
X141027777Y-111502279D01*
X141085871Y-111602900D01*
X141102609Y-111671895D01*
X141079389Y-111738987D01*
X141023582Y-111782874D01*
X140976752Y-111791900D01*
X136807676Y-111791900D01*
X136739555Y-111771898D01*
X136693062Y-111718242D01*
X136682958Y-111647968D01*
X136714040Y-111581590D01*
X136751621Y-111539852D01*
X136751622Y-111539851D01*
X136756040Y-111534944D01*
X136814314Y-111434010D01*
X136848223Y-111375279D01*
X136848224Y-111375278D01*
X136851527Y-111369556D01*
X136910542Y-111187928D01*
X136919065Y-111106841D01*
X136929814Y-111004565D01*
X136930504Y-110998000D01*
X136929814Y-110991435D01*
X136911232Y-110814635D01*
X136911232Y-110814633D01*
X136910542Y-110808072D01*
X136870175Y-110683836D01*
X136868147Y-110612869D01*
X136904810Y-110552071D01*
X136968522Y-110520745D01*
X136990008Y-110518900D01*
X140941649Y-110518900D01*
X141009770Y-110538902D01*
G37*
%TD.AperFunction*%
%TA.AperFunction,NonConductor*%
G36*
X148673032Y-113403032D02*
G01*
X148729868Y-113445579D01*
X148754679Y-113512099D01*
X148755000Y-113521088D01*
X148755000Y-113910512D01*
X148734998Y-113978633D01*
X148681342Y-114025126D01*
X148611068Y-114035230D01*
X148546488Y-114005736D01*
X148539905Y-113999607D01*
X148519900Y-113979602D01*
X148515392Y-113976445D01*
X148515389Y-113976443D01*
X148437211Y-113921702D01*
X148332349Y-113848277D01*
X148327367Y-113845954D01*
X148327362Y-113845951D01*
X148293143Y-113829995D01*
X148239858Y-113783078D01*
X148220397Y-113714801D01*
X148240939Y-113646841D01*
X148293143Y-113601605D01*
X148327362Y-113585649D01*
X148327367Y-113585646D01*
X148332349Y-113583323D01*
X148502534Y-113464158D01*
X148515389Y-113455157D01*
X148515392Y-113455155D01*
X148519900Y-113451998D01*
X148539905Y-113431993D01*
X148602217Y-113397967D01*
X148673032Y-113403032D01*
G37*
%TD.AperFunction*%
%TA.AperFunction,NonConductor*%
G36*
X134732418Y-111684302D02*
G01*
X134778911Y-111737958D01*
X134789015Y-111808232D01*
X134769012Y-111857509D01*
X134769960Y-111858056D01*
X134686931Y-112001867D01*
X134674473Y-112023444D01*
X134615458Y-112205072D01*
X134614768Y-112211633D01*
X134614768Y-112211635D01*
X134613553Y-112223193D01*
X134595496Y-112395000D01*
X134615458Y-112584928D01*
X134674473Y-112766556D01*
X134769960Y-112931944D01*
X134774378Y-112936851D01*
X134774379Y-112936852D01*
X134884457Y-113059106D01*
X134897747Y-113073866D01*
X135052248Y-113186118D01*
X135058276Y-113188802D01*
X135058278Y-113188803D01*
X135220681Y-113261109D01*
X135226712Y-113263794D01*
X135320112Y-113283647D01*
X135407056Y-113302128D01*
X135407061Y-113302128D01*
X135413513Y-113303500D01*
X135604487Y-113303500D01*
X135610939Y-113302128D01*
X135610944Y-113302128D01*
X135697887Y-113283647D01*
X135791288Y-113263794D01*
X135797319Y-113261109D01*
X135959722Y-113188803D01*
X135959724Y-113188802D01*
X135965752Y-113186118D01*
X136080775Y-113102549D01*
X136107731Y-113082964D01*
X136174599Y-113059106D01*
X136181792Y-113058900D01*
X142590406Y-113058900D01*
X142658527Y-113078902D01*
X142693619Y-113112629D01*
X142800427Y-113265166D01*
X142803602Y-113269700D01*
X142965500Y-113431598D01*
X142970008Y-113434755D01*
X142970011Y-113434757D01*
X143012000Y-113464158D01*
X143153051Y-113562923D01*
X143158033Y-113565246D01*
X143158038Y-113565249D01*
X143192257Y-113581205D01*
X143245542Y-113628122D01*
X143265003Y-113696399D01*
X143244461Y-113764359D01*
X143192257Y-113809595D01*
X143158038Y-113825551D01*
X143158033Y-113825554D01*
X143153051Y-113827877D01*
X143048189Y-113901302D01*
X142970011Y-113956043D01*
X142970008Y-113956045D01*
X142965500Y-113959202D01*
X142803602Y-114121100D01*
X142800445Y-114125608D01*
X142800443Y-114125611D01*
X142693619Y-114278171D01*
X142638162Y-114322499D01*
X142590406Y-114331900D01*
X136498571Y-114331900D01*
X136430450Y-114311898D01*
X136404935Y-114290210D01*
X136378675Y-114261045D01*
X136378674Y-114261044D01*
X136374253Y-114256134D01*
X136275157Y-114184136D01*
X136225094Y-114147763D01*
X136225093Y-114147762D01*
X136219752Y-114143882D01*
X136213724Y-114141198D01*
X136213722Y-114141197D01*
X136051319Y-114068891D01*
X136051318Y-114068891D01*
X136045288Y-114066206D01*
X135951888Y-114046353D01*
X135864944Y-114027872D01*
X135864939Y-114027872D01*
X135858487Y-114026500D01*
X135667513Y-114026500D01*
X135661061Y-114027872D01*
X135661056Y-114027872D01*
X135574112Y-114046353D01*
X135480712Y-114066206D01*
X135474682Y-114068891D01*
X135474681Y-114068891D01*
X135312278Y-114141197D01*
X135312276Y-114141198D01*
X135306248Y-114143882D01*
X135300907Y-114147762D01*
X135300906Y-114147763D01*
X135169519Y-114243222D01*
X135102652Y-114267080D01*
X135044209Y-114256393D01*
X134908319Y-114195891D01*
X134908318Y-114195891D01*
X134902288Y-114193206D01*
X134808887Y-114173353D01*
X134721944Y-114154872D01*
X134721939Y-114154872D01*
X134715487Y-114153500D01*
X134524513Y-114153500D01*
X134518061Y-114154872D01*
X134518056Y-114154872D01*
X134431113Y-114173353D01*
X134337712Y-114193206D01*
X134331682Y-114195891D01*
X134331681Y-114195891D01*
X134169278Y-114268197D01*
X134169276Y-114268198D01*
X134163248Y-114270882D01*
X134157907Y-114274762D01*
X134157906Y-114274763D01*
X134084307Y-114328236D01*
X134017439Y-114352095D01*
X134010246Y-114352300D01*
X133654994Y-114352300D01*
X133586873Y-114332298D01*
X133551781Y-114298571D01*
X133444957Y-114146011D01*
X133444955Y-114146008D01*
X133441798Y-114141500D01*
X133279900Y-113979602D01*
X133275392Y-113976445D01*
X133275389Y-113976443D01*
X133197211Y-113921702D01*
X133092349Y-113848277D01*
X133087367Y-113845954D01*
X133087362Y-113845951D01*
X133053143Y-113829995D01*
X132999858Y-113783078D01*
X132980397Y-113714801D01*
X133000939Y-113646841D01*
X133053143Y-113601605D01*
X133087362Y-113585649D01*
X133087367Y-113585646D01*
X133092349Y-113583323D01*
X133262534Y-113464158D01*
X133275389Y-113455157D01*
X133275392Y-113455155D01*
X133279900Y-113451998D01*
X133441798Y-113290100D01*
X133456083Y-113269700D01*
X133517325Y-113182237D01*
X133573123Y-113102549D01*
X133575446Y-113097567D01*
X133575449Y-113097562D01*
X133667561Y-112900025D01*
X133667561Y-112900024D01*
X133669884Y-112895043D01*
X133729143Y-112673887D01*
X133749098Y-112445800D01*
X133729143Y-112217713D01*
X133727717Y-112212391D01*
X133671307Y-112001867D01*
X133671306Y-112001865D01*
X133669884Y-111996557D01*
X133662848Y-111981467D01*
X133598536Y-111843550D01*
X133587875Y-111773358D01*
X133616855Y-111708545D01*
X133676275Y-111669689D01*
X133712731Y-111664300D01*
X134664297Y-111664300D01*
X134732418Y-111684302D01*
G37*
%TD.AperFunction*%
%TA.AperFunction,NonConductor*%
G36*
X131226590Y-111684302D02*
G01*
X131273083Y-111737958D01*
X131283187Y-111808232D01*
X131272664Y-111843550D01*
X131208353Y-111981467D01*
X131201316Y-111996557D01*
X131199894Y-112001865D01*
X131199893Y-112001867D01*
X131143483Y-112212391D01*
X131142057Y-112217713D01*
X131122102Y-112445800D01*
X131142057Y-112673887D01*
X131201316Y-112895043D01*
X131203639Y-112900024D01*
X131203639Y-112900025D01*
X131295751Y-113097562D01*
X131295754Y-113097567D01*
X131298077Y-113102549D01*
X131353875Y-113182237D01*
X131415118Y-113269700D01*
X131429402Y-113290100D01*
X131591300Y-113451998D01*
X131595808Y-113455155D01*
X131595811Y-113455157D01*
X131608666Y-113464158D01*
X131778851Y-113583323D01*
X131783833Y-113585646D01*
X131783838Y-113585649D01*
X131818057Y-113601605D01*
X131871342Y-113648522D01*
X131890803Y-113716799D01*
X131870261Y-113784759D01*
X131818057Y-113829995D01*
X131783838Y-113845951D01*
X131783833Y-113845954D01*
X131778851Y-113848277D01*
X131673989Y-113921702D01*
X131595811Y-113976443D01*
X131595808Y-113976445D01*
X131591300Y-113979602D01*
X131429402Y-114141500D01*
X131426245Y-114146008D01*
X131426243Y-114146011D01*
X131394158Y-114191834D01*
X131298077Y-114329051D01*
X131295754Y-114334033D01*
X131295751Y-114334038D01*
X131203639Y-114531575D01*
X131201316Y-114536557D01*
X131142057Y-114757713D01*
X131122102Y-114985800D01*
X131142057Y-115213887D01*
X131186205Y-115378648D01*
X131195380Y-115412888D01*
X131193690Y-115483865D01*
X131153896Y-115542661D01*
X131088632Y-115570609D01*
X131073673Y-115571500D01*
X130123994Y-115571500D01*
X130055873Y-115551498D01*
X130034899Y-115534595D01*
X129878952Y-115378648D01*
X129844926Y-115316336D01*
X129846341Y-115256941D01*
X129861918Y-115198809D01*
X129861920Y-115198798D01*
X129863343Y-115193487D01*
X129883298Y-114965400D01*
X129863343Y-114737313D01*
X129804084Y-114516157D01*
X129727677Y-114352300D01*
X129709649Y-114313638D01*
X129709646Y-114313633D01*
X129707323Y-114308651D01*
X129625527Y-114191834D01*
X129579157Y-114125611D01*
X129579155Y-114125608D01*
X129575998Y-114121100D01*
X129414100Y-113959202D01*
X129409592Y-113956045D01*
X129409589Y-113956043D01*
X129331411Y-113901302D01*
X129226549Y-113827877D01*
X129221567Y-113825554D01*
X129221562Y-113825551D01*
X129187343Y-113809595D01*
X129134058Y-113762678D01*
X129114597Y-113694401D01*
X129135139Y-113626441D01*
X129187343Y-113581205D01*
X129221562Y-113565249D01*
X129221567Y-113565246D01*
X129226549Y-113562923D01*
X129367600Y-113464158D01*
X129409589Y-113434757D01*
X129409592Y-113434755D01*
X129414100Y-113431598D01*
X129575998Y-113269700D01*
X129580134Y-113263794D01*
X129637240Y-113182237D01*
X129707323Y-113082149D01*
X129709646Y-113077167D01*
X129709649Y-113077162D01*
X129801761Y-112879625D01*
X129801761Y-112879624D01*
X129804084Y-112874643D01*
X129863343Y-112653487D01*
X129883298Y-112425400D01*
X129863343Y-112197313D01*
X129861919Y-112191998D01*
X129861918Y-112191991D01*
X129846341Y-112133859D01*
X129848030Y-112062883D01*
X129878952Y-112012152D01*
X130189899Y-111701205D01*
X130252211Y-111667179D01*
X130278994Y-111664300D01*
X131158469Y-111664300D01*
X131226590Y-111684302D01*
G37*
%TD.AperFunction*%
%TA.AperFunction,NonConductor*%
G36*
X127969805Y-116129629D02*
G01*
X127976625Y-116132568D01*
X128115574Y-116197361D01*
X128115580Y-116197363D01*
X128120557Y-116199684D01*
X128125865Y-116201106D01*
X128125867Y-116201107D01*
X128336398Y-116257519D01*
X128336400Y-116257519D01*
X128341713Y-116258943D01*
X128569800Y-116278898D01*
X128797887Y-116258943D01*
X128803192Y-116257521D01*
X128803206Y-116257519D01*
X128861339Y-116241941D01*
X128932316Y-116243629D01*
X128983047Y-116274552D01*
X129106400Y-116397905D01*
X129140426Y-116460217D01*
X129135361Y-116531032D01*
X129092814Y-116587868D01*
X129026294Y-116612679D01*
X129017305Y-116613000D01*
X128312867Y-116613000D01*
X128293482Y-116611500D01*
X128278648Y-116609190D01*
X128278645Y-116609190D01*
X128269776Y-116607809D01*
X128260874Y-116608973D01*
X128260750Y-116608989D01*
X128230308Y-116609260D01*
X128209630Y-116606930D01*
X128168236Y-116602266D01*
X128140729Y-116595987D01*
X128063647Y-116569015D01*
X128038226Y-116556773D01*
X127969074Y-116513322D01*
X127947015Y-116495730D01*
X127889270Y-116437985D01*
X127871678Y-116415926D01*
X127828227Y-116346774D01*
X127815985Y-116321355D01*
X127804446Y-116288377D01*
X127800826Y-116217476D01*
X127836114Y-116155870D01*
X127899107Y-116123122D01*
X127969805Y-116129629D01*
G37*
%TD.AperFunction*%
%TA.AperFunction,NonConductor*%
G36*
X146108327Y-111778502D02*
G01*
X146129301Y-111795405D01*
X146366448Y-112032552D01*
X146400474Y-112094864D01*
X146399059Y-112154259D01*
X146383482Y-112212391D01*
X146383481Y-112212398D01*
X146382057Y-112217713D01*
X146362102Y-112445800D01*
X146382057Y-112673887D01*
X146441316Y-112895043D01*
X146443639Y-112900024D01*
X146443639Y-112900025D01*
X146535751Y-113097562D01*
X146535754Y-113097567D01*
X146538077Y-113102549D01*
X146593875Y-113182237D01*
X146655118Y-113269700D01*
X146669402Y-113290100D01*
X146831300Y-113451998D01*
X146835808Y-113455155D01*
X146835811Y-113455157D01*
X146848666Y-113464158D01*
X147018851Y-113583323D01*
X147023833Y-113585646D01*
X147023838Y-113585649D01*
X147058057Y-113601605D01*
X147111342Y-113648522D01*
X147130803Y-113716799D01*
X147110261Y-113784759D01*
X147058057Y-113829995D01*
X147023838Y-113845951D01*
X147023833Y-113845954D01*
X147018851Y-113848277D01*
X146913989Y-113921702D01*
X146835811Y-113976443D01*
X146835808Y-113976445D01*
X146831300Y-113979602D01*
X146669402Y-114141500D01*
X146666245Y-114146008D01*
X146666243Y-114146011D01*
X146634158Y-114191834D01*
X146538077Y-114329051D01*
X146535754Y-114334033D01*
X146535751Y-114334038D01*
X146443639Y-114531575D01*
X146441316Y-114536557D01*
X146382057Y-114757713D01*
X146362102Y-114985800D01*
X146382057Y-115213887D01*
X146383480Y-115219199D01*
X146383481Y-115219202D01*
X146435380Y-115412888D01*
X146441316Y-115435043D01*
X146443639Y-115440024D01*
X146443639Y-115440025D01*
X146535751Y-115637562D01*
X146535754Y-115637567D01*
X146538077Y-115642549D01*
X146577612Y-115699011D01*
X146655118Y-115809700D01*
X146669402Y-115830100D01*
X146831300Y-115991998D01*
X146835808Y-115995155D01*
X146835811Y-115995157D01*
X146864253Y-116015072D01*
X147018851Y-116123323D01*
X147023833Y-116125646D01*
X147023838Y-116125649D01*
X147219237Y-116216764D01*
X147226357Y-116220084D01*
X147231665Y-116221506D01*
X147231667Y-116221507D01*
X147442198Y-116277919D01*
X147442200Y-116277919D01*
X147447513Y-116279343D01*
X147675600Y-116299298D01*
X147903687Y-116279343D01*
X147909000Y-116277919D01*
X147909002Y-116277919D01*
X148119533Y-116221507D01*
X148119535Y-116221506D01*
X148124843Y-116220084D01*
X148131963Y-116216764D01*
X148327362Y-116125649D01*
X148327367Y-116125646D01*
X148332349Y-116123323D01*
X148486947Y-116015072D01*
X148515389Y-115995157D01*
X148515392Y-115995155D01*
X148519900Y-115991998D01*
X148539905Y-115971993D01*
X148602217Y-115937967D01*
X148673032Y-115943032D01*
X148729868Y-115985579D01*
X148754679Y-116052099D01*
X148755000Y-116061088D01*
X148755000Y-116072133D01*
X148753500Y-116091518D01*
X148749809Y-116115224D01*
X148750973Y-116124126D01*
X148750989Y-116124250D01*
X148751260Y-116154693D01*
X148744266Y-116216764D01*
X148737987Y-116244271D01*
X148711015Y-116321353D01*
X148698773Y-116346774D01*
X148655322Y-116415926D01*
X148637730Y-116437985D01*
X148579985Y-116495730D01*
X148557926Y-116513322D01*
X148488774Y-116556773D01*
X148463353Y-116569015D01*
X148386272Y-116595987D01*
X148358764Y-116602266D01*
X148303274Y-116608518D01*
X148287632Y-116608423D01*
X148287621Y-116609300D01*
X148278649Y-116609190D01*
X148269776Y-116607809D01*
X148260874Y-116608973D01*
X148260872Y-116608973D01*
X148249885Y-116610410D01*
X148238214Y-116611936D01*
X148221879Y-116613000D01*
X134854110Y-116613000D01*
X134785989Y-116592998D01*
X134739496Y-116539342D01*
X134729392Y-116469068D01*
X134734277Y-116448064D01*
X134749502Y-116401206D01*
X134751542Y-116394928D01*
X134757867Y-116334754D01*
X134770814Y-116211565D01*
X134771504Y-116205000D01*
X134763646Y-116130233D01*
X134758031Y-116076807D01*
X134770803Y-116006969D01*
X134819306Y-115955122D01*
X134857143Y-115940391D01*
X134895824Y-115932169D01*
X134895833Y-115932166D01*
X134902288Y-115930794D01*
X134908319Y-115928109D01*
X135070722Y-115855803D01*
X135070724Y-115855802D01*
X135076752Y-115853118D01*
X135091879Y-115842128D01*
X135213481Y-115753778D01*
X135280348Y-115729920D01*
X135338791Y-115740607D01*
X135480712Y-115803794D01*
X135574113Y-115823647D01*
X135661056Y-115842128D01*
X135661061Y-115842128D01*
X135667513Y-115843500D01*
X135858487Y-115843500D01*
X135864939Y-115842128D01*
X135864944Y-115842128D01*
X135951887Y-115823647D01*
X136045288Y-115803794D01*
X136051319Y-115801109D01*
X136213722Y-115728803D01*
X136213724Y-115728802D01*
X136219752Y-115726118D01*
X136257062Y-115699011D01*
X136361731Y-115622964D01*
X136428599Y-115599106D01*
X136435792Y-115598900D01*
X142590406Y-115598900D01*
X142658527Y-115618902D01*
X142693619Y-115652629D01*
X142800427Y-115805166D01*
X142803602Y-115809700D01*
X142965500Y-115971598D01*
X142970008Y-115974755D01*
X142970011Y-115974757D01*
X143012000Y-116004158D01*
X143153051Y-116102923D01*
X143158033Y-116105246D01*
X143158038Y-116105249D01*
X143355575Y-116197361D01*
X143360557Y-116199684D01*
X143365865Y-116201106D01*
X143365867Y-116201107D01*
X143576398Y-116257519D01*
X143576400Y-116257519D01*
X143581713Y-116258943D01*
X143809800Y-116278898D01*
X144037887Y-116258943D01*
X144043200Y-116257519D01*
X144043202Y-116257519D01*
X144253733Y-116201107D01*
X144253735Y-116201106D01*
X144259043Y-116199684D01*
X144264025Y-116197361D01*
X144461562Y-116105249D01*
X144461567Y-116105246D01*
X144466549Y-116102923D01*
X144607600Y-116004158D01*
X144649589Y-115974757D01*
X144649592Y-115974755D01*
X144654100Y-115971598D01*
X144815998Y-115809700D01*
X144820134Y-115803794D01*
X144893503Y-115699011D01*
X144947323Y-115622149D01*
X144949646Y-115617167D01*
X144949649Y-115617162D01*
X145041761Y-115419625D01*
X145041761Y-115419624D01*
X145044084Y-115414643D01*
X145070426Y-115316336D01*
X145101919Y-115198802D01*
X145101919Y-115198800D01*
X145103343Y-115193487D01*
X145123298Y-114965400D01*
X145103343Y-114737313D01*
X145044084Y-114516157D01*
X144967677Y-114352300D01*
X144949649Y-114313638D01*
X144949646Y-114313633D01*
X144947323Y-114308651D01*
X144865527Y-114191834D01*
X144819157Y-114125611D01*
X144819155Y-114125608D01*
X144815998Y-114121100D01*
X144654100Y-113959202D01*
X144649592Y-113956045D01*
X144649589Y-113956043D01*
X144571411Y-113901302D01*
X144466549Y-113827877D01*
X144461567Y-113825554D01*
X144461562Y-113825551D01*
X144427343Y-113809595D01*
X144374058Y-113762678D01*
X144354597Y-113694401D01*
X144375139Y-113626441D01*
X144427343Y-113581205D01*
X144461562Y-113565249D01*
X144461567Y-113565246D01*
X144466549Y-113562923D01*
X144607600Y-113464158D01*
X144649589Y-113434757D01*
X144649592Y-113434755D01*
X144654100Y-113431598D01*
X144815998Y-113269700D01*
X144820134Y-113263794D01*
X144877240Y-113182237D01*
X144947323Y-113082149D01*
X144949646Y-113077167D01*
X144949649Y-113077162D01*
X145041761Y-112879625D01*
X145041761Y-112879624D01*
X145044084Y-112874643D01*
X145103343Y-112653487D01*
X145123298Y-112425400D01*
X145103343Y-112197313D01*
X145091807Y-112154259D01*
X145045507Y-111981467D01*
X145045506Y-111981465D01*
X145044084Y-111976157D01*
X145041759Y-111971170D01*
X145026175Y-111937749D01*
X145015514Y-111867557D01*
X145044495Y-111802745D01*
X145103915Y-111763889D01*
X145140370Y-111758500D01*
X146040206Y-111758500D01*
X146108327Y-111778502D01*
G37*
%TD.AperFunction*%
M02*
