%TF.GenerationSoftware,KiCad,Pcbnew,(6.0.7-1)-1*%
%TF.CreationDate,2022-09-30T17:05:21-04:00*%
%TF.ProjectId,tl866_27c322_adapter,746c3836-365f-4323-9763-3332325f6164,rev?*%
%TF.SameCoordinates,Original*%
%TF.FileFunction,Legend,Top*%
%TF.FilePolarity,Positive*%
%FSLAX46Y46*%
G04 Gerber Fmt 4.6, Leading zero omitted, Abs format (unit mm)*
G04 Created by KiCad (PCBNEW (6.0.7-1)-1) date 2022-09-30 17:05:21*
%MOMM*%
%LPD*%
G01*
G04 APERTURE LIST*
%ADD10C,0.150000*%
%ADD11C,0.120000*%
G04 APERTURE END LIST*
D10*
%TO.C,FC_*%
X126525404Y-118050071D02*
X126192071Y-118050071D01*
X126192071Y-118573880D02*
X126192071Y-117573880D01*
X126668261Y-117573880D01*
X127620642Y-118478642D02*
X127573023Y-118526261D01*
X127430166Y-118573880D01*
X127334928Y-118573880D01*
X127192071Y-118526261D01*
X127096833Y-118431023D01*
X127049214Y-118335785D01*
X127001595Y-118145309D01*
X127001595Y-118002452D01*
X127049214Y-117811976D01*
X127096833Y-117716738D01*
X127192071Y-117621500D01*
X127334928Y-117573880D01*
X127430166Y-117573880D01*
X127573023Y-117621500D01*
X127620642Y-117669119D01*
X127811119Y-118669119D02*
X128573023Y-118669119D01*
X121532828Y-117638580D02*
X121866161Y-118638580D01*
X122199495Y-117638580D01*
X122961400Y-118638580D02*
X122961400Y-118114771D01*
X122913780Y-118019533D01*
X122818542Y-117971914D01*
X122628066Y-117971914D01*
X122532828Y-118019533D01*
X122961400Y-118590961D02*
X122866161Y-118638580D01*
X122628066Y-118638580D01*
X122532828Y-118590961D01*
X122485209Y-118495723D01*
X122485209Y-118400485D01*
X122532828Y-118305247D01*
X122628066Y-118257628D01*
X122866161Y-118257628D01*
X122961400Y-118210009D01*
X123580447Y-118638580D02*
X123485209Y-118590961D01*
X123437590Y-118495723D01*
X123437590Y-117638580D01*
X123723304Y-118733819D02*
X124485209Y-118733819D01*
%TO.C,SW2*%
X132651666Y-56030761D02*
X132794523Y-56078380D01*
X133032619Y-56078380D01*
X133127857Y-56030761D01*
X133175476Y-55983142D01*
X133223095Y-55887904D01*
X133223095Y-55792666D01*
X133175476Y-55697428D01*
X133127857Y-55649809D01*
X133032619Y-55602190D01*
X132842142Y-55554571D01*
X132746904Y-55506952D01*
X132699285Y-55459333D01*
X132651666Y-55364095D01*
X132651666Y-55268857D01*
X132699285Y-55173619D01*
X132746904Y-55126000D01*
X132842142Y-55078380D01*
X133080238Y-55078380D01*
X133223095Y-55126000D01*
X133556428Y-55078380D02*
X133794523Y-56078380D01*
X133985000Y-55364095D01*
X134175476Y-56078380D01*
X134413571Y-55078380D01*
X134746904Y-55173619D02*
X134794523Y-55126000D01*
X134889761Y-55078380D01*
X135127857Y-55078380D01*
X135223095Y-55126000D01*
X135270714Y-55173619D01*
X135318333Y-55268857D01*
X135318333Y-55364095D01*
X135270714Y-55506952D01*
X134699285Y-56078380D01*
X135318333Y-56078380D01*
%TO.C,SW1*%
X141542966Y-57173761D02*
X141685823Y-57221380D01*
X141923919Y-57221380D01*
X142019157Y-57173761D01*
X142066776Y-57126142D01*
X142114395Y-57030904D01*
X142114395Y-56935666D01*
X142066776Y-56840428D01*
X142019157Y-56792809D01*
X141923919Y-56745190D01*
X141733442Y-56697571D01*
X141638204Y-56649952D01*
X141590585Y-56602333D01*
X141542966Y-56507095D01*
X141542966Y-56411857D01*
X141590585Y-56316619D01*
X141638204Y-56269000D01*
X141733442Y-56221380D01*
X141971538Y-56221380D01*
X142114395Y-56269000D01*
X142447728Y-56221380D02*
X142685823Y-57221380D01*
X142876300Y-56507095D01*
X143066776Y-57221380D01*
X143304871Y-56221380D01*
X144209633Y-57221380D02*
X143638204Y-57221380D01*
X143923919Y-57221380D02*
X143923919Y-56221380D01*
X143828680Y-56364238D01*
X143733442Y-56459476D01*
X143638204Y-56507095D01*
D11*
X139206300Y-60514900D02*
X146546300Y-60514900D01*
X137006300Y-54094900D02*
X137006300Y-52724900D01*
X139206300Y-57444900D02*
X139206300Y-58584900D01*
X139206300Y-53504900D02*
X139206300Y-52974900D01*
X146546300Y-52974900D02*
X146546300Y-53504900D01*
X146546300Y-57444900D02*
X146546300Y-58584900D01*
X146546300Y-60514900D02*
X146546300Y-59984900D01*
X139206300Y-52974900D02*
X146546300Y-52974900D01*
X137006300Y-52724900D02*
X138376300Y-52724900D01*
X139206300Y-54904900D02*
X139206300Y-56044900D01*
X139206300Y-59984900D02*
X139206300Y-60514900D01*
X146546300Y-54904900D02*
X146546300Y-56044900D01*
%TO.C,J1*%
X146515600Y-62855800D02*
X141055600Y-62855800D01*
X146515600Y-116315800D02*
X146515600Y-62855800D01*
X133595600Y-116315800D02*
X146515600Y-116315800D01*
X139055600Y-62855800D02*
X133595600Y-62855800D01*
X133595600Y-62855800D02*
X133595600Y-116315800D01*
X139055600Y-62855800D02*
G75*
G03*
X141055600Y-62855800I1000000J0D01*
G01*
%TO.C,J2*%
X135189800Y-65375400D02*
X129729800Y-65375400D01*
X142649800Y-116295400D02*
X142649800Y-65375400D01*
X142649800Y-65375400D02*
X137189800Y-65375400D01*
X129729800Y-65375400D02*
X129729800Y-116295400D01*
X129729800Y-116295400D02*
X142649800Y-116295400D01*
X135189800Y-65375400D02*
G75*
G03*
X137189800Y-65375400I1000000J0D01*
G01*
%TD*%
M02*
