M48
; DRILL file {KiCad (6.0.6-1)-1} date Tuesday, July 19, 2022 at 12:23:54 PM
; FORMAT={-:-/ absolute / inch / decimal}
; #@! TF.CreationDate,2022-07-19T12:23:54-04:00
; #@! TF.GenerationSoftware,Kicad,Pcbnew,(6.0.6-1)-1
; #@! TF.FileFunction,Plated,1,2,PTH
FMAT,2
INCH
; #@! TA.AperFunction,Plated,PTH,ViaDrill
T1C0.0157
; #@! TA.AperFunction,Plated,PTH,ComponentDrill
T2C0.0315
%
G90
G05
T1
X5.137Y-3.585
X5.199Y-2.442
X5.4315Y-2.429
X5.569Y-2.1337
X5.59Y-2.553
X5.592Y-2.475
X5.617Y-2.29
X5.661Y-2.553
X5.662Y-2.475
X5.707Y-2.29
X5.737Y-3.576
X5.737Y-3.672
X5.742Y-2.4785
X5.747Y-2.553
T2
X5.0618Y-2.6262
X5.0618Y-2.7262
X5.0618Y-2.8262
X5.0618Y-2.9262
X5.0618Y-3.0262
X5.0618Y-3.1262
X5.0618Y-3.2262
X5.0618Y-3.3262
X5.0618Y-3.4262
X5.0618Y-3.5262
X5.0618Y-3.6262
X5.0618Y-3.7262
X5.0618Y-3.8262
X5.0618Y-3.9262
X5.0618Y-4.0262
X5.0618Y-4.1262
X5.0618Y-4.2262
X5.0618Y-4.3262
X5.0618Y-4.4262
X5.0618Y-4.5262
X5.213Y-2.1602
X5.213Y-2.2586
X5.213Y-2.3571
X5.214Y-2.527
X5.214Y-2.627
X5.214Y-2.727
X5.214Y-2.827
X5.214Y-2.927
X5.214Y-3.027
X5.214Y-3.127
X5.214Y-3.227
X5.214Y-3.327
X5.214Y-3.427
X5.214Y-3.527
X5.214Y-3.627
X5.214Y-3.727
X5.214Y-3.827
X5.214Y-3.927
X5.214Y-4.027
X5.214Y-4.127
X5.214Y-4.227
X5.214Y-4.327
X5.214Y-4.427
X5.214Y-4.527
X5.339Y-2.1602
X5.339Y-2.2586
X5.339Y-2.3571
X5.6618Y-2.6262
X5.6618Y-2.7262
X5.6618Y-2.8262
X5.6618Y-2.9262
X5.6618Y-3.0262
X5.6618Y-3.1262
X5.6618Y-3.2262
X5.6618Y-3.3262
X5.6618Y-3.4262
X5.6618Y-3.5262
X5.6618Y-3.6262
X5.6618Y-3.7262
X5.6618Y-3.8262
X5.6618Y-3.9262
X5.6618Y-4.0262
X5.6618Y-4.1262
X5.6618Y-4.2262
X5.6618Y-4.3262
X5.6618Y-4.4262
X5.6618Y-4.5262
X5.814Y-2.527
X5.814Y-2.627
X5.814Y-2.727
X5.814Y-2.827
X5.814Y-2.927
X5.814Y-3.027
X5.814Y-3.127
X5.814Y-3.227
X5.814Y-3.327
X5.814Y-3.427
X5.814Y-3.527
X5.814Y-3.627
X5.814Y-3.727
X5.814Y-3.827
X5.814Y-3.927
X5.814Y-4.027
X5.814Y-4.127
X5.814Y-4.227
X5.814Y-4.327
X5.814Y-4.427
X5.814Y-4.527
T0
M30
