%TF.GenerationSoftware,KiCad,Pcbnew,(6.0.6-1)-1*%
%TF.CreationDate,2022-07-19T12:23:47-04:00*%
%TF.ProjectId,tl866_27c322_adapter,746c3836-365f-4323-9763-3332325f6164,rev?*%
%TF.SameCoordinates,Original*%
%TF.FileFunction,Legend,Bot*%
%TF.FilePolarity,Positive*%
%FSLAX46Y46*%
G04 Gerber Fmt 4.6, Leading zero omitted, Abs format (unit mm)*
G04 Created by KiCad (PCBNEW (6.0.6-1)-1) date 2022-07-19 12:23:47*
%MOMM*%
%LPD*%
G01*
G04 APERTURE LIST*
%ADD10C,0.100000*%
%ADD11C,0.150000*%
%ADD12C,0.120000*%
G04 APERTURE END LIST*
D10*
X133526157Y-55689714D02*
X133669014Y-55308761D01*
X133811871Y-55689714D01*
X133526157Y-56308761D02*
X133669014Y-55927809D01*
X133811871Y-56308761D01*
X133407109Y-56904000D02*
X133383300Y-56927809D01*
X133359490Y-56975428D01*
X133359490Y-57094476D01*
X133383300Y-57142095D01*
X133407109Y-57165904D01*
X133454728Y-57189714D01*
X133502347Y-57189714D01*
X133573776Y-57165904D01*
X133859490Y-56880190D01*
X133859490Y-57189714D01*
X133359490Y-57356380D02*
X133359490Y-57689714D01*
X133859490Y-57475428D01*
X133835680Y-58094476D02*
X133859490Y-58046857D01*
X133859490Y-57951619D01*
X133835680Y-57904000D01*
X133811871Y-57880190D01*
X133764252Y-57856380D01*
X133621395Y-57856380D01*
X133573776Y-57880190D01*
X133549966Y-57904000D01*
X133526157Y-57951619D01*
X133526157Y-58046857D01*
X133549966Y-58094476D01*
X133359490Y-58261142D02*
X133359490Y-58570666D01*
X133549966Y-58404000D01*
X133549966Y-58475428D01*
X133573776Y-58523047D01*
X133597585Y-58546857D01*
X133645204Y-58570666D01*
X133764252Y-58570666D01*
X133811871Y-58546857D01*
X133835680Y-58523047D01*
X133859490Y-58475428D01*
X133859490Y-58332571D01*
X133835680Y-58284952D01*
X133811871Y-58261142D01*
X133407109Y-58761142D02*
X133383300Y-58784952D01*
X133359490Y-58832571D01*
X133359490Y-58951619D01*
X133383300Y-58999238D01*
X133407109Y-59023047D01*
X133454728Y-59046857D01*
X133502347Y-59046857D01*
X133573776Y-59023047D01*
X133859490Y-58737333D01*
X133859490Y-59046857D01*
X133407109Y-59237333D02*
X133383300Y-59261142D01*
X133359490Y-59308761D01*
X133359490Y-59427809D01*
X133383300Y-59475428D01*
X133407109Y-59499238D01*
X133454728Y-59523047D01*
X133502347Y-59523047D01*
X133573776Y-59499238D01*
X133859490Y-59213523D01*
X133859490Y-59523047D01*
X134664490Y-55618285D02*
X134640680Y-55570666D01*
X134616871Y-55546857D01*
X134569252Y-55523047D01*
X134426395Y-55523047D01*
X134378776Y-55546857D01*
X134354966Y-55570666D01*
X134331157Y-55618285D01*
X134331157Y-55689714D01*
X134354966Y-55737333D01*
X134378776Y-55761142D01*
X134426395Y-55784952D01*
X134569252Y-55784952D01*
X134616871Y-55761142D01*
X134640680Y-55737333D01*
X134664490Y-55689714D01*
X134664490Y-55618285D01*
X134331157Y-55927809D02*
X134331157Y-56118285D01*
X134164490Y-55999238D02*
X134593061Y-55999238D01*
X134640680Y-56023047D01*
X134664490Y-56070666D01*
X134664490Y-56118285D01*
X134664490Y-56284952D02*
X134164490Y-56284952D01*
X134664490Y-56499238D02*
X134402585Y-56499238D01*
X134354966Y-56475428D01*
X134331157Y-56427809D01*
X134331157Y-56356380D01*
X134354966Y-56308761D01*
X134378776Y-56284952D01*
X134640680Y-56927809D02*
X134664490Y-56880190D01*
X134664490Y-56784952D01*
X134640680Y-56737333D01*
X134593061Y-56713523D01*
X134402585Y-56713523D01*
X134354966Y-56737333D01*
X134331157Y-56784952D01*
X134331157Y-56880190D01*
X134354966Y-56927809D01*
X134402585Y-56951619D01*
X134450204Y-56951619D01*
X134497823Y-56713523D01*
X134664490Y-57165904D02*
X134331157Y-57165904D01*
X134426395Y-57165904D02*
X134378776Y-57189714D01*
X134354966Y-57213523D01*
X134331157Y-57261142D01*
X134331157Y-57308761D01*
X134640680Y-57451619D02*
X134664490Y-57499238D01*
X134664490Y-57594476D01*
X134640680Y-57642095D01*
X134593061Y-57665904D01*
X134569252Y-57665904D01*
X134521633Y-57642095D01*
X134497823Y-57594476D01*
X134497823Y-57523047D01*
X134474014Y-57475428D01*
X134426395Y-57451619D01*
X134402585Y-57451619D01*
X134354966Y-57475428D01*
X134331157Y-57523047D01*
X134331157Y-57594476D01*
X134354966Y-57642095D01*
X134331157Y-58261142D02*
X134474014Y-58642095D01*
X134616871Y-58261142D01*
X134331157Y-58880190D02*
X134474014Y-59261142D01*
X134616871Y-58880190D01*
D11*
%TO.C,R4*%
X146273780Y-57923133D02*
X145797590Y-57589800D01*
X146273780Y-57351704D02*
X145273780Y-57351704D01*
X145273780Y-57732657D01*
X145321400Y-57827895D01*
X145369019Y-57875514D01*
X145464257Y-57923133D01*
X145607114Y-57923133D01*
X145702352Y-57875514D01*
X145749971Y-57827895D01*
X145797590Y-57732657D01*
X145797590Y-57351704D01*
X145607114Y-58780276D02*
X146273780Y-58780276D01*
X145226161Y-58542180D02*
X145940447Y-58304085D01*
X145940447Y-58923133D01*
%TO.C,R5*%
X148356580Y-57923133D02*
X147880390Y-57589800D01*
X148356580Y-57351704D02*
X147356580Y-57351704D01*
X147356580Y-57732657D01*
X147404200Y-57827895D01*
X147451819Y-57875514D01*
X147547057Y-57923133D01*
X147689914Y-57923133D01*
X147785152Y-57875514D01*
X147832771Y-57827895D01*
X147880390Y-57732657D01*
X147880390Y-57351704D01*
X147356580Y-58827895D02*
X147356580Y-58351704D01*
X147832771Y-58304085D01*
X147785152Y-58351704D01*
X147737533Y-58446942D01*
X147737533Y-58685038D01*
X147785152Y-58780276D01*
X147832771Y-58827895D01*
X147928009Y-58875514D01*
X148166104Y-58875514D01*
X148261342Y-58827895D01*
X148308961Y-58780276D01*
X148356580Y-58685038D01*
X148356580Y-58446942D01*
X148308961Y-58351704D01*
X148261342Y-58304085D01*
%TO.C,R1*%
X140228580Y-57973933D02*
X139752390Y-57640600D01*
X140228580Y-57402504D02*
X139228580Y-57402504D01*
X139228580Y-57783457D01*
X139276200Y-57878695D01*
X139323819Y-57926314D01*
X139419057Y-57973933D01*
X139561914Y-57973933D01*
X139657152Y-57926314D01*
X139704771Y-57878695D01*
X139752390Y-57783457D01*
X139752390Y-57402504D01*
X140228580Y-58926314D02*
X140228580Y-58354885D01*
X140228580Y-58640600D02*
X139228580Y-58640600D01*
X139371438Y-58545361D01*
X139466676Y-58450123D01*
X139514295Y-58354885D01*
%TO.C,R2*%
X142260580Y-57923133D02*
X141784390Y-57589800D01*
X142260580Y-57351704D02*
X141260580Y-57351704D01*
X141260580Y-57732657D01*
X141308200Y-57827895D01*
X141355819Y-57875514D01*
X141451057Y-57923133D01*
X141593914Y-57923133D01*
X141689152Y-57875514D01*
X141736771Y-57827895D01*
X141784390Y-57732657D01*
X141784390Y-57351704D01*
X141355819Y-58304085D02*
X141308200Y-58351704D01*
X141260580Y-58446942D01*
X141260580Y-58685038D01*
X141308200Y-58780276D01*
X141355819Y-58827895D01*
X141451057Y-58875514D01*
X141546295Y-58875514D01*
X141689152Y-58827895D01*
X142260580Y-58256466D01*
X142260580Y-58875514D01*
%TO.C,R3*%
X144394180Y-57923133D02*
X143917990Y-57589800D01*
X144394180Y-57351704D02*
X143394180Y-57351704D01*
X143394180Y-57732657D01*
X143441800Y-57827895D01*
X143489419Y-57875514D01*
X143584657Y-57923133D01*
X143727514Y-57923133D01*
X143822752Y-57875514D01*
X143870371Y-57827895D01*
X143917990Y-57732657D01*
X143917990Y-57351704D01*
X143394180Y-58256466D02*
X143394180Y-58875514D01*
X143775133Y-58542180D01*
X143775133Y-58685038D01*
X143822752Y-58780276D01*
X143870371Y-58827895D01*
X143965609Y-58875514D01*
X144203704Y-58875514D01*
X144298942Y-58827895D01*
X144346561Y-58780276D01*
X144394180Y-58685038D01*
X144394180Y-58399323D01*
X144346561Y-58304085D01*
X144298942Y-58256466D01*
%TO.C,Q1*%
X142208238Y-56300619D02*
X142303476Y-56253000D01*
X142398714Y-56157761D01*
X142541571Y-56014904D01*
X142636809Y-55967285D01*
X142732047Y-55967285D01*
X142684428Y-56205380D02*
X142779666Y-56157761D01*
X142874904Y-56062523D01*
X142922523Y-55872047D01*
X142922523Y-55538714D01*
X142874904Y-55348238D01*
X142779666Y-55253000D01*
X142684428Y-55205380D01*
X142493952Y-55205380D01*
X142398714Y-55253000D01*
X142303476Y-55348238D01*
X142255857Y-55538714D01*
X142255857Y-55872047D01*
X142303476Y-56062523D01*
X142398714Y-56157761D01*
X142493952Y-56205380D01*
X142684428Y-56205380D01*
X141303476Y-56205380D02*
X141874904Y-56205380D01*
X141589190Y-56205380D02*
X141589190Y-55205380D01*
X141684428Y-55348238D01*
X141779666Y-55443476D01*
X141874904Y-55491095D01*
%TO.C,C1*%
X138126742Y-57999333D02*
X138174361Y-57951714D01*
X138221980Y-57808857D01*
X138221980Y-57713619D01*
X138174361Y-57570761D01*
X138079123Y-57475523D01*
X137983885Y-57427904D01*
X137793409Y-57380285D01*
X137650552Y-57380285D01*
X137460076Y-57427904D01*
X137364838Y-57475523D01*
X137269600Y-57570761D01*
X137221980Y-57713619D01*
X137221980Y-57808857D01*
X137269600Y-57951714D01*
X137317219Y-57999333D01*
X138221980Y-58951714D02*
X138221980Y-58380285D01*
X138221980Y-58666000D02*
X137221980Y-58666000D01*
X137364838Y-58570761D01*
X137460076Y-58475523D01*
X137507695Y-58380285D01*
D12*
%TO.C,R4*%
X146556400Y-61009264D02*
X146556400Y-60555136D01*
X145086400Y-61009264D02*
X145086400Y-60555136D01*
%TO.C,R5*%
X147118400Y-61009264D02*
X147118400Y-60555136D01*
X148588400Y-61009264D02*
X148588400Y-60555136D01*
%TO.C,R1*%
X140460400Y-60555136D02*
X140460400Y-61009264D01*
X138990400Y-60555136D02*
X138990400Y-61009264D01*
%TO.C,R2*%
X141022400Y-61009264D02*
X141022400Y-60555136D01*
X142492400Y-61009264D02*
X142492400Y-60555136D01*
%TO.C,R3*%
X143054400Y-61009264D02*
X143054400Y-60555136D01*
X144524400Y-61009264D02*
X144524400Y-60555136D01*
%TO.C,Q1*%
X139217400Y-53024600D02*
X138567400Y-53024600D01*
X139217400Y-56144600D02*
X139867400Y-56144600D01*
X139217400Y-56144600D02*
X137542400Y-56144600D01*
X139217400Y-53024600D02*
X139867400Y-53024600D01*
%TO.C,C1*%
X138403000Y-60555136D02*
X138403000Y-61009264D01*
X136933000Y-60555136D02*
X136933000Y-61009264D01*
%TD*%
M02*
