%TF.GenerationSoftware,KiCad,Pcbnew,(6.0.6-1)-1*%
%TF.CreationDate,2022-07-19T12:23:47-04:00*%
%TF.ProjectId,tl866_27c322_adapter,746c3836-365f-4323-9763-3332325f6164,rev?*%
%TF.SameCoordinates,Original*%
%TF.FileFunction,Soldermask,Top*%
%TF.FilePolarity,Negative*%
%FSLAX46Y46*%
G04 Gerber Fmt 4.6, Leading zero omitted, Abs format (unit mm)*
G04 Created by KiCad (PCBNEW (6.0.6-1)-1) date 2022-07-19 12:23:47*
%MOMM*%
%LPD*%
G01*
G04 APERTURE LIST*
%ADD10C,0.200000*%
%ADD11C,0.678751*%
%ADD12C,0.667969*%
%ADD13C,0.427868*%
%ADD14C,0.292018*%
%ADD15C,0.507546*%
%ADD16C,0.349743*%
%ADD17C,0.438673*%
%ADD18R,3.000000X1.000000*%
%ADD19R,1.600000X1.600000*%
%ADD20C,1.600000*%
%ADD21O,1.600000X1.600000*%
G04 APERTURE END LIST*
D10*
G36*
X136274596Y-114319307D02*
G01*
X135594235Y-94063226D01*
X136280035Y-93961626D01*
X136274596Y-114319307D01*
G37*
X136274596Y-114319307D02*
X135594235Y-94063226D01*
X136280035Y-93961626D01*
X136274596Y-114319307D01*
D11*
X137600975Y-115468400D02*
G75*
G03*
X137600975Y-115468400I-339375J0D01*
G01*
D12*
X138772753Y-114604800D02*
G75*
G03*
X138772753Y-114604800I-333984J0D01*
G01*
D13*
X137780334Y-113538000D02*
G75*
G03*
X137780334Y-113538000I-213934J0D01*
G01*
D10*
G36*
X140025539Y-92592512D02*
G01*
X135021739Y-115122312D01*
X139085739Y-92313112D01*
X140025539Y-92592512D01*
G37*
X140025539Y-92592512D02*
X135021739Y-115122312D01*
X139085739Y-92313112D01*
X140025539Y-92592512D01*
D14*
X135680409Y-116078000D02*
G75*
G03*
X135680409Y-116078000I-146009J0D01*
G01*
D15*
X134314973Y-113919000D02*
G75*
G03*
X134314973Y-113919000I-253773J0D01*
G01*
D16*
X136268071Y-115316000D02*
G75*
G03*
X136268071Y-115316000I-174871J0D01*
G01*
D17*
X134356736Y-115849400D02*
G75*
G03*
X134356736Y-115849400I-219336J0D01*
G01*
D18*
%TO.C,SW1*%
X138876300Y-54204900D03*
X146876300Y-59284900D03*
X138876300Y-59284900D03*
X146876300Y-54204900D03*
X146876300Y-56744900D03*
X138876300Y-56744900D03*
%TD*%
D19*
%TO.C,SW2*%
X135610400Y-54869500D03*
D20*
X135610400Y-57369500D03*
X135610400Y-59869500D03*
X132410400Y-54869500D03*
X132410400Y-57369500D03*
X132410400Y-59869500D03*
%TD*%
D19*
%TO.C,J1*%
X132435600Y-64185800D03*
D21*
X132435600Y-66725800D03*
X132435600Y-69265800D03*
X132435600Y-71805800D03*
X132435600Y-74345800D03*
X132435600Y-76885800D03*
X132435600Y-79425800D03*
X132435600Y-81965800D03*
X132435600Y-84505800D03*
X132435600Y-87045800D03*
X132435600Y-89585800D03*
X132435600Y-92125800D03*
X132435600Y-94665800D03*
X132435600Y-97205800D03*
X132435600Y-99745800D03*
X132435600Y-102285800D03*
X132435600Y-104825800D03*
X132435600Y-107365800D03*
X132435600Y-109905800D03*
X132435600Y-112445800D03*
X132435600Y-114985800D03*
X147675600Y-114985800D03*
X147675600Y-112445800D03*
X147675600Y-109905800D03*
X147675600Y-107365800D03*
X147675600Y-104825800D03*
X147675600Y-102285800D03*
X147675600Y-99745800D03*
X147675600Y-97205800D03*
X147675600Y-94665800D03*
X147675600Y-92125800D03*
X147675600Y-89585800D03*
X147675600Y-87045800D03*
X147675600Y-84505800D03*
X147675600Y-81965800D03*
X147675600Y-79425800D03*
X147675600Y-76885800D03*
X147675600Y-74345800D03*
X147675600Y-71805800D03*
X147675600Y-69265800D03*
X147675600Y-66725800D03*
X147675600Y-64185800D03*
%TD*%
D19*
%TO.C,J2*%
X128569800Y-66705400D03*
D21*
X128569800Y-69245400D03*
X128569800Y-71785400D03*
X128569800Y-74325400D03*
X128569800Y-76865400D03*
X128569800Y-79405400D03*
X128569800Y-81945400D03*
X128569800Y-84485400D03*
X128569800Y-87025400D03*
X128569800Y-89565400D03*
X128569800Y-92105400D03*
X128569800Y-94645400D03*
X128569800Y-97185400D03*
X128569800Y-99725400D03*
X128569800Y-102265400D03*
X128569800Y-104805400D03*
X128569800Y-107345400D03*
X128569800Y-109885400D03*
X128569800Y-112425400D03*
X128569800Y-114965400D03*
X143809800Y-114965400D03*
X143809800Y-112425400D03*
X143809800Y-109885400D03*
X143809800Y-107345400D03*
X143809800Y-104805400D03*
X143809800Y-102265400D03*
X143809800Y-99725400D03*
X143809800Y-97185400D03*
X143809800Y-94645400D03*
X143809800Y-92105400D03*
X143809800Y-89565400D03*
X143809800Y-87025400D03*
X143809800Y-84485400D03*
X143809800Y-81945400D03*
X143809800Y-79405400D03*
X143809800Y-76865400D03*
X143809800Y-74325400D03*
X143809800Y-71785400D03*
X143809800Y-69245400D03*
X143809800Y-66705400D03*
%TD*%
M02*
