%TF.GenerationSoftware,KiCad,Pcbnew,(6.0.6-1)-1*%
%TF.CreationDate,2022-07-19T12:23:47-04:00*%
%TF.ProjectId,tl866_27c322_adapter,746c3836-365f-4323-9763-3332325f6164,rev?*%
%TF.SameCoordinates,Original*%
%TF.FileFunction,Soldermask,Bot*%
%TF.FilePolarity,Negative*%
%FSLAX46Y46*%
G04 Gerber Fmt 4.6, Leading zero omitted, Abs format (unit mm)*
G04 Created by KiCad (PCBNEW (6.0.6-1)-1) date 2022-07-19 12:23:47*
%MOMM*%
%LPD*%
G01*
G04 APERTURE LIST*
G04 Aperture macros list*
%AMRoundRect*
0 Rectangle with rounded corners*
0 $1 Rounding radius*
0 $2 $3 $4 $5 $6 $7 $8 $9 X,Y pos of 4 corners*
0 Add a 4 corners polygon primitive as box body*
4,1,4,$2,$3,$4,$5,$6,$7,$8,$9,$2,$3,0*
0 Add four circle primitives for the rounded corners*
1,1,$1+$1,$2,$3*
1,1,$1+$1,$4,$5*
1,1,$1+$1,$6,$7*
1,1,$1+$1,$8,$9*
0 Add four rect primitives between the rounded corners*
20,1,$1+$1,$2,$3,$4,$5,0*
20,1,$1+$1,$4,$5,$6,$7,0*
20,1,$1+$1,$6,$7,$8,$9,0*
20,1,$1+$1,$8,$9,$2,$3,0*%
G04 Aperture macros list end*
%ADD10C,0.200000*%
%ADD11C,0.507546*%
%ADD12C,0.349743*%
%ADD13C,0.667969*%
%ADD14C,0.456000*%
%ADD15C,0.678751*%
%ADD16C,0.427868*%
%ADD17C,0.456846*%
%ADD18R,1.600000X1.600000*%
%ADD19C,1.600000*%
%ADD20O,1.600000X1.600000*%
%ADD21RoundRect,0.250000X0.450000X-0.262500X0.450000X0.262500X-0.450000X0.262500X-0.450000X-0.262500X0*%
%ADD22RoundRect,0.250000X-0.450000X0.262500X-0.450000X-0.262500X0.450000X-0.262500X0.450000X0.262500X0*%
%ADD23RoundRect,0.150000X-0.587500X-0.150000X0.587500X-0.150000X0.587500X0.150000X-0.587500X0.150000X0*%
G04 APERTURE END LIST*
D10*
X130103619Y-66157276D02*
X130056000Y-66204895D01*
X130008380Y-66300133D01*
X130008380Y-66538228D01*
X130056000Y-66633466D01*
X130103619Y-66681085D01*
X130198857Y-66728704D01*
X130294095Y-66728704D01*
X130436952Y-66681085D01*
X131008380Y-66109657D01*
X131008380Y-66728704D01*
X130008380Y-67062038D02*
X130008380Y-67728704D01*
X131008380Y-67300133D01*
X130913142Y-68681085D02*
X130960761Y-68633466D01*
X131008380Y-68490609D01*
X131008380Y-68395371D01*
X130960761Y-68252514D01*
X130865523Y-68157276D01*
X130770285Y-68109657D01*
X130579809Y-68062038D01*
X130436952Y-68062038D01*
X130246476Y-68109657D01*
X130151238Y-68157276D01*
X130056000Y-68252514D01*
X130008380Y-68395371D01*
X130008380Y-68490609D01*
X130056000Y-68633466D01*
X130103619Y-68681085D01*
X131008380Y-69633466D02*
X131008380Y-69062038D01*
X131008380Y-69347752D02*
X130008380Y-69347752D01*
X130151238Y-69252514D01*
X130246476Y-69157276D01*
X130294095Y-69062038D01*
X130008380Y-70490609D02*
X130008380Y-70300133D01*
X130056000Y-70204895D01*
X130103619Y-70157276D01*
X130246476Y-70062038D01*
X130436952Y-70014419D01*
X130817904Y-70014419D01*
X130913142Y-70062038D01*
X130960761Y-70109657D01*
X131008380Y-70204895D01*
X131008380Y-70395371D01*
X130960761Y-70490609D01*
X130913142Y-70538228D01*
X130817904Y-70585847D01*
X130579809Y-70585847D01*
X130484571Y-70538228D01*
X130436952Y-70490609D01*
X130389333Y-70395371D01*
X130389333Y-70204895D01*
X130436952Y-70109657D01*
X130484571Y-70062038D01*
X130579809Y-70014419D01*
X130008380Y-71204895D02*
X130008380Y-71300133D01*
X130056000Y-71395371D01*
X130103619Y-71442990D01*
X130198857Y-71490609D01*
X130389333Y-71538228D01*
X130627428Y-71538228D01*
X130817904Y-71490609D01*
X130913142Y-71442990D01*
X130960761Y-71395371D01*
X131008380Y-71300133D01*
X131008380Y-71204895D01*
X130960761Y-71109657D01*
X130913142Y-71062038D01*
X130817904Y-71014419D01*
X130627428Y-70966800D01*
X130389333Y-70966800D01*
X130198857Y-71014419D01*
X130103619Y-71062038D01*
X130056000Y-71109657D01*
X130008380Y-71204895D01*
X129960761Y-72681085D02*
X131246476Y-71823942D01*
X130008380Y-72919180D02*
X130008380Y-73538228D01*
X130389333Y-73204895D01*
X130389333Y-73347752D01*
X130436952Y-73442990D01*
X130484571Y-73490609D01*
X130579809Y-73538228D01*
X130817904Y-73538228D01*
X130913142Y-73490609D01*
X130960761Y-73442990D01*
X131008380Y-73347752D01*
X131008380Y-73062038D01*
X130960761Y-72966800D01*
X130913142Y-72919180D01*
X130103619Y-73919180D02*
X130056000Y-73966800D01*
X130008380Y-74062038D01*
X130008380Y-74300133D01*
X130056000Y-74395371D01*
X130103619Y-74442990D01*
X130198857Y-74490609D01*
X130294095Y-74490609D01*
X130436952Y-74442990D01*
X131008380Y-73871561D01*
X131008380Y-74490609D01*
X130103619Y-74871561D02*
X130056000Y-74919180D01*
X130008380Y-75014419D01*
X130008380Y-75252514D01*
X130056000Y-75347752D01*
X130103619Y-75395371D01*
X130198857Y-75442990D01*
X130294095Y-75442990D01*
X130436952Y-75395371D01*
X131008380Y-74823942D01*
X131008380Y-75442990D01*
X129960761Y-76585847D02*
X131246476Y-75728704D01*
X130341714Y-77347752D02*
X131008380Y-77347752D01*
X129960761Y-77109657D02*
X130675047Y-76871561D01*
X130675047Y-77490609D01*
X130008380Y-78062038D02*
X130008380Y-78157276D01*
X130056000Y-78252514D01*
X130103619Y-78300133D01*
X130198857Y-78347752D01*
X130389333Y-78395371D01*
X130627428Y-78395371D01*
X130817904Y-78347752D01*
X130913142Y-78300133D01*
X130960761Y-78252514D01*
X131008380Y-78157276D01*
X131008380Y-78062038D01*
X130960761Y-77966800D01*
X130913142Y-77919180D01*
X130817904Y-77871561D01*
X130627428Y-77823942D01*
X130389333Y-77823942D01*
X130198857Y-77871561D01*
X130103619Y-77919180D01*
X130056000Y-77966800D01*
X130008380Y-78062038D01*
X130008380Y-79014419D02*
X130008380Y-79109657D01*
X130056000Y-79204895D01*
X130103619Y-79252514D01*
X130198857Y-79300133D01*
X130389333Y-79347752D01*
X130627428Y-79347752D01*
X130817904Y-79300133D01*
X130913142Y-79252514D01*
X130960761Y-79204895D01*
X131008380Y-79109657D01*
X131008380Y-79014419D01*
X130960761Y-78919180D01*
X130913142Y-78871561D01*
X130817904Y-78823942D01*
X130627428Y-78776323D01*
X130389333Y-78776323D01*
X130198857Y-78823942D01*
X130103619Y-78871561D01*
X130056000Y-78919180D01*
X130008380Y-79014419D01*
X129960761Y-80490609D02*
X131246476Y-79633466D01*
X130436952Y-80966800D02*
X130389333Y-80871561D01*
X130341714Y-80823942D01*
X130246476Y-80776323D01*
X130198857Y-80776323D01*
X130103619Y-80823942D01*
X130056000Y-80871561D01*
X130008380Y-80966800D01*
X130008380Y-81157276D01*
X130056000Y-81252514D01*
X130103619Y-81300133D01*
X130198857Y-81347752D01*
X130246476Y-81347752D01*
X130341714Y-81300133D01*
X130389333Y-81252514D01*
X130436952Y-81157276D01*
X130436952Y-80966800D01*
X130484571Y-80871561D01*
X130532190Y-80823942D01*
X130627428Y-80776323D01*
X130817904Y-80776323D01*
X130913142Y-80823942D01*
X130960761Y-80871561D01*
X131008380Y-80966800D01*
X131008380Y-81157276D01*
X130960761Y-81252514D01*
X130913142Y-81300133D01*
X130817904Y-81347752D01*
X130627428Y-81347752D01*
X130532190Y-81300133D01*
X130484571Y-81252514D01*
X130436952Y-81157276D01*
X130008380Y-81966800D02*
X130008380Y-82062038D01*
X130056000Y-82157276D01*
X130103619Y-82204895D01*
X130198857Y-82252514D01*
X130389333Y-82300133D01*
X130627428Y-82300133D01*
X130817904Y-82252514D01*
X130913142Y-82204895D01*
X130960761Y-82157276D01*
X131008380Y-82062038D01*
X131008380Y-81966800D01*
X130960761Y-81871561D01*
X130913142Y-81823942D01*
X130817904Y-81776323D01*
X130627428Y-81728704D01*
X130389333Y-81728704D01*
X130198857Y-81776323D01*
X130103619Y-81823942D01*
X130056000Y-81871561D01*
X130008380Y-81966800D01*
X130008380Y-82919180D02*
X130008380Y-83014419D01*
X130056000Y-83109657D01*
X130103619Y-83157276D01*
X130198857Y-83204895D01*
X130389333Y-83252514D01*
X130627428Y-83252514D01*
X130817904Y-83204895D01*
X130913142Y-83157276D01*
X130960761Y-83109657D01*
X131008380Y-83014419D01*
X131008380Y-82919180D01*
X130960761Y-82823942D01*
X130913142Y-82776323D01*
X130817904Y-82728704D01*
X130627428Y-82681085D01*
X130389333Y-82681085D01*
X130198857Y-82728704D01*
X130103619Y-82776323D01*
X130056000Y-82823942D01*
X130008380Y-82919180D01*
X131008380Y-84871561D02*
X130484571Y-84871561D01*
X130389333Y-84823942D01*
X130341714Y-84728704D01*
X130341714Y-84538228D01*
X130389333Y-84442990D01*
X130960761Y-84871561D02*
X131008380Y-84776323D01*
X131008380Y-84538228D01*
X130960761Y-84442990D01*
X130865523Y-84395371D01*
X130770285Y-84395371D01*
X130675047Y-84442990D01*
X130627428Y-84538228D01*
X130627428Y-84776323D01*
X130579809Y-84871561D01*
X130960761Y-85300133D02*
X131008380Y-85395371D01*
X131008380Y-85585847D01*
X130960761Y-85681085D01*
X130865523Y-85728704D01*
X130817904Y-85728704D01*
X130722666Y-85681085D01*
X130675047Y-85585847D01*
X130675047Y-85442990D01*
X130627428Y-85347752D01*
X130532190Y-85300133D01*
X130484571Y-85300133D01*
X130389333Y-85347752D01*
X130341714Y-85442990D01*
X130341714Y-85585847D01*
X130389333Y-85681085D01*
X130103619Y-86871561D02*
X130056000Y-86919180D01*
X130008380Y-87014419D01*
X130008380Y-87252514D01*
X130056000Y-87347752D01*
X130103619Y-87395371D01*
X130198857Y-87442990D01*
X130294095Y-87442990D01*
X130436952Y-87395371D01*
X131008380Y-86823942D01*
X131008380Y-87442990D01*
X130008380Y-87776323D02*
X130008380Y-88442990D01*
X131008380Y-88014419D01*
X130913142Y-89395371D02*
X130960761Y-89347752D01*
X131008380Y-89204895D01*
X131008380Y-89109657D01*
X130960761Y-88966800D01*
X130865523Y-88871561D01*
X130770285Y-88823942D01*
X130579809Y-88776323D01*
X130436952Y-88776323D01*
X130246476Y-88823942D01*
X130151238Y-88871561D01*
X130056000Y-88966800D01*
X130008380Y-89109657D01*
X130008380Y-89204895D01*
X130056000Y-89347752D01*
X130103619Y-89395371D01*
X130341714Y-90252514D02*
X131008380Y-90252514D01*
X129960761Y-90014419D02*
X130675047Y-89776323D01*
X130675047Y-90395371D01*
X130008380Y-90966800D02*
X130008380Y-91062038D01*
X130056000Y-91157276D01*
X130103619Y-91204895D01*
X130198857Y-91252514D01*
X130389333Y-91300133D01*
X130627428Y-91300133D01*
X130817904Y-91252514D01*
X130913142Y-91204895D01*
X130960761Y-91157276D01*
X131008380Y-91062038D01*
X131008380Y-90966800D01*
X130960761Y-90871561D01*
X130913142Y-90823942D01*
X130817904Y-90776323D01*
X130627428Y-90728704D01*
X130389333Y-90728704D01*
X130198857Y-90776323D01*
X130103619Y-90823942D01*
X130056000Y-90871561D01*
X130008380Y-90966800D01*
X131008380Y-91776323D02*
X131008380Y-91966800D01*
X130960761Y-92062038D01*
X130913142Y-92109657D01*
X130770285Y-92204895D01*
X130579809Y-92252514D01*
X130198857Y-92252514D01*
X130103619Y-92204895D01*
X130056000Y-92157276D01*
X130008380Y-92062038D01*
X130008380Y-91871561D01*
X130056000Y-91776323D01*
X130103619Y-91728704D01*
X130198857Y-91681085D01*
X130436952Y-91681085D01*
X130532190Y-91728704D01*
X130579809Y-91776323D01*
X130627428Y-91871561D01*
X130627428Y-92062038D01*
X130579809Y-92157276D01*
X130532190Y-92204895D01*
X130436952Y-92252514D01*
X130008380Y-93109657D02*
X130008380Y-92919180D01*
X130056000Y-92823942D01*
X130103619Y-92776323D01*
X130246476Y-92681085D01*
X130436952Y-92633466D01*
X130817904Y-92633466D01*
X130913142Y-92681085D01*
X130960761Y-92728704D01*
X131008380Y-92823942D01*
X131008380Y-93014419D01*
X130960761Y-93109657D01*
X130913142Y-93157276D01*
X130817904Y-93204895D01*
X130579809Y-93204895D01*
X130484571Y-93157276D01*
X130436952Y-93109657D01*
X130389333Y-93014419D01*
X130389333Y-92823942D01*
X130436952Y-92728704D01*
X130484571Y-92681085D01*
X130579809Y-92633466D01*
X130008380Y-102633466D02*
X130008380Y-103204895D01*
X131008380Y-102919180D02*
X130008380Y-102919180D01*
X131008380Y-104014419D02*
X131008380Y-103538228D01*
X130008380Y-103538228D01*
X130436952Y-104490609D02*
X130389333Y-104395371D01*
X130341714Y-104347752D01*
X130246476Y-104300133D01*
X130198857Y-104300133D01*
X130103619Y-104347752D01*
X130056000Y-104395371D01*
X130008380Y-104490609D01*
X130008380Y-104681085D01*
X130056000Y-104776323D01*
X130103619Y-104823942D01*
X130198857Y-104871561D01*
X130246476Y-104871561D01*
X130341714Y-104823942D01*
X130389333Y-104776323D01*
X130436952Y-104681085D01*
X130436952Y-104490609D01*
X130484571Y-104395371D01*
X130532190Y-104347752D01*
X130627428Y-104300133D01*
X130817904Y-104300133D01*
X130913142Y-104347752D01*
X130960761Y-104395371D01*
X131008380Y-104490609D01*
X131008380Y-104681085D01*
X130960761Y-104776323D01*
X130913142Y-104823942D01*
X130817904Y-104871561D01*
X130627428Y-104871561D01*
X130532190Y-104823942D01*
X130484571Y-104776323D01*
X130436952Y-104681085D01*
X130008380Y-105728704D02*
X130008380Y-105538228D01*
X130056000Y-105442990D01*
X130103619Y-105395371D01*
X130246476Y-105300133D01*
X130436952Y-105252514D01*
X130817904Y-105252514D01*
X130913142Y-105300133D01*
X130960761Y-105347752D01*
X131008380Y-105442990D01*
X131008380Y-105633466D01*
X130960761Y-105728704D01*
X130913142Y-105776323D01*
X130817904Y-105823942D01*
X130579809Y-105823942D01*
X130484571Y-105776323D01*
X130436952Y-105728704D01*
X130389333Y-105633466D01*
X130389333Y-105442990D01*
X130436952Y-105347752D01*
X130484571Y-105300133D01*
X130579809Y-105252514D01*
X130008380Y-106681085D02*
X130008380Y-106490609D01*
X130056000Y-106395371D01*
X130103619Y-106347752D01*
X130246476Y-106252514D01*
X130436952Y-106204895D01*
X130817904Y-106204895D01*
X130913142Y-106252514D01*
X130960761Y-106300133D01*
X131008380Y-106395371D01*
X131008380Y-106585847D01*
X130960761Y-106681085D01*
X130913142Y-106728704D01*
X130817904Y-106776323D01*
X130579809Y-106776323D01*
X130484571Y-106728704D01*
X130436952Y-106681085D01*
X130389333Y-106585847D01*
X130389333Y-106395371D01*
X130436952Y-106300133D01*
X130484571Y-106252514D01*
X130579809Y-106204895D01*
X131008380Y-108395371D02*
X130484571Y-108395371D01*
X130389333Y-108347752D01*
X130341714Y-108252514D01*
X130341714Y-108062038D01*
X130389333Y-107966800D01*
X130960761Y-108395371D02*
X131008380Y-108300133D01*
X131008380Y-108062038D01*
X130960761Y-107966800D01*
X130865523Y-107919180D01*
X130770285Y-107919180D01*
X130675047Y-107966800D01*
X130627428Y-108062038D01*
X130627428Y-108300133D01*
X130579809Y-108395371D01*
X131008380Y-109300133D02*
X130008380Y-109300133D01*
X130960761Y-109300133D02*
X131008380Y-109204895D01*
X131008380Y-109014419D01*
X130960761Y-108919180D01*
X130913142Y-108871561D01*
X130817904Y-108823942D01*
X130532190Y-108823942D01*
X130436952Y-108871561D01*
X130389333Y-108919180D01*
X130341714Y-109014419D01*
X130341714Y-109204895D01*
X130389333Y-109300133D01*
X131008380Y-110204895D02*
X130484571Y-110204895D01*
X130389333Y-110157276D01*
X130341714Y-110062038D01*
X130341714Y-109871561D01*
X130389333Y-109776323D01*
X130960761Y-110204895D02*
X131008380Y-110109657D01*
X131008380Y-109871561D01*
X130960761Y-109776323D01*
X130865523Y-109728704D01*
X130770285Y-109728704D01*
X130675047Y-109776323D01*
X130627428Y-109871561D01*
X130627428Y-110109657D01*
X130579809Y-110204895D01*
X130341714Y-110681085D02*
X131341714Y-110681085D01*
X130389333Y-110681085D02*
X130341714Y-110776323D01*
X130341714Y-110966800D01*
X130389333Y-111062038D01*
X130436952Y-111109657D01*
X130532190Y-111157276D01*
X130817904Y-111157276D01*
X130913142Y-111109657D01*
X130960761Y-111062038D01*
X131008380Y-110966800D01*
X131008380Y-110776323D01*
X130960761Y-110681085D01*
X130341714Y-111442990D02*
X130341714Y-111823942D01*
X130008380Y-111585847D02*
X130865523Y-111585847D01*
X130960761Y-111633466D01*
X131008380Y-111728704D01*
X131008380Y-111823942D01*
X130960761Y-112538228D02*
X131008380Y-112442990D01*
X131008380Y-112252514D01*
X130960761Y-112157276D01*
X130865523Y-112109657D01*
X130484571Y-112109657D01*
X130389333Y-112157276D01*
X130341714Y-112252514D01*
X130341714Y-112442990D01*
X130389333Y-112538228D01*
X130484571Y-112585847D01*
X130579809Y-112585847D01*
X130675047Y-112109657D01*
X131008380Y-113014419D02*
X130341714Y-113014419D01*
X130532190Y-113014419D02*
X130436952Y-113062038D01*
X130389333Y-113109657D01*
X130341714Y-113204895D01*
X130341714Y-113300133D01*
X130341714Y-114300133D02*
X131008380Y-114538228D01*
X130341714Y-114776323D01*
X130008380Y-115062038D02*
X130008380Y-115681085D01*
X130389333Y-115347752D01*
X130389333Y-115490609D01*
X130436952Y-115585847D01*
X130484571Y-115633466D01*
X130579809Y-115681085D01*
X130817904Y-115681085D01*
X130913142Y-115633466D01*
X130960761Y-115585847D01*
X131008380Y-115490609D01*
X131008380Y-115204895D01*
X130960761Y-115109657D01*
X130913142Y-115062038D01*
D11*
X142425125Y-113741200D02*
G75*
G03*
X142425125Y-113741200I-253773J0D01*
G01*
D12*
X140763871Y-115900200D02*
G75*
G03*
X140763871Y-115900200I-174871J0D01*
G01*
D13*
X137984136Y-115087400D02*
G75*
G03*
X137984136Y-115087400I-333984J0D01*
G01*
D10*
G36*
X141210813Y-114944512D02*
G01*
X136207013Y-92414712D01*
X137146813Y-92135312D01*
X141210813Y-114944512D01*
G37*
X141210813Y-114944512D02*
X136207013Y-92414712D01*
X137146813Y-92135312D01*
X141210813Y-114944512D01*
D14*
X138962800Y-114249200D02*
G75*
G03*
X138962800Y-114249200I-228000J0D01*
G01*
D10*
G36*
X140638317Y-93885426D02*
G01*
X139957956Y-114141507D01*
X139952517Y-93783826D01*
X140638317Y-93885426D01*
G37*
X140638317Y-93885426D02*
X139957956Y-114141507D01*
X139952517Y-93783826D01*
X140638317Y-93885426D01*
D15*
X139785375Y-115493800D02*
G75*
G03*
X139785375Y-115493800I-339375J0D01*
G01*
D16*
X138872534Y-113080800D02*
G75*
G03*
X138872534Y-113080800I-213934J0D01*
G01*
D17*
X142265223Y-115747800D02*
G75*
G03*
X142265223Y-115747800I-228423J0D01*
G01*
D10*
X146222980Y-102272895D02*
X145556314Y-102272895D01*
X145651552Y-102272895D02*
X145603933Y-102320514D01*
X145556314Y-102415752D01*
X145556314Y-102558609D01*
X145603933Y-102653847D01*
X145699171Y-102701466D01*
X146222980Y-102701466D01*
X145699171Y-102701466D02*
X145603933Y-102749085D01*
X145556314Y-102844323D01*
X145556314Y-102987180D01*
X145603933Y-103082419D01*
X145699171Y-103130038D01*
X146222980Y-103130038D01*
X146222980Y-104034800D02*
X145699171Y-104034800D01*
X145603933Y-103987180D01*
X145556314Y-103891942D01*
X145556314Y-103701466D01*
X145603933Y-103606228D01*
X146175361Y-104034800D02*
X146222980Y-103939561D01*
X146222980Y-103701466D01*
X146175361Y-103606228D01*
X146080123Y-103558609D01*
X145984885Y-103558609D01*
X145889647Y-103606228D01*
X145842028Y-103701466D01*
X145842028Y-103939561D01*
X145794409Y-104034800D01*
X145556314Y-104368133D02*
X145556314Y-104749085D01*
X145222980Y-104510990D02*
X146080123Y-104510990D01*
X146175361Y-104558609D01*
X146222980Y-104653847D01*
X146222980Y-104749085D01*
X146175361Y-105463371D02*
X146222980Y-105368133D01*
X146222980Y-105177657D01*
X146175361Y-105082419D01*
X146080123Y-105034800D01*
X145699171Y-105034800D01*
X145603933Y-105082419D01*
X145556314Y-105177657D01*
X145556314Y-105368133D01*
X145603933Y-105463371D01*
X145699171Y-105510990D01*
X145794409Y-105510990D01*
X145889647Y-105034800D01*
X146222980Y-105939561D02*
X145556314Y-105939561D01*
X145222980Y-105939561D02*
X145270600Y-105891942D01*
X145318219Y-105939561D01*
X145270600Y-105987180D01*
X145222980Y-105939561D01*
X145318219Y-105939561D01*
X145556314Y-106415752D02*
X146413457Y-106415752D01*
X146508695Y-106368133D01*
X146556314Y-106272895D01*
X146556314Y-106225276D01*
X145222980Y-106415752D02*
X145270600Y-106368133D01*
X145318219Y-106415752D01*
X145270600Y-106463371D01*
X145222980Y-106415752D01*
X145318219Y-106415752D01*
X146222980Y-107034800D02*
X146175361Y-106939561D01*
X146127742Y-106891942D01*
X146032504Y-106844323D01*
X145746790Y-106844323D01*
X145651552Y-106891942D01*
X145603933Y-106939561D01*
X145556314Y-107034800D01*
X145556314Y-107177657D01*
X145603933Y-107272895D01*
X145651552Y-107320514D01*
X145746790Y-107368133D01*
X146032504Y-107368133D01*
X146127742Y-107320514D01*
X146175361Y-107272895D01*
X146222980Y-107177657D01*
X146222980Y-107034800D01*
X146222980Y-107796704D02*
X145556314Y-107796704D01*
X145746790Y-107796704D02*
X145651552Y-107844323D01*
X145603933Y-107891942D01*
X145556314Y-107987180D01*
X145556314Y-108082419D01*
X146222980Y-108844323D02*
X145222980Y-108844323D01*
X146175361Y-108844323D02*
X146222980Y-108749085D01*
X146222980Y-108558609D01*
X146175361Y-108463371D01*
X146127742Y-108415752D01*
X146032504Y-108368133D01*
X145746790Y-108368133D01*
X145651552Y-108415752D01*
X145603933Y-108463371D01*
X145556314Y-108558609D01*
X145556314Y-108749085D01*
X145603933Y-108844323D01*
X146222980Y-109749085D02*
X145699171Y-109749085D01*
X145603933Y-109701466D01*
X145556314Y-109606228D01*
X145556314Y-109415752D01*
X145603933Y-109320514D01*
X146175361Y-109749085D02*
X146222980Y-109653847D01*
X146222980Y-109415752D01*
X146175361Y-109320514D01*
X146080123Y-109272895D01*
X145984885Y-109272895D01*
X145889647Y-109320514D01*
X145842028Y-109415752D01*
X145842028Y-109653847D01*
X145794409Y-109749085D01*
X146175361Y-110653847D02*
X146222980Y-110558609D01*
X146222980Y-110368133D01*
X146175361Y-110272895D01*
X146127742Y-110225276D01*
X146032504Y-110177657D01*
X145746790Y-110177657D01*
X145651552Y-110225276D01*
X145603933Y-110272895D01*
X145556314Y-110368133D01*
X145556314Y-110558609D01*
X145603933Y-110653847D01*
X146222980Y-111082419D02*
X145222980Y-111082419D01*
X146222980Y-111510990D02*
X145699171Y-111510990D01*
X145603933Y-111463371D01*
X145556314Y-111368133D01*
X145556314Y-111225276D01*
X145603933Y-111130038D01*
X145651552Y-111082419D01*
X146175361Y-112368133D02*
X146222980Y-112272895D01*
X146222980Y-112082419D01*
X146175361Y-111987180D01*
X146080123Y-111939561D01*
X145699171Y-111939561D01*
X145603933Y-111987180D01*
X145556314Y-112082419D01*
X145556314Y-112272895D01*
X145603933Y-112368133D01*
X145699171Y-112415752D01*
X145794409Y-112415752D01*
X145889647Y-111939561D01*
X146127742Y-112844323D02*
X146175361Y-112891942D01*
X146222980Y-112844323D01*
X146175361Y-112796704D01*
X146127742Y-112844323D01*
X146222980Y-112844323D01*
X146222980Y-113320514D02*
X145556314Y-113320514D01*
X145222980Y-113320514D02*
X145270600Y-113272895D01*
X145318219Y-113320514D01*
X145270600Y-113368133D01*
X145222980Y-113320514D01*
X145318219Y-113320514D01*
X145556314Y-113796704D02*
X146222980Y-113796704D01*
X145651552Y-113796704D02*
X145603933Y-113844323D01*
X145556314Y-113939561D01*
X145556314Y-114082419D01*
X145603933Y-114177657D01*
X145699171Y-114225276D01*
X146222980Y-114225276D01*
X145556314Y-114558609D02*
X145556314Y-114939561D01*
X146222980Y-114701466D02*
X145365838Y-114701466D01*
X145270600Y-114749085D01*
X145222980Y-114844323D01*
X145222980Y-114939561D01*
X146222980Y-115415752D02*
X146175361Y-115320514D01*
X146127742Y-115272895D01*
X146032504Y-115225276D01*
X145746790Y-115225276D01*
X145651552Y-115272895D01*
X145603933Y-115320514D01*
X145556314Y-115415752D01*
X145556314Y-115558609D01*
X145603933Y-115653847D01*
X145651552Y-115701466D01*
X145746790Y-115749085D01*
X146032504Y-115749085D01*
X146127742Y-115701466D01*
X146175361Y-115653847D01*
X146222980Y-115558609D01*
X146222980Y-115415752D01*
D18*
%TO.C,SW2*%
X135610400Y-54869500D03*
D19*
X135610400Y-57369500D03*
X135610400Y-59869500D03*
X132410400Y-54869500D03*
X132410400Y-57369500D03*
X132410400Y-59869500D03*
%TD*%
D18*
%TO.C,J1*%
X132435600Y-64185800D03*
D20*
X132435600Y-66725800D03*
X132435600Y-69265800D03*
X132435600Y-71805800D03*
X132435600Y-74345800D03*
X132435600Y-76885800D03*
X132435600Y-79425800D03*
X132435600Y-81965800D03*
X132435600Y-84505800D03*
X132435600Y-87045800D03*
X132435600Y-89585800D03*
X132435600Y-92125800D03*
X132435600Y-94665800D03*
X132435600Y-97205800D03*
X132435600Y-99745800D03*
X132435600Y-102285800D03*
X132435600Y-104825800D03*
X132435600Y-107365800D03*
X132435600Y-109905800D03*
X132435600Y-112445800D03*
X132435600Y-114985800D03*
X147675600Y-114985800D03*
X147675600Y-112445800D03*
X147675600Y-109905800D03*
X147675600Y-107365800D03*
X147675600Y-104825800D03*
X147675600Y-102285800D03*
X147675600Y-99745800D03*
X147675600Y-97205800D03*
X147675600Y-94665800D03*
X147675600Y-92125800D03*
X147675600Y-89585800D03*
X147675600Y-87045800D03*
X147675600Y-84505800D03*
X147675600Y-81965800D03*
X147675600Y-79425800D03*
X147675600Y-76885800D03*
X147675600Y-74345800D03*
X147675600Y-71805800D03*
X147675600Y-69265800D03*
X147675600Y-66725800D03*
X147675600Y-64185800D03*
%TD*%
D18*
%TO.C,J2*%
X128569800Y-66705400D03*
D20*
X128569800Y-69245400D03*
X128569800Y-71785400D03*
X128569800Y-74325400D03*
X128569800Y-76865400D03*
X128569800Y-79405400D03*
X128569800Y-81945400D03*
X128569800Y-84485400D03*
X128569800Y-87025400D03*
X128569800Y-89565400D03*
X128569800Y-92105400D03*
X128569800Y-94645400D03*
X128569800Y-97185400D03*
X128569800Y-99725400D03*
X128569800Y-102265400D03*
X128569800Y-104805400D03*
X128569800Y-107345400D03*
X128569800Y-109885400D03*
X128569800Y-112425400D03*
X128569800Y-114965400D03*
X143809800Y-114965400D03*
X143809800Y-112425400D03*
X143809800Y-109885400D03*
X143809800Y-107345400D03*
X143809800Y-104805400D03*
X143809800Y-102265400D03*
X143809800Y-99725400D03*
X143809800Y-97185400D03*
X143809800Y-94645400D03*
X143809800Y-92105400D03*
X143809800Y-89565400D03*
X143809800Y-87025400D03*
X143809800Y-84485400D03*
X143809800Y-81945400D03*
X143809800Y-79405400D03*
X143809800Y-76865400D03*
X143809800Y-74325400D03*
X143809800Y-71785400D03*
X143809800Y-69245400D03*
X143809800Y-66705400D03*
%TD*%
D21*
%TO.C,R4*%
X145821400Y-61694700D03*
X145821400Y-59869700D03*
%TD*%
%TO.C,R5*%
X147853400Y-61694700D03*
X147853400Y-59869700D03*
%TD*%
D22*
%TO.C,R1*%
X139725400Y-59869700D03*
X139725400Y-61694700D03*
%TD*%
D21*
%TO.C,R2*%
X141757400Y-61694700D03*
X141757400Y-59869700D03*
%TD*%
%TO.C,R3*%
X143789400Y-61694700D03*
X143789400Y-59869700D03*
%TD*%
D23*
%TO.C,Q1*%
X138279900Y-55534600D03*
X138279900Y-53634600D03*
X140154900Y-54584600D03*
%TD*%
D22*
%TO.C,C1*%
X137668000Y-59869700D03*
X137668000Y-61694700D03*
%TD*%
M02*
