%FSLAX45Y45*%
G04 Gerber Fmt 4.5, Leading zero omitted, Abs format (unit mm)*
G04 Created by KiCad (PCBNEW (6.0.6-1)-1) date 2022-07-19 12:23:55*
%MOMM*%
%LPD*%
G01*
G04 APERTURE LIST*
%ADD10C,0.200000*%
G04 APERTURE END LIST*
D10*
X12976469Y-12030126D02*
X12976469Y-11830126D01*
X13024088Y-11830126D01*
X13052659Y-11839650D01*
X13071707Y-11858698D01*
X13081231Y-11877745D01*
X13090755Y-11915840D01*
X13090755Y-11944412D01*
X13081231Y-11982507D01*
X13071707Y-12001555D01*
X13052659Y-12020602D01*
X13024088Y-12030126D01*
X12976469Y-12030126D01*
X13176469Y-12030126D02*
X13176469Y-11896793D01*
X13176469Y-11934888D02*
X13185993Y-11915840D01*
X13195517Y-11906317D01*
X13214564Y-11896793D01*
X13233612Y-11896793D01*
X13300278Y-12030126D02*
X13300278Y-11896793D01*
X13300278Y-11830126D02*
X13290755Y-11839650D01*
X13300278Y-11849174D01*
X13309802Y-11839650D01*
X13300278Y-11830126D01*
X13300278Y-11849174D01*
X13424088Y-12030126D02*
X13405040Y-12020602D01*
X13395517Y-12001555D01*
X13395517Y-11830126D01*
X13528850Y-12030126D02*
X13509802Y-12020602D01*
X13500278Y-12001555D01*
X13500278Y-11830126D01*
X13757421Y-12030126D02*
X13757421Y-11830126D01*
X13824088Y-11972983D01*
X13890755Y-11830126D01*
X13890755Y-12030126D01*
X14071707Y-12030126D02*
X14071707Y-11925364D01*
X14062183Y-11906317D01*
X14043136Y-11896793D01*
X14005040Y-11896793D01*
X13985993Y-11906317D01*
X14071707Y-12020602D02*
X14052659Y-12030126D01*
X14005040Y-12030126D01*
X13985993Y-12020602D01*
X13976469Y-12001555D01*
X13976469Y-11982507D01*
X13985993Y-11963459D01*
X14005040Y-11953936D01*
X14052659Y-11953936D01*
X14071707Y-11944412D01*
X14166945Y-11896793D02*
X14166945Y-12096793D01*
X14166945Y-11906317D02*
X14185993Y-11896793D01*
X14224088Y-11896793D01*
X14243136Y-11906317D01*
X14252659Y-11915840D01*
X14262183Y-11934888D01*
X14262183Y-11992031D01*
X14252659Y-12011078D01*
X14243136Y-12020602D01*
X14224088Y-12030126D01*
X14185993Y-12030126D01*
X14166945Y-12020602D01*
X14347898Y-12011078D02*
X14357421Y-12020602D01*
X14347898Y-12030126D01*
X14338374Y-12020602D01*
X14347898Y-12011078D01*
X14347898Y-12030126D01*
X14347898Y-11906317D02*
X14357421Y-11915840D01*
X14347898Y-11925364D01*
X14338374Y-11915840D01*
X14347898Y-11906317D01*
X14347898Y-11925364D01*
M02*
