M48
; DRILL file {KiCad (6.0.6-1)-1} date Monday, August 08, 2022 at 01:27:29 AM
; FORMAT={-:-/ absolute / inch / decimal}
; #@! TF.CreationDate,2022-08-08T01:27:29-04:00
; #@! TF.GenerationSoftware,Kicad,Pcbnew,(6.0.6-1)-1
; #@! TF.FileFunction,Plated,1,2,PTH
FMAT,2
INCH
; #@! TA.AperFunction,Plated,PTH,ViaDrill
T1C0.0157
; #@! TA.AperFunction,Plated,PTH,ComponentDrill
T2C0.0315
%
G90
G05
T1
X5.27Y-4.575
X5.2985Y-2.525
X5.3Y-2.575
X5.3Y-4.53
X5.305Y-2.73
X5.305Y-3.08
X5.305Y-3.13
X5.305Y-3.18
X5.3162Y-3.225
X5.3162Y-3.425
X5.32Y-3.325
X5.3335Y-2.98
X5.335Y-4.425
X5.345Y-4.525
X5.3517Y-4.325
X5.355Y-4.37
X5.3555Y-2.55
X5.385Y-4.235
X5.385Y-4.28
X5.3985Y-2.775
X5.4Y-2.875
X5.4048Y-4.14
X5.4048Y-3.7998
X5.4048Y-4.025
X5.4112Y-3.2546
X5.4162Y-3.025
X5.42Y-2.51
X5.42Y-4.18
X5.4304Y-2.9254
X5.435Y-2.55
X5.4402Y-3.8502
X5.4403Y-3.67
X5.4403Y-3.725
X5.4485Y-3.95
X5.4757Y-3.54
X5.4815Y-3.17
X5.5Y-2.735
X5.501Y-2.4289
X5.505Y-2.5985
X5.5183Y-3.54
X5.525Y-4.1035
X5.555Y-4.13
X5.558Y-4.03
X5.56Y-2.765
X5.5815Y-3.925
X5.585Y-4.375
X5.5865Y-4.18
X5.59Y-3.98
X5.61Y-3.875
X5.62Y-2.31
X5.62Y-4.075
X5.63Y-3.975
X5.71Y-3.675
X5.72Y-2.71
X5.74Y-2.43
X5.753Y-2.3341
X5.76Y-2.71
X5.8255Y-2.3579
T2
X5.0618Y-2.6262
X5.0618Y-2.7262
X5.0618Y-2.8262
X5.0618Y-2.9262
X5.0618Y-3.0262
X5.0618Y-3.1262
X5.0618Y-3.2262
X5.0618Y-3.3262
X5.0618Y-3.4262
X5.0618Y-3.5262
X5.0618Y-3.6262
X5.0618Y-3.7262
X5.0618Y-3.8262
X5.0618Y-3.9262
X5.0618Y-4.0262
X5.0618Y-4.1262
X5.0618Y-4.2262
X5.0618Y-4.3262
X5.0618Y-4.4262
X5.0618Y-4.5262
X5.213Y-2.1602
X5.213Y-2.2586
X5.213Y-2.3571
X5.214Y-2.527
X5.214Y-2.627
X5.214Y-2.727
X5.214Y-2.827
X5.214Y-2.927
X5.214Y-3.027
X5.214Y-3.127
X5.214Y-3.227
X5.214Y-3.327
X5.214Y-3.427
X5.214Y-3.527
X5.214Y-3.627
X5.214Y-3.727
X5.214Y-3.827
X5.214Y-3.927
X5.214Y-4.027
X5.214Y-4.127
X5.214Y-4.227
X5.214Y-4.327
X5.214Y-4.427
X5.214Y-4.527
X5.339Y-2.1602
X5.339Y-2.2586
X5.339Y-2.3571
X5.6618Y-2.6262
X5.6618Y-2.7262
X5.6618Y-2.8262
X5.6618Y-2.9262
X5.6618Y-3.0262
X5.6618Y-3.1262
X5.6618Y-3.2262
X5.6618Y-3.3262
X5.6618Y-3.4262
X5.6618Y-3.5262
X5.6618Y-3.6262
X5.6618Y-3.7262
X5.6618Y-3.8262
X5.6618Y-3.9262
X5.6618Y-4.0262
X5.6618Y-4.1262
X5.6618Y-4.2262
X5.6618Y-4.3262
X5.6618Y-4.4262
X5.6618Y-4.5262
X5.814Y-2.527
X5.814Y-2.627
X5.814Y-2.727
X5.814Y-2.827
X5.814Y-2.927
X5.814Y-3.027
X5.814Y-3.127
X5.814Y-3.227
X5.814Y-3.327
X5.814Y-3.427
X5.814Y-3.527
X5.814Y-3.627
X5.814Y-3.727
X5.814Y-3.827
X5.814Y-3.927
X5.814Y-4.027
X5.814Y-4.127
X5.814Y-4.227
X5.814Y-4.327
X5.814Y-4.427
X5.814Y-4.527
T0
M30
