%TF.GenerationSoftware,KiCad,Pcbnew,(6.0.6-1)-1*%
%TF.CreationDate,2022-08-08T01:27:23-04:00*%
%TF.ProjectId,tl866_27c322_adapter,746c3836-365f-4323-9763-3332325f6164,rev?*%
%TF.SameCoordinates,Original*%
%TF.FileFunction,Legend,Bot*%
%TF.FilePolarity,Positive*%
%FSLAX46Y46*%
G04 Gerber Fmt 4.6, Leading zero omitted, Abs format (unit mm)*
G04 Created by KiCad (PCBNEW (6.0.6-1)-1) date 2022-08-08 01:27:23*
%MOMM*%
%LPD*%
G01*
G04 APERTURE LIST*
%ADD10C,0.200000*%
%ADD11C,0.100000*%
%ADD12C,0.150000*%
%ADD13C,0.120000*%
G04 APERTURE END LIST*
D10*
X146222980Y-102272895D02*
X145556314Y-102272895D01*
X145651552Y-102272895D02*
X145603933Y-102320514D01*
X145556314Y-102415752D01*
X145556314Y-102558609D01*
X145603933Y-102653847D01*
X145699171Y-102701466D01*
X146222980Y-102701466D01*
X145699171Y-102701466D02*
X145603933Y-102749085D01*
X145556314Y-102844323D01*
X145556314Y-102987180D01*
X145603933Y-103082419D01*
X145699171Y-103130038D01*
X146222980Y-103130038D01*
X146222980Y-104034800D02*
X145699171Y-104034800D01*
X145603933Y-103987180D01*
X145556314Y-103891942D01*
X145556314Y-103701466D01*
X145603933Y-103606228D01*
X146175361Y-104034800D02*
X146222980Y-103939561D01*
X146222980Y-103701466D01*
X146175361Y-103606228D01*
X146080123Y-103558609D01*
X145984885Y-103558609D01*
X145889647Y-103606228D01*
X145842028Y-103701466D01*
X145842028Y-103939561D01*
X145794409Y-104034800D01*
X145556314Y-104368133D02*
X145556314Y-104749085D01*
X145222980Y-104510990D02*
X146080123Y-104510990D01*
X146175361Y-104558609D01*
X146222980Y-104653847D01*
X146222980Y-104749085D01*
X146175361Y-105463371D02*
X146222980Y-105368133D01*
X146222980Y-105177657D01*
X146175361Y-105082419D01*
X146080123Y-105034800D01*
X145699171Y-105034800D01*
X145603933Y-105082419D01*
X145556314Y-105177657D01*
X145556314Y-105368133D01*
X145603933Y-105463371D01*
X145699171Y-105510990D01*
X145794409Y-105510990D01*
X145889647Y-105034800D01*
X146222980Y-105939561D02*
X145556314Y-105939561D01*
X145222980Y-105939561D02*
X145270600Y-105891942D01*
X145318219Y-105939561D01*
X145270600Y-105987180D01*
X145222980Y-105939561D01*
X145318219Y-105939561D01*
X145556314Y-106415752D02*
X146413457Y-106415752D01*
X146508695Y-106368133D01*
X146556314Y-106272895D01*
X146556314Y-106225276D01*
X145222980Y-106415752D02*
X145270600Y-106368133D01*
X145318219Y-106415752D01*
X145270600Y-106463371D01*
X145222980Y-106415752D01*
X145318219Y-106415752D01*
X146222980Y-107034800D02*
X146175361Y-106939561D01*
X146127742Y-106891942D01*
X146032504Y-106844323D01*
X145746790Y-106844323D01*
X145651552Y-106891942D01*
X145603933Y-106939561D01*
X145556314Y-107034800D01*
X145556314Y-107177657D01*
X145603933Y-107272895D01*
X145651552Y-107320514D01*
X145746790Y-107368133D01*
X146032504Y-107368133D01*
X146127742Y-107320514D01*
X146175361Y-107272895D01*
X146222980Y-107177657D01*
X146222980Y-107034800D01*
X146222980Y-107796704D02*
X145556314Y-107796704D01*
X145746790Y-107796704D02*
X145651552Y-107844323D01*
X145603933Y-107891942D01*
X145556314Y-107987180D01*
X145556314Y-108082419D01*
X146222980Y-108844323D02*
X145222980Y-108844323D01*
X146175361Y-108844323D02*
X146222980Y-108749085D01*
X146222980Y-108558609D01*
X146175361Y-108463371D01*
X146127742Y-108415752D01*
X146032504Y-108368133D01*
X145746790Y-108368133D01*
X145651552Y-108415752D01*
X145603933Y-108463371D01*
X145556314Y-108558609D01*
X145556314Y-108749085D01*
X145603933Y-108844323D01*
X146222980Y-109749085D02*
X145699171Y-109749085D01*
X145603933Y-109701466D01*
X145556314Y-109606228D01*
X145556314Y-109415752D01*
X145603933Y-109320514D01*
X146175361Y-109749085D02*
X146222980Y-109653847D01*
X146222980Y-109415752D01*
X146175361Y-109320514D01*
X146080123Y-109272895D01*
X145984885Y-109272895D01*
X145889647Y-109320514D01*
X145842028Y-109415752D01*
X145842028Y-109653847D01*
X145794409Y-109749085D01*
X146175361Y-110653847D02*
X146222980Y-110558609D01*
X146222980Y-110368133D01*
X146175361Y-110272895D01*
X146127742Y-110225276D01*
X146032504Y-110177657D01*
X145746790Y-110177657D01*
X145651552Y-110225276D01*
X145603933Y-110272895D01*
X145556314Y-110368133D01*
X145556314Y-110558609D01*
X145603933Y-110653847D01*
X146222980Y-111082419D02*
X145222980Y-111082419D01*
X146222980Y-111510990D02*
X145699171Y-111510990D01*
X145603933Y-111463371D01*
X145556314Y-111368133D01*
X145556314Y-111225276D01*
X145603933Y-111130038D01*
X145651552Y-111082419D01*
X146175361Y-112368133D02*
X146222980Y-112272895D01*
X146222980Y-112082419D01*
X146175361Y-111987180D01*
X146080123Y-111939561D01*
X145699171Y-111939561D01*
X145603933Y-111987180D01*
X145556314Y-112082419D01*
X145556314Y-112272895D01*
X145603933Y-112368133D01*
X145699171Y-112415752D01*
X145794409Y-112415752D01*
X145889647Y-111939561D01*
X146127742Y-112844323D02*
X146175361Y-112891942D01*
X146222980Y-112844323D01*
X146175361Y-112796704D01*
X146127742Y-112844323D01*
X146222980Y-112844323D01*
X146222980Y-113320514D02*
X145556314Y-113320514D01*
X145222980Y-113320514D02*
X145270600Y-113272895D01*
X145318219Y-113320514D01*
X145270600Y-113368133D01*
X145222980Y-113320514D01*
X145318219Y-113320514D01*
X145556314Y-113796704D02*
X146222980Y-113796704D01*
X145651552Y-113796704D02*
X145603933Y-113844323D01*
X145556314Y-113939561D01*
X145556314Y-114082419D01*
X145603933Y-114177657D01*
X145699171Y-114225276D01*
X146222980Y-114225276D01*
X145556314Y-114558609D02*
X145556314Y-114939561D01*
X146222980Y-114701466D02*
X145365838Y-114701466D01*
X145270600Y-114749085D01*
X145222980Y-114844323D01*
X145222980Y-114939561D01*
X146222980Y-115415752D02*
X146175361Y-115320514D01*
X146127742Y-115272895D01*
X146032504Y-115225276D01*
X145746790Y-115225276D01*
X145651552Y-115272895D01*
X145603933Y-115320514D01*
X145556314Y-115415752D01*
X145556314Y-115558609D01*
X145603933Y-115653847D01*
X145651552Y-115701466D01*
X145746790Y-115749085D01*
X146032504Y-115749085D01*
X146127742Y-115701466D01*
X146175361Y-115653847D01*
X146222980Y-115558609D01*
X146222980Y-115415752D01*
X130103619Y-66157276D02*
X130056000Y-66204895D01*
X130008380Y-66300133D01*
X130008380Y-66538228D01*
X130056000Y-66633466D01*
X130103619Y-66681085D01*
X130198857Y-66728704D01*
X130294095Y-66728704D01*
X130436952Y-66681085D01*
X131008380Y-66109657D01*
X131008380Y-66728704D01*
X130008380Y-67062038D02*
X130008380Y-67728704D01*
X131008380Y-67300133D01*
X130913142Y-68681085D02*
X130960761Y-68633466D01*
X131008380Y-68490609D01*
X131008380Y-68395371D01*
X130960761Y-68252514D01*
X130865523Y-68157276D01*
X130770285Y-68109657D01*
X130579809Y-68062038D01*
X130436952Y-68062038D01*
X130246476Y-68109657D01*
X130151238Y-68157276D01*
X130056000Y-68252514D01*
X130008380Y-68395371D01*
X130008380Y-68490609D01*
X130056000Y-68633466D01*
X130103619Y-68681085D01*
X131008380Y-69633466D02*
X131008380Y-69062038D01*
X131008380Y-69347752D02*
X130008380Y-69347752D01*
X130151238Y-69252514D01*
X130246476Y-69157276D01*
X130294095Y-69062038D01*
X130008380Y-70490609D02*
X130008380Y-70300133D01*
X130056000Y-70204895D01*
X130103619Y-70157276D01*
X130246476Y-70062038D01*
X130436952Y-70014419D01*
X130817904Y-70014419D01*
X130913142Y-70062038D01*
X130960761Y-70109657D01*
X131008380Y-70204895D01*
X131008380Y-70395371D01*
X130960761Y-70490609D01*
X130913142Y-70538228D01*
X130817904Y-70585847D01*
X130579809Y-70585847D01*
X130484571Y-70538228D01*
X130436952Y-70490609D01*
X130389333Y-70395371D01*
X130389333Y-70204895D01*
X130436952Y-70109657D01*
X130484571Y-70062038D01*
X130579809Y-70014419D01*
X130008380Y-71204895D02*
X130008380Y-71300133D01*
X130056000Y-71395371D01*
X130103619Y-71442990D01*
X130198857Y-71490609D01*
X130389333Y-71538228D01*
X130627428Y-71538228D01*
X130817904Y-71490609D01*
X130913142Y-71442990D01*
X130960761Y-71395371D01*
X131008380Y-71300133D01*
X131008380Y-71204895D01*
X130960761Y-71109657D01*
X130913142Y-71062038D01*
X130817904Y-71014419D01*
X130627428Y-70966800D01*
X130389333Y-70966800D01*
X130198857Y-71014419D01*
X130103619Y-71062038D01*
X130056000Y-71109657D01*
X130008380Y-71204895D01*
X129960761Y-72681085D02*
X131246476Y-71823942D01*
X130008380Y-72919180D02*
X130008380Y-73538228D01*
X130389333Y-73204895D01*
X130389333Y-73347752D01*
X130436952Y-73442990D01*
X130484571Y-73490609D01*
X130579809Y-73538228D01*
X130817904Y-73538228D01*
X130913142Y-73490609D01*
X130960761Y-73442990D01*
X131008380Y-73347752D01*
X131008380Y-73062038D01*
X130960761Y-72966800D01*
X130913142Y-72919180D01*
X130103619Y-73919180D02*
X130056000Y-73966800D01*
X130008380Y-74062038D01*
X130008380Y-74300133D01*
X130056000Y-74395371D01*
X130103619Y-74442990D01*
X130198857Y-74490609D01*
X130294095Y-74490609D01*
X130436952Y-74442990D01*
X131008380Y-73871561D01*
X131008380Y-74490609D01*
X130103619Y-74871561D02*
X130056000Y-74919180D01*
X130008380Y-75014419D01*
X130008380Y-75252514D01*
X130056000Y-75347752D01*
X130103619Y-75395371D01*
X130198857Y-75442990D01*
X130294095Y-75442990D01*
X130436952Y-75395371D01*
X131008380Y-74823942D01*
X131008380Y-75442990D01*
X129960761Y-76585847D02*
X131246476Y-75728704D01*
X130341714Y-77347752D02*
X131008380Y-77347752D01*
X129960761Y-77109657D02*
X130675047Y-76871561D01*
X130675047Y-77490609D01*
X130008380Y-78062038D02*
X130008380Y-78157276D01*
X130056000Y-78252514D01*
X130103619Y-78300133D01*
X130198857Y-78347752D01*
X130389333Y-78395371D01*
X130627428Y-78395371D01*
X130817904Y-78347752D01*
X130913142Y-78300133D01*
X130960761Y-78252514D01*
X131008380Y-78157276D01*
X131008380Y-78062038D01*
X130960761Y-77966800D01*
X130913142Y-77919180D01*
X130817904Y-77871561D01*
X130627428Y-77823942D01*
X130389333Y-77823942D01*
X130198857Y-77871561D01*
X130103619Y-77919180D01*
X130056000Y-77966800D01*
X130008380Y-78062038D01*
X130008380Y-79014419D02*
X130008380Y-79109657D01*
X130056000Y-79204895D01*
X130103619Y-79252514D01*
X130198857Y-79300133D01*
X130389333Y-79347752D01*
X130627428Y-79347752D01*
X130817904Y-79300133D01*
X130913142Y-79252514D01*
X130960761Y-79204895D01*
X131008380Y-79109657D01*
X131008380Y-79014419D01*
X130960761Y-78919180D01*
X130913142Y-78871561D01*
X130817904Y-78823942D01*
X130627428Y-78776323D01*
X130389333Y-78776323D01*
X130198857Y-78823942D01*
X130103619Y-78871561D01*
X130056000Y-78919180D01*
X130008380Y-79014419D01*
X129960761Y-80490609D02*
X131246476Y-79633466D01*
X130436952Y-80966800D02*
X130389333Y-80871561D01*
X130341714Y-80823942D01*
X130246476Y-80776323D01*
X130198857Y-80776323D01*
X130103619Y-80823942D01*
X130056000Y-80871561D01*
X130008380Y-80966800D01*
X130008380Y-81157276D01*
X130056000Y-81252514D01*
X130103619Y-81300133D01*
X130198857Y-81347752D01*
X130246476Y-81347752D01*
X130341714Y-81300133D01*
X130389333Y-81252514D01*
X130436952Y-81157276D01*
X130436952Y-80966800D01*
X130484571Y-80871561D01*
X130532190Y-80823942D01*
X130627428Y-80776323D01*
X130817904Y-80776323D01*
X130913142Y-80823942D01*
X130960761Y-80871561D01*
X131008380Y-80966800D01*
X131008380Y-81157276D01*
X130960761Y-81252514D01*
X130913142Y-81300133D01*
X130817904Y-81347752D01*
X130627428Y-81347752D01*
X130532190Y-81300133D01*
X130484571Y-81252514D01*
X130436952Y-81157276D01*
X130008380Y-81966800D02*
X130008380Y-82062038D01*
X130056000Y-82157276D01*
X130103619Y-82204895D01*
X130198857Y-82252514D01*
X130389333Y-82300133D01*
X130627428Y-82300133D01*
X130817904Y-82252514D01*
X130913142Y-82204895D01*
X130960761Y-82157276D01*
X131008380Y-82062038D01*
X131008380Y-81966800D01*
X130960761Y-81871561D01*
X130913142Y-81823942D01*
X130817904Y-81776323D01*
X130627428Y-81728704D01*
X130389333Y-81728704D01*
X130198857Y-81776323D01*
X130103619Y-81823942D01*
X130056000Y-81871561D01*
X130008380Y-81966800D01*
X130008380Y-82919180D02*
X130008380Y-83014419D01*
X130056000Y-83109657D01*
X130103619Y-83157276D01*
X130198857Y-83204895D01*
X130389333Y-83252514D01*
X130627428Y-83252514D01*
X130817904Y-83204895D01*
X130913142Y-83157276D01*
X130960761Y-83109657D01*
X131008380Y-83014419D01*
X131008380Y-82919180D01*
X130960761Y-82823942D01*
X130913142Y-82776323D01*
X130817904Y-82728704D01*
X130627428Y-82681085D01*
X130389333Y-82681085D01*
X130198857Y-82728704D01*
X130103619Y-82776323D01*
X130056000Y-82823942D01*
X130008380Y-82919180D01*
X131008380Y-84871561D02*
X130484571Y-84871561D01*
X130389333Y-84823942D01*
X130341714Y-84728704D01*
X130341714Y-84538228D01*
X130389333Y-84442990D01*
X130960761Y-84871561D02*
X131008380Y-84776323D01*
X131008380Y-84538228D01*
X130960761Y-84442990D01*
X130865523Y-84395371D01*
X130770285Y-84395371D01*
X130675047Y-84442990D01*
X130627428Y-84538228D01*
X130627428Y-84776323D01*
X130579809Y-84871561D01*
X130960761Y-85300133D02*
X131008380Y-85395371D01*
X131008380Y-85585847D01*
X130960761Y-85681085D01*
X130865523Y-85728704D01*
X130817904Y-85728704D01*
X130722666Y-85681085D01*
X130675047Y-85585847D01*
X130675047Y-85442990D01*
X130627428Y-85347752D01*
X130532190Y-85300133D01*
X130484571Y-85300133D01*
X130389333Y-85347752D01*
X130341714Y-85442990D01*
X130341714Y-85585847D01*
X130389333Y-85681085D01*
X130103619Y-86871561D02*
X130056000Y-86919180D01*
X130008380Y-87014419D01*
X130008380Y-87252514D01*
X130056000Y-87347752D01*
X130103619Y-87395371D01*
X130198857Y-87442990D01*
X130294095Y-87442990D01*
X130436952Y-87395371D01*
X131008380Y-86823942D01*
X131008380Y-87442990D01*
X130008380Y-87776323D02*
X130008380Y-88442990D01*
X131008380Y-88014419D01*
X130913142Y-89395371D02*
X130960761Y-89347752D01*
X131008380Y-89204895D01*
X131008380Y-89109657D01*
X130960761Y-88966800D01*
X130865523Y-88871561D01*
X130770285Y-88823942D01*
X130579809Y-88776323D01*
X130436952Y-88776323D01*
X130246476Y-88823942D01*
X130151238Y-88871561D01*
X130056000Y-88966800D01*
X130008380Y-89109657D01*
X130008380Y-89204895D01*
X130056000Y-89347752D01*
X130103619Y-89395371D01*
X130341714Y-90252514D02*
X131008380Y-90252514D01*
X129960761Y-90014419D02*
X130675047Y-89776323D01*
X130675047Y-90395371D01*
X130008380Y-90966800D02*
X130008380Y-91062038D01*
X130056000Y-91157276D01*
X130103619Y-91204895D01*
X130198857Y-91252514D01*
X130389333Y-91300133D01*
X130627428Y-91300133D01*
X130817904Y-91252514D01*
X130913142Y-91204895D01*
X130960761Y-91157276D01*
X131008380Y-91062038D01*
X131008380Y-90966800D01*
X130960761Y-90871561D01*
X130913142Y-90823942D01*
X130817904Y-90776323D01*
X130627428Y-90728704D01*
X130389333Y-90728704D01*
X130198857Y-90776323D01*
X130103619Y-90823942D01*
X130056000Y-90871561D01*
X130008380Y-90966800D01*
X131008380Y-91776323D02*
X131008380Y-91966800D01*
X130960761Y-92062038D01*
X130913142Y-92109657D01*
X130770285Y-92204895D01*
X130579809Y-92252514D01*
X130198857Y-92252514D01*
X130103619Y-92204895D01*
X130056000Y-92157276D01*
X130008380Y-92062038D01*
X130008380Y-91871561D01*
X130056000Y-91776323D01*
X130103619Y-91728704D01*
X130198857Y-91681085D01*
X130436952Y-91681085D01*
X130532190Y-91728704D01*
X130579809Y-91776323D01*
X130627428Y-91871561D01*
X130627428Y-92062038D01*
X130579809Y-92157276D01*
X130532190Y-92204895D01*
X130436952Y-92252514D01*
X130008380Y-93109657D02*
X130008380Y-92919180D01*
X130056000Y-92823942D01*
X130103619Y-92776323D01*
X130246476Y-92681085D01*
X130436952Y-92633466D01*
X130817904Y-92633466D01*
X130913142Y-92681085D01*
X130960761Y-92728704D01*
X131008380Y-92823942D01*
X131008380Y-93014419D01*
X130960761Y-93109657D01*
X130913142Y-93157276D01*
X130817904Y-93204895D01*
X130579809Y-93204895D01*
X130484571Y-93157276D01*
X130436952Y-93109657D01*
X130389333Y-93014419D01*
X130389333Y-92823942D01*
X130436952Y-92728704D01*
X130484571Y-92681085D01*
X130579809Y-92633466D01*
X130008380Y-102633466D02*
X130008380Y-103204895D01*
X131008380Y-102919180D02*
X130008380Y-102919180D01*
X131008380Y-104014419D02*
X131008380Y-103538228D01*
X130008380Y-103538228D01*
X130436952Y-104490609D02*
X130389333Y-104395371D01*
X130341714Y-104347752D01*
X130246476Y-104300133D01*
X130198857Y-104300133D01*
X130103619Y-104347752D01*
X130056000Y-104395371D01*
X130008380Y-104490609D01*
X130008380Y-104681085D01*
X130056000Y-104776323D01*
X130103619Y-104823942D01*
X130198857Y-104871561D01*
X130246476Y-104871561D01*
X130341714Y-104823942D01*
X130389333Y-104776323D01*
X130436952Y-104681085D01*
X130436952Y-104490609D01*
X130484571Y-104395371D01*
X130532190Y-104347752D01*
X130627428Y-104300133D01*
X130817904Y-104300133D01*
X130913142Y-104347752D01*
X130960761Y-104395371D01*
X131008380Y-104490609D01*
X131008380Y-104681085D01*
X130960761Y-104776323D01*
X130913142Y-104823942D01*
X130817904Y-104871561D01*
X130627428Y-104871561D01*
X130532190Y-104823942D01*
X130484571Y-104776323D01*
X130436952Y-104681085D01*
X130008380Y-105728704D02*
X130008380Y-105538228D01*
X130056000Y-105442990D01*
X130103619Y-105395371D01*
X130246476Y-105300133D01*
X130436952Y-105252514D01*
X130817904Y-105252514D01*
X130913142Y-105300133D01*
X130960761Y-105347752D01*
X131008380Y-105442990D01*
X131008380Y-105633466D01*
X130960761Y-105728704D01*
X130913142Y-105776323D01*
X130817904Y-105823942D01*
X130579809Y-105823942D01*
X130484571Y-105776323D01*
X130436952Y-105728704D01*
X130389333Y-105633466D01*
X130389333Y-105442990D01*
X130436952Y-105347752D01*
X130484571Y-105300133D01*
X130579809Y-105252514D01*
X130008380Y-106681085D02*
X130008380Y-106490609D01*
X130056000Y-106395371D01*
X130103619Y-106347752D01*
X130246476Y-106252514D01*
X130436952Y-106204895D01*
X130817904Y-106204895D01*
X130913142Y-106252514D01*
X130960761Y-106300133D01*
X131008380Y-106395371D01*
X131008380Y-106585847D01*
X130960761Y-106681085D01*
X130913142Y-106728704D01*
X130817904Y-106776323D01*
X130579809Y-106776323D01*
X130484571Y-106728704D01*
X130436952Y-106681085D01*
X130389333Y-106585847D01*
X130389333Y-106395371D01*
X130436952Y-106300133D01*
X130484571Y-106252514D01*
X130579809Y-106204895D01*
X131008380Y-108395371D02*
X130484571Y-108395371D01*
X130389333Y-108347752D01*
X130341714Y-108252514D01*
X130341714Y-108062038D01*
X130389333Y-107966800D01*
X130960761Y-108395371D02*
X131008380Y-108300133D01*
X131008380Y-108062038D01*
X130960761Y-107966800D01*
X130865523Y-107919180D01*
X130770285Y-107919180D01*
X130675047Y-107966800D01*
X130627428Y-108062038D01*
X130627428Y-108300133D01*
X130579809Y-108395371D01*
X131008380Y-109300133D02*
X130008380Y-109300133D01*
X130960761Y-109300133D02*
X131008380Y-109204895D01*
X131008380Y-109014419D01*
X130960761Y-108919180D01*
X130913142Y-108871561D01*
X130817904Y-108823942D01*
X130532190Y-108823942D01*
X130436952Y-108871561D01*
X130389333Y-108919180D01*
X130341714Y-109014419D01*
X130341714Y-109204895D01*
X130389333Y-109300133D01*
X131008380Y-110204895D02*
X130484571Y-110204895D01*
X130389333Y-110157276D01*
X130341714Y-110062038D01*
X130341714Y-109871561D01*
X130389333Y-109776323D01*
X130960761Y-110204895D02*
X131008380Y-110109657D01*
X131008380Y-109871561D01*
X130960761Y-109776323D01*
X130865523Y-109728704D01*
X130770285Y-109728704D01*
X130675047Y-109776323D01*
X130627428Y-109871561D01*
X130627428Y-110109657D01*
X130579809Y-110204895D01*
X130341714Y-110681085D02*
X131341714Y-110681085D01*
X130389333Y-110681085D02*
X130341714Y-110776323D01*
X130341714Y-110966800D01*
X130389333Y-111062038D01*
X130436952Y-111109657D01*
X130532190Y-111157276D01*
X130817904Y-111157276D01*
X130913142Y-111109657D01*
X130960761Y-111062038D01*
X131008380Y-110966800D01*
X131008380Y-110776323D01*
X130960761Y-110681085D01*
X130341714Y-111442990D02*
X130341714Y-111823942D01*
X130008380Y-111585847D02*
X130865523Y-111585847D01*
X130960761Y-111633466D01*
X131008380Y-111728704D01*
X131008380Y-111823942D01*
X130960761Y-112538228D02*
X131008380Y-112442990D01*
X131008380Y-112252514D01*
X130960761Y-112157276D01*
X130865523Y-112109657D01*
X130484571Y-112109657D01*
X130389333Y-112157276D01*
X130341714Y-112252514D01*
X130341714Y-112442990D01*
X130389333Y-112538228D01*
X130484571Y-112585847D01*
X130579809Y-112585847D01*
X130675047Y-112109657D01*
X131008380Y-113014419D02*
X130341714Y-113014419D01*
X130532190Y-113014419D02*
X130436952Y-113062038D01*
X130389333Y-113109657D01*
X130341714Y-113204895D01*
X130341714Y-113300133D01*
X130341714Y-114300133D02*
X131008380Y-114538228D01*
X130341714Y-114776323D01*
X130008380Y-115062038D02*
X130008380Y-115681085D01*
X130389333Y-115347752D01*
X130389333Y-115490609D01*
X130436952Y-115585847D01*
X130484571Y-115633466D01*
X130579809Y-115681085D01*
X130817904Y-115681085D01*
X130913142Y-115633466D01*
X130960761Y-115585847D01*
X131008380Y-115490609D01*
X131008380Y-115204895D01*
X130960761Y-115109657D01*
X130913142Y-115062038D01*
D11*
X133526157Y-55689714D02*
X133669014Y-55308761D01*
X133811871Y-55689714D01*
X133526157Y-56308761D02*
X133669014Y-55927809D01*
X133811871Y-56308761D01*
X133407109Y-56904000D02*
X133383300Y-56927809D01*
X133359490Y-56975428D01*
X133359490Y-57094476D01*
X133383300Y-57142095D01*
X133407109Y-57165904D01*
X133454728Y-57189714D01*
X133502347Y-57189714D01*
X133573776Y-57165904D01*
X133859490Y-56880190D01*
X133859490Y-57189714D01*
X133359490Y-57356380D02*
X133359490Y-57689714D01*
X133859490Y-57475428D01*
X133835680Y-58094476D02*
X133859490Y-58046857D01*
X133859490Y-57951619D01*
X133835680Y-57904000D01*
X133811871Y-57880190D01*
X133764252Y-57856380D01*
X133621395Y-57856380D01*
X133573776Y-57880190D01*
X133549966Y-57904000D01*
X133526157Y-57951619D01*
X133526157Y-58046857D01*
X133549966Y-58094476D01*
X133359490Y-58261142D02*
X133359490Y-58570666D01*
X133549966Y-58404000D01*
X133549966Y-58475428D01*
X133573776Y-58523047D01*
X133597585Y-58546857D01*
X133645204Y-58570666D01*
X133764252Y-58570666D01*
X133811871Y-58546857D01*
X133835680Y-58523047D01*
X133859490Y-58475428D01*
X133859490Y-58332571D01*
X133835680Y-58284952D01*
X133811871Y-58261142D01*
X133407109Y-58761142D02*
X133383300Y-58784952D01*
X133359490Y-58832571D01*
X133359490Y-58951619D01*
X133383300Y-58999238D01*
X133407109Y-59023047D01*
X133454728Y-59046857D01*
X133502347Y-59046857D01*
X133573776Y-59023047D01*
X133859490Y-58737333D01*
X133859490Y-59046857D01*
X133407109Y-59237333D02*
X133383300Y-59261142D01*
X133359490Y-59308761D01*
X133359490Y-59427809D01*
X133383300Y-59475428D01*
X133407109Y-59499238D01*
X133454728Y-59523047D01*
X133502347Y-59523047D01*
X133573776Y-59499238D01*
X133859490Y-59213523D01*
X133859490Y-59523047D01*
X134664490Y-55618285D02*
X134640680Y-55570666D01*
X134616871Y-55546857D01*
X134569252Y-55523047D01*
X134426395Y-55523047D01*
X134378776Y-55546857D01*
X134354966Y-55570666D01*
X134331157Y-55618285D01*
X134331157Y-55689714D01*
X134354966Y-55737333D01*
X134378776Y-55761142D01*
X134426395Y-55784952D01*
X134569252Y-55784952D01*
X134616871Y-55761142D01*
X134640680Y-55737333D01*
X134664490Y-55689714D01*
X134664490Y-55618285D01*
X134331157Y-55927809D02*
X134331157Y-56118285D01*
X134164490Y-55999238D02*
X134593061Y-55999238D01*
X134640680Y-56023047D01*
X134664490Y-56070666D01*
X134664490Y-56118285D01*
X134664490Y-56284952D02*
X134164490Y-56284952D01*
X134664490Y-56499238D02*
X134402585Y-56499238D01*
X134354966Y-56475428D01*
X134331157Y-56427809D01*
X134331157Y-56356380D01*
X134354966Y-56308761D01*
X134378776Y-56284952D01*
X134640680Y-56927809D02*
X134664490Y-56880190D01*
X134664490Y-56784952D01*
X134640680Y-56737333D01*
X134593061Y-56713523D01*
X134402585Y-56713523D01*
X134354966Y-56737333D01*
X134331157Y-56784952D01*
X134331157Y-56880190D01*
X134354966Y-56927809D01*
X134402585Y-56951619D01*
X134450204Y-56951619D01*
X134497823Y-56713523D01*
X134664490Y-57165904D02*
X134331157Y-57165904D01*
X134426395Y-57165904D02*
X134378776Y-57189714D01*
X134354966Y-57213523D01*
X134331157Y-57261142D01*
X134331157Y-57308761D01*
X134640680Y-57451619D02*
X134664490Y-57499238D01*
X134664490Y-57594476D01*
X134640680Y-57642095D01*
X134593061Y-57665904D01*
X134569252Y-57665904D01*
X134521633Y-57642095D01*
X134497823Y-57594476D01*
X134497823Y-57523047D01*
X134474014Y-57475428D01*
X134426395Y-57451619D01*
X134402585Y-57451619D01*
X134354966Y-57475428D01*
X134331157Y-57523047D01*
X134331157Y-57594476D01*
X134354966Y-57642095D01*
X134331157Y-58261142D02*
X134474014Y-58642095D01*
X134616871Y-58261142D01*
X134331157Y-58880190D02*
X134474014Y-59261142D01*
X134616871Y-58880190D01*
D12*
%TO.C,R4*%
X145344732Y-63575030D02*
X145243717Y-63002610D01*
X145748793Y-63170969D02*
X145041687Y-62463862D01*
X144772312Y-62733236D01*
X144738641Y-62834251D01*
X144738641Y-62901595D01*
X144772312Y-63002610D01*
X144873328Y-63103625D01*
X144974343Y-63137297D01*
X145041687Y-63137297D01*
X145142702Y-63103625D01*
X145412076Y-62834251D01*
X144267236Y-63709717D02*
X144738641Y-64181122D01*
X144166221Y-63271984D02*
X144839656Y-63608702D01*
X144401923Y-64046435D01*
%TO.C,R5*%
X146868732Y-63702030D02*
X146767717Y-63129610D01*
X147272793Y-63297969D02*
X146565687Y-62590862D01*
X146296312Y-62860236D01*
X146262641Y-62961251D01*
X146262641Y-63028595D01*
X146296312Y-63129610D01*
X146397328Y-63230625D01*
X146498343Y-63264297D01*
X146565687Y-63264297D01*
X146666702Y-63230625D01*
X146936076Y-62961251D01*
X145521862Y-63634687D02*
X145858580Y-63297969D01*
X146228969Y-63601015D01*
X146161625Y-63601015D01*
X146060610Y-63634687D01*
X145892251Y-63803045D01*
X145858580Y-63904061D01*
X145858580Y-63971404D01*
X145892251Y-64072419D01*
X146060610Y-64240778D01*
X146161625Y-64274450D01*
X146228969Y-64274450D01*
X146329984Y-64240778D01*
X146498343Y-64072419D01*
X146532015Y-63971404D01*
X146532015Y-63904061D01*
%TO.C,R1*%
X139375732Y-63575030D02*
X139274717Y-63002610D01*
X139779793Y-63170969D02*
X139072687Y-62463862D01*
X138803312Y-62733236D01*
X138769641Y-62834251D01*
X138769641Y-62901595D01*
X138803312Y-63002610D01*
X138904328Y-63103625D01*
X139005343Y-63137297D01*
X139072687Y-63137297D01*
X139173702Y-63103625D01*
X139443076Y-62834251D01*
X138702297Y-64248465D02*
X139106358Y-63844404D01*
X138904328Y-64046435D02*
X138197221Y-63339328D01*
X138365580Y-63373000D01*
X138500267Y-63373000D01*
X138601282Y-63339328D01*
%TO.C,R2*%
X141280732Y-63575030D02*
X141179717Y-63002610D01*
X141684793Y-63170969D02*
X140977687Y-62463862D01*
X140708312Y-62733236D01*
X140674641Y-62834251D01*
X140674641Y-62901595D01*
X140708312Y-63002610D01*
X140809328Y-63103625D01*
X140910343Y-63137297D01*
X140977687Y-63137297D01*
X141078702Y-63103625D01*
X141348076Y-62834251D01*
X140371595Y-63204641D02*
X140304251Y-63204641D01*
X140203236Y-63238312D01*
X140034877Y-63406671D01*
X140001206Y-63507687D01*
X140001206Y-63575030D01*
X140034877Y-63676045D01*
X140102221Y-63743389D01*
X140236908Y-63810732D01*
X141045030Y-63810732D01*
X140607297Y-64248465D01*
%TO.C,R3*%
X143312732Y-63575030D02*
X143211717Y-63002610D01*
X143716793Y-63170969D02*
X143009687Y-62463862D01*
X142740312Y-62733236D01*
X142706641Y-62834251D01*
X142706641Y-62901595D01*
X142740312Y-63002610D01*
X142841328Y-63103625D01*
X142942343Y-63137297D01*
X143009687Y-63137297D01*
X143110702Y-63103625D01*
X143380076Y-62834251D01*
X142369923Y-63103625D02*
X141932190Y-63541358D01*
X142437267Y-63575030D01*
X142336251Y-63676045D01*
X142302580Y-63777061D01*
X142302580Y-63844404D01*
X142336251Y-63945419D01*
X142504610Y-64113778D01*
X142605625Y-64147450D01*
X142672969Y-64147450D01*
X142773984Y-64113778D01*
X142976015Y-63911748D01*
X143009687Y-63810732D01*
X143009687Y-63743389D01*
%TO.C,Q1*%
X138977619Y-57562761D02*
X138930000Y-57467523D01*
X138834761Y-57372285D01*
X138691904Y-57229428D01*
X138644285Y-57134190D01*
X138644285Y-57038952D01*
X138882380Y-57086571D02*
X138834761Y-56991333D01*
X138739523Y-56896095D01*
X138549047Y-56848476D01*
X138215714Y-56848476D01*
X138025238Y-56896095D01*
X137930000Y-56991333D01*
X137882380Y-57086571D01*
X137882380Y-57277047D01*
X137930000Y-57372285D01*
X138025238Y-57467523D01*
X138215714Y-57515142D01*
X138549047Y-57515142D01*
X138739523Y-57467523D01*
X138834761Y-57372285D01*
X138882380Y-57277047D01*
X138882380Y-57086571D01*
X138882380Y-58467523D02*
X138882380Y-57896095D01*
X138882380Y-58181809D02*
X137882380Y-58181809D01*
X138025238Y-58086571D01*
X138120476Y-57991333D01*
X138168095Y-57896095D01*
%TO.C,C1*%
X137149389Y-63380687D02*
X137216732Y-63380687D01*
X137351419Y-63313343D01*
X137418763Y-63246000D01*
X137486106Y-63111312D01*
X137486106Y-62976625D01*
X137452435Y-62875610D01*
X137351419Y-62707251D01*
X137250404Y-62606236D01*
X137082045Y-62505221D01*
X136981030Y-62471549D01*
X136846343Y-62471549D01*
X136711656Y-62538893D01*
X136644312Y-62606236D01*
X136576969Y-62740923D01*
X136576969Y-62808267D01*
X136543297Y-64121465D02*
X136947358Y-63717404D01*
X136745328Y-63919435D02*
X136038221Y-63212328D01*
X136206580Y-63246000D01*
X136341267Y-63246000D01*
X136442282Y-63212328D01*
D13*
%TO.C,R4*%
X145086400Y-61009264D02*
X145086400Y-60555136D01*
X146556400Y-61009264D02*
X146556400Y-60555136D01*
%TO.C,R5*%
X147118400Y-61009264D02*
X147118400Y-60555136D01*
X148588400Y-61009264D02*
X148588400Y-60555136D01*
%TO.C,R1*%
X138990400Y-60555136D02*
X138990400Y-61009264D01*
X140460400Y-60555136D02*
X140460400Y-61009264D01*
%TO.C,R2*%
X142492400Y-61009264D02*
X142492400Y-60555136D01*
X141022400Y-61009264D02*
X141022400Y-60555136D01*
%TO.C,R3*%
X144524400Y-61009264D02*
X144524400Y-60555136D01*
X143054400Y-61009264D02*
X143054400Y-60555136D01*
%TO.C,Q1*%
X139217400Y-53024600D02*
X139867400Y-53024600D01*
X139217400Y-56144600D02*
X137542400Y-56144600D01*
X139217400Y-56144600D02*
X139867400Y-56144600D01*
X139217400Y-53024600D02*
X138567400Y-53024600D01*
%TO.C,C1*%
X136933000Y-60555136D02*
X136933000Y-61009264D01*
X138403000Y-60555136D02*
X138403000Y-61009264D01*
%TD*%
M02*
