%FSLAX45Y45*%
G04 Gerber Fmt 4.5, Leading zero omitted, Abs format (unit mm)*
G04 Created by KiCad (PCBNEW (6.0.6-1)-1) date 2022-08-08 01:27:30*
%MOMM*%
%LPD*%
G01*
G04 APERTURE LIST*
%ADD10C,0.200000*%
%ADD11C,0.040000*%
%ADD12C,0.080000*%
G04 APERTURE END LIST*
D10*
D11*
X13365800Y-11600500D02*
X13405800Y-11640500D01*
X13405800Y-11600500D02*
X13365800Y-11640500D01*
X13438250Y-6393500D02*
X13478250Y-6433500D01*
X13478250Y-6393500D02*
X13438250Y-6433500D01*
X13442000Y-6520500D02*
X13482000Y-6560500D01*
X13482000Y-6520500D02*
X13442000Y-6560500D01*
X13442000Y-11486200D02*
X13482000Y-11526200D01*
X13482000Y-11486200D02*
X13442000Y-11526200D01*
X13454700Y-6914200D02*
X13494700Y-6954200D01*
X13494700Y-6914200D02*
X13454700Y-6954200D01*
X13454700Y-7803200D02*
X13494700Y-7843200D01*
X13494700Y-7803200D02*
X13454700Y-7843200D01*
X13454700Y-7930200D02*
X13494700Y-7970200D01*
X13494700Y-7930200D02*
X13454700Y-7970200D01*
X13454700Y-8057200D02*
X13494700Y-8097200D01*
X13494700Y-8057200D02*
X13454700Y-8097200D01*
X13483250Y-8171500D02*
X13523250Y-8211500D01*
X13523250Y-8171500D02*
X13483250Y-8211500D01*
X13483250Y-8679500D02*
X13523250Y-8719500D01*
X13523250Y-8679500D02*
X13483250Y-8719500D01*
X13492800Y-8425500D02*
X13532800Y-8465500D01*
X13532800Y-8425500D02*
X13492800Y-8465500D01*
X13527150Y-7549200D02*
X13567150Y-7589200D01*
X13567150Y-7549200D02*
X13527150Y-7589200D01*
X13530900Y-11219500D02*
X13570900Y-11259500D01*
X13570900Y-11219500D02*
X13530900Y-11259500D01*
X13556300Y-11473500D02*
X13596300Y-11513500D01*
X13596300Y-11473500D02*
X13556300Y-11513500D01*
X13573250Y-10965500D02*
X13613250Y-11005500D01*
X13613250Y-10965500D02*
X13573250Y-11005500D01*
X13581700Y-11079800D02*
X13621700Y-11119800D01*
X13621700Y-11079800D02*
X13581700Y-11119800D01*
X13583002Y-6457096D02*
X13623002Y-6497096D01*
X13623002Y-6457096D02*
X13583002Y-6497096D01*
X13657900Y-10736900D02*
X13697900Y-10776900D01*
X13697900Y-10736900D02*
X13657900Y-10776900D01*
X13657900Y-10851200D02*
X13697900Y-10891200D01*
X13697900Y-10851200D02*
X13657900Y-10891200D01*
X13692250Y-7028500D02*
X13732250Y-7068500D01*
X13732250Y-7028500D02*
X13692250Y-7068500D01*
X13696000Y-7282500D02*
X13736000Y-7322500D01*
X13736000Y-7282500D02*
X13696000Y-7322500D01*
X13708250Y-10495600D02*
X13748250Y-10535600D01*
X13748250Y-10495600D02*
X13708250Y-10535600D01*
X13708300Y-9631530D02*
X13748300Y-9671530D01*
X13748300Y-9631530D02*
X13708300Y-9671530D01*
X13708300Y-10203500D02*
X13748300Y-10243500D01*
X13748300Y-10203500D02*
X13708300Y-10243500D01*
X13724550Y-8246595D02*
X13764550Y-8286595D01*
X13764550Y-8246595D02*
X13724550Y-8286595D01*
X13737250Y-7663500D02*
X13777250Y-7703500D01*
X13777250Y-7663500D02*
X13737250Y-7703500D01*
X13746800Y-6355400D02*
X13786800Y-6395400D01*
X13786800Y-6355400D02*
X13746800Y-6395400D01*
X13746800Y-10597200D02*
X13786800Y-10637200D01*
X13786800Y-10597200D02*
X13746800Y-10637200D01*
X13773095Y-7410395D02*
X13813095Y-7450395D01*
X13813095Y-7410395D02*
X13773095Y-7450395D01*
X13784900Y-6457000D02*
X13824900Y-6497000D01*
X13824900Y-6457000D02*
X13784900Y-6497000D01*
X13798030Y-9759430D02*
X13838030Y-9799430D01*
X13838030Y-9759430D02*
X13798030Y-9799430D01*
X13798250Y-9301800D02*
X13838250Y-9341800D01*
X13838250Y-9301800D02*
X13798250Y-9341800D01*
X13798250Y-9441500D02*
X13838250Y-9481500D01*
X13838250Y-9441500D02*
X13798250Y-9481500D01*
X13819250Y-10013000D02*
X13859250Y-10053000D01*
X13859250Y-10013000D02*
X13819250Y-10053000D01*
X13888250Y-8971600D02*
X13928250Y-9011600D01*
X13928250Y-8971600D02*
X13888250Y-9011600D01*
X13902950Y-8031800D02*
X13942950Y-8071800D01*
X13942950Y-8031800D02*
X13902950Y-8071800D01*
X13950000Y-6926900D02*
X13990000Y-6966900D01*
X13990000Y-6926900D02*
X13950000Y-6966900D01*
X13952540Y-6149470D02*
X13992540Y-6189470D01*
X13992540Y-6149470D02*
X13952540Y-6189470D01*
X13962700Y-6580130D02*
X14002700Y-6620130D01*
X14002700Y-6580130D02*
X13962700Y-6620130D01*
X13996550Y-8971600D02*
X14036550Y-9011600D01*
X14036550Y-8971600D02*
X13996550Y-9011600D01*
X14013500Y-10402950D02*
X14053500Y-10442950D01*
X14053500Y-10402950D02*
X14013500Y-10442950D01*
X14089700Y-10470200D02*
X14129700Y-10510200D01*
X14129700Y-10470200D02*
X14089700Y-10510200D01*
X14097200Y-10216200D02*
X14137200Y-10256200D01*
X14137200Y-10216200D02*
X14097200Y-10256200D01*
X14102400Y-7003100D02*
X14142400Y-7043100D01*
X14142400Y-7003100D02*
X14102400Y-7043100D01*
X14156950Y-9949500D02*
X14196950Y-9989500D01*
X14196950Y-9949500D02*
X14156950Y-9989500D01*
X14165900Y-11092500D02*
X14205900Y-11132500D01*
X14205900Y-11092500D02*
X14165900Y-11132500D01*
X14169650Y-10597200D02*
X14209650Y-10637200D01*
X14209650Y-10597200D02*
X14169650Y-10637200D01*
X14178600Y-10089200D02*
X14218600Y-10129200D01*
X14218600Y-10089200D02*
X14178600Y-10129200D01*
X14229400Y-9822500D02*
X14269400Y-9862500D01*
X14269400Y-9822500D02*
X14229400Y-9862500D01*
X14254800Y-5847400D02*
X14294800Y-5887400D01*
X14294800Y-5847400D02*
X14254800Y-5887400D01*
X14254800Y-10330500D02*
X14294800Y-10370500D01*
X14294800Y-10330500D02*
X14254800Y-10370500D01*
X14280200Y-10076500D02*
X14320200Y-10116500D01*
X14320200Y-10076500D02*
X14280200Y-10116500D01*
X14483400Y-9314500D02*
X14523400Y-9354500D01*
X14523400Y-9314500D02*
X14483400Y-9354500D01*
X14508800Y-6863400D02*
X14548800Y-6903400D01*
X14548800Y-6863400D02*
X14508800Y-6903400D01*
X14559600Y-6152200D02*
X14599600Y-6192200D01*
X14599600Y-6152200D02*
X14559600Y-6192200D01*
X14592630Y-5908490D02*
X14632630Y-5948490D01*
X14632630Y-5908490D02*
X14592630Y-5948490D01*
X14610400Y-6863400D02*
X14650400Y-6903400D01*
X14650400Y-6863400D02*
X14610400Y-6903400D01*
X14776655Y-5968981D02*
X14816655Y-6008981D01*
X14816655Y-5968981D02*
X14776655Y-6008981D01*
D12*
X12896980Y-6670540D02*
G75*
G03*
X12896980Y-6670540I-40000J0D01*
G01*
X12896980Y-6924540D02*
G75*
G03*
X12896980Y-6924540I-40000J0D01*
G01*
X12896980Y-7178540D02*
G75*
G03*
X12896980Y-7178540I-40000J0D01*
G01*
X12896980Y-7432540D02*
G75*
G03*
X12896980Y-7432540I-40000J0D01*
G01*
X12896980Y-7686540D02*
G75*
G03*
X12896980Y-7686540I-40000J0D01*
G01*
X12896980Y-7940540D02*
G75*
G03*
X12896980Y-7940540I-40000J0D01*
G01*
X12896980Y-8194540D02*
G75*
G03*
X12896980Y-8194540I-40000J0D01*
G01*
X12896980Y-8448540D02*
G75*
G03*
X12896980Y-8448540I-40000J0D01*
G01*
X12896980Y-8702540D02*
G75*
G03*
X12896980Y-8702540I-40000J0D01*
G01*
X12896980Y-8956540D02*
G75*
G03*
X12896980Y-8956540I-40000J0D01*
G01*
X12896980Y-9210540D02*
G75*
G03*
X12896980Y-9210540I-40000J0D01*
G01*
X12896980Y-9464540D02*
G75*
G03*
X12896980Y-9464540I-40000J0D01*
G01*
X12896980Y-9718540D02*
G75*
G03*
X12896980Y-9718540I-40000J0D01*
G01*
X12896980Y-9972540D02*
G75*
G03*
X12896980Y-9972540I-40000J0D01*
G01*
X12896980Y-10226540D02*
G75*
G03*
X12896980Y-10226540I-40000J0D01*
G01*
X12896980Y-10480540D02*
G75*
G03*
X12896980Y-10480540I-40000J0D01*
G01*
X12896980Y-10734540D02*
G75*
G03*
X12896980Y-10734540I-40000J0D01*
G01*
X12896980Y-10988540D02*
G75*
G03*
X12896980Y-10988540I-40000J0D01*
G01*
X12896980Y-11242540D02*
G75*
G03*
X12896980Y-11242540I-40000J0D01*
G01*
X12896980Y-11496540D02*
G75*
G03*
X12896980Y-11496540I-40000J0D01*
G01*
X13281040Y-5486950D02*
G75*
G03*
X13281040Y-5486950I-40000J0D01*
G01*
X13281040Y-5736950D02*
G75*
G03*
X13281040Y-5736950I-40000J0D01*
G01*
X13281040Y-5986950D02*
G75*
G03*
X13281040Y-5986950I-40000J0D01*
G01*
X13283560Y-6418580D02*
G75*
G03*
X13283560Y-6418580I-40000J0D01*
G01*
X13283560Y-6672580D02*
G75*
G03*
X13283560Y-6672580I-40000J0D01*
G01*
X13283560Y-6926580D02*
G75*
G03*
X13283560Y-6926580I-40000J0D01*
G01*
X13283560Y-7180580D02*
G75*
G03*
X13283560Y-7180580I-40000J0D01*
G01*
X13283560Y-7434580D02*
G75*
G03*
X13283560Y-7434580I-40000J0D01*
G01*
X13283560Y-7688580D02*
G75*
G03*
X13283560Y-7688580I-40000J0D01*
G01*
X13283560Y-7942580D02*
G75*
G03*
X13283560Y-7942580I-40000J0D01*
G01*
X13283560Y-8196580D02*
G75*
G03*
X13283560Y-8196580I-40000J0D01*
G01*
X13283560Y-8450580D02*
G75*
G03*
X13283560Y-8450580I-40000J0D01*
G01*
X13283560Y-8704580D02*
G75*
G03*
X13283560Y-8704580I-40000J0D01*
G01*
X13283560Y-8958580D02*
G75*
G03*
X13283560Y-8958580I-40000J0D01*
G01*
X13283560Y-9212580D02*
G75*
G03*
X13283560Y-9212580I-40000J0D01*
G01*
X13283560Y-9466580D02*
G75*
G03*
X13283560Y-9466580I-40000J0D01*
G01*
X13283560Y-9720580D02*
G75*
G03*
X13283560Y-9720580I-40000J0D01*
G01*
X13283560Y-9974580D02*
G75*
G03*
X13283560Y-9974580I-40000J0D01*
G01*
X13283560Y-10228580D02*
G75*
G03*
X13283560Y-10228580I-40000J0D01*
G01*
X13283560Y-10482580D02*
G75*
G03*
X13283560Y-10482580I-40000J0D01*
G01*
X13283560Y-10736580D02*
G75*
G03*
X13283560Y-10736580I-40000J0D01*
G01*
X13283560Y-10990580D02*
G75*
G03*
X13283560Y-10990580I-40000J0D01*
G01*
X13283560Y-11244580D02*
G75*
G03*
X13283560Y-11244580I-40000J0D01*
G01*
X13283560Y-11498580D02*
G75*
G03*
X13283560Y-11498580I-40000J0D01*
G01*
X13601040Y-5486950D02*
G75*
G03*
X13601040Y-5486950I-40000J0D01*
G01*
X13601040Y-5736950D02*
G75*
G03*
X13601040Y-5736950I-40000J0D01*
G01*
X13601040Y-5986950D02*
G75*
G03*
X13601040Y-5986950I-40000J0D01*
G01*
X14420980Y-6670540D02*
G75*
G03*
X14420980Y-6670540I-40000J0D01*
G01*
X14420980Y-6924540D02*
G75*
G03*
X14420980Y-6924540I-40000J0D01*
G01*
X14420980Y-7178540D02*
G75*
G03*
X14420980Y-7178540I-40000J0D01*
G01*
X14420980Y-7432540D02*
G75*
G03*
X14420980Y-7432540I-40000J0D01*
G01*
X14420980Y-7686540D02*
G75*
G03*
X14420980Y-7686540I-40000J0D01*
G01*
X14420980Y-7940540D02*
G75*
G03*
X14420980Y-7940540I-40000J0D01*
G01*
X14420980Y-8194540D02*
G75*
G03*
X14420980Y-8194540I-40000J0D01*
G01*
X14420980Y-8448540D02*
G75*
G03*
X14420980Y-8448540I-40000J0D01*
G01*
X14420980Y-8702540D02*
G75*
G03*
X14420980Y-8702540I-40000J0D01*
G01*
X14420980Y-8956540D02*
G75*
G03*
X14420980Y-8956540I-40000J0D01*
G01*
X14420980Y-9210540D02*
G75*
G03*
X14420980Y-9210540I-40000J0D01*
G01*
X14420980Y-9464540D02*
G75*
G03*
X14420980Y-9464540I-40000J0D01*
G01*
X14420980Y-9718540D02*
G75*
G03*
X14420980Y-9718540I-40000J0D01*
G01*
X14420980Y-9972540D02*
G75*
G03*
X14420980Y-9972540I-40000J0D01*
G01*
X14420980Y-10226540D02*
G75*
G03*
X14420980Y-10226540I-40000J0D01*
G01*
X14420980Y-10480540D02*
G75*
G03*
X14420980Y-10480540I-40000J0D01*
G01*
X14420980Y-10734540D02*
G75*
G03*
X14420980Y-10734540I-40000J0D01*
G01*
X14420980Y-10988540D02*
G75*
G03*
X14420980Y-10988540I-40000J0D01*
G01*
X14420980Y-11242540D02*
G75*
G03*
X14420980Y-11242540I-40000J0D01*
G01*
X14420980Y-11496540D02*
G75*
G03*
X14420980Y-11496540I-40000J0D01*
G01*
X14807560Y-6418580D02*
G75*
G03*
X14807560Y-6418580I-40000J0D01*
G01*
X14807560Y-6672580D02*
G75*
G03*
X14807560Y-6672580I-40000J0D01*
G01*
X14807560Y-6926580D02*
G75*
G03*
X14807560Y-6926580I-40000J0D01*
G01*
X14807560Y-7180580D02*
G75*
G03*
X14807560Y-7180580I-40000J0D01*
G01*
X14807560Y-7434580D02*
G75*
G03*
X14807560Y-7434580I-40000J0D01*
G01*
X14807560Y-7688580D02*
G75*
G03*
X14807560Y-7688580I-40000J0D01*
G01*
X14807560Y-7942580D02*
G75*
G03*
X14807560Y-7942580I-40000J0D01*
G01*
X14807560Y-8196580D02*
G75*
G03*
X14807560Y-8196580I-40000J0D01*
G01*
X14807560Y-8450580D02*
G75*
G03*
X14807560Y-8450580I-40000J0D01*
G01*
X14807560Y-8704580D02*
G75*
G03*
X14807560Y-8704580I-40000J0D01*
G01*
X14807560Y-8958580D02*
G75*
G03*
X14807560Y-8958580I-40000J0D01*
G01*
X14807560Y-9212580D02*
G75*
G03*
X14807560Y-9212580I-40000J0D01*
G01*
X14807560Y-9466580D02*
G75*
G03*
X14807560Y-9466580I-40000J0D01*
G01*
X14807560Y-9720580D02*
G75*
G03*
X14807560Y-9720580I-40000J0D01*
G01*
X14807560Y-9974580D02*
G75*
G03*
X14807560Y-9974580I-40000J0D01*
G01*
X14807560Y-10228580D02*
G75*
G03*
X14807560Y-10228580I-40000J0D01*
G01*
X14807560Y-10482580D02*
G75*
G03*
X14807560Y-10482580I-40000J0D01*
G01*
X14807560Y-10736580D02*
G75*
G03*
X14807560Y-10736580I-40000J0D01*
G01*
X14807560Y-10990580D02*
G75*
G03*
X14807560Y-10990580I-40000J0D01*
G01*
X14807560Y-11244580D02*
G75*
G03*
X14807560Y-11244580I-40000J0D01*
G01*
X14807560Y-11498580D02*
G75*
G03*
X14807560Y-11498580I-40000J0D01*
G01*
D10*
X12976469Y-12030126D02*
X12976469Y-11830126D01*
X13024088Y-11830126D01*
X13052659Y-11839650D01*
X13071707Y-11858698D01*
X13081231Y-11877745D01*
X13090755Y-11915840D01*
X13090755Y-11944412D01*
X13081231Y-11982507D01*
X13071707Y-12001555D01*
X13052659Y-12020602D01*
X13024088Y-12030126D01*
X12976469Y-12030126D01*
X13176469Y-12030126D02*
X13176469Y-11896793D01*
X13176469Y-11934888D02*
X13185993Y-11915840D01*
X13195517Y-11906317D01*
X13214564Y-11896793D01*
X13233612Y-11896793D01*
X13300278Y-12030126D02*
X13300278Y-11896793D01*
X13300278Y-11830126D02*
X13290755Y-11839650D01*
X13300278Y-11849174D01*
X13309802Y-11839650D01*
X13300278Y-11830126D01*
X13300278Y-11849174D01*
X13424088Y-12030126D02*
X13405040Y-12020602D01*
X13395517Y-12001555D01*
X13395517Y-11830126D01*
X13528850Y-12030126D02*
X13509802Y-12020602D01*
X13500278Y-12001555D01*
X13500278Y-11830126D01*
X13757421Y-12030126D02*
X13757421Y-11830126D01*
X13824088Y-11972983D01*
X13890755Y-11830126D01*
X13890755Y-12030126D01*
X14071707Y-12030126D02*
X14071707Y-11925364D01*
X14062183Y-11906317D01*
X14043136Y-11896793D01*
X14005040Y-11896793D01*
X13985993Y-11906317D01*
X14071707Y-12020602D02*
X14052659Y-12030126D01*
X14005040Y-12030126D01*
X13985993Y-12020602D01*
X13976469Y-12001555D01*
X13976469Y-11982507D01*
X13985993Y-11963459D01*
X14005040Y-11953936D01*
X14052659Y-11953936D01*
X14071707Y-11944412D01*
X14166945Y-11896793D02*
X14166945Y-12096793D01*
X14166945Y-11906317D02*
X14185993Y-11896793D01*
X14224088Y-11896793D01*
X14243136Y-11906317D01*
X14252659Y-11915840D01*
X14262183Y-11934888D01*
X14262183Y-11992031D01*
X14252659Y-12011078D01*
X14243136Y-12020602D01*
X14224088Y-12030126D01*
X14185993Y-12030126D01*
X14166945Y-12020602D01*
X14347898Y-12011078D02*
X14357421Y-12020602D01*
X14347898Y-12030126D01*
X14338374Y-12020602D01*
X14347898Y-12011078D01*
X14347898Y-12030126D01*
X14347898Y-11906317D02*
X14357421Y-11915840D01*
X14347898Y-11925364D01*
X14338374Y-11915840D01*
X14347898Y-11906317D01*
X14347898Y-11925364D01*
D11*
X12678850Y-12339650D02*
X12718850Y-12379650D01*
X12718850Y-12339650D02*
X12678850Y-12379650D01*
D10*
X13014564Y-12250126D02*
X13033612Y-12250126D01*
X13052659Y-12259650D01*
X13062183Y-12269174D01*
X13071707Y-12288221D01*
X13081231Y-12326317D01*
X13081231Y-12373936D01*
X13071707Y-12412031D01*
X13062183Y-12431078D01*
X13052659Y-12440602D01*
X13033612Y-12450126D01*
X13014564Y-12450126D01*
X12995517Y-12440602D01*
X12985993Y-12431078D01*
X12976469Y-12412031D01*
X12966945Y-12373936D01*
X12966945Y-12326317D01*
X12976469Y-12288221D01*
X12985993Y-12269174D01*
X12995517Y-12259650D01*
X13014564Y-12250126D01*
X13166945Y-12431078D02*
X13176469Y-12440602D01*
X13166945Y-12450126D01*
X13157421Y-12440602D01*
X13166945Y-12431078D01*
X13166945Y-12450126D01*
X13347898Y-12316793D02*
X13347898Y-12450126D01*
X13300278Y-12240602D02*
X13252659Y-12383459D01*
X13376469Y-12383459D01*
X13490755Y-12250126D02*
X13509802Y-12250126D01*
X13528850Y-12259650D01*
X13538374Y-12269174D01*
X13547898Y-12288221D01*
X13557421Y-12326317D01*
X13557421Y-12373936D01*
X13547898Y-12412031D01*
X13538374Y-12431078D01*
X13528850Y-12440602D01*
X13509802Y-12450126D01*
X13490755Y-12450126D01*
X13471707Y-12440602D01*
X13462183Y-12431078D01*
X13452659Y-12412031D01*
X13443136Y-12373936D01*
X13443136Y-12326317D01*
X13452659Y-12288221D01*
X13462183Y-12269174D01*
X13471707Y-12259650D01*
X13490755Y-12250126D01*
X13681231Y-12250126D02*
X13700278Y-12250126D01*
X13719326Y-12259650D01*
X13728850Y-12269174D01*
X13738374Y-12288221D01*
X13747898Y-12326317D01*
X13747898Y-12373936D01*
X13738374Y-12412031D01*
X13728850Y-12431078D01*
X13719326Y-12440602D01*
X13700278Y-12450126D01*
X13681231Y-12450126D01*
X13662183Y-12440602D01*
X13652659Y-12431078D01*
X13643136Y-12412031D01*
X13633612Y-12373936D01*
X13633612Y-12326317D01*
X13643136Y-12288221D01*
X13652659Y-12269174D01*
X13662183Y-12259650D01*
X13681231Y-12250126D01*
X13833612Y-12450126D02*
X13833612Y-12316793D01*
X13833612Y-12335840D02*
X13843136Y-12326317D01*
X13862183Y-12316793D01*
X13890755Y-12316793D01*
X13909802Y-12326317D01*
X13919326Y-12345364D01*
X13919326Y-12450126D01*
X13919326Y-12345364D02*
X13928850Y-12326317D01*
X13947898Y-12316793D01*
X13976469Y-12316793D01*
X13995517Y-12326317D01*
X14005040Y-12345364D01*
X14005040Y-12450126D01*
X14100278Y-12450126D02*
X14100278Y-12316793D01*
X14100278Y-12335840D02*
X14109802Y-12326317D01*
X14128850Y-12316793D01*
X14157421Y-12316793D01*
X14176469Y-12326317D01*
X14185993Y-12345364D01*
X14185993Y-12450126D01*
X14185993Y-12345364D02*
X14195517Y-12326317D01*
X14214564Y-12316793D01*
X14243136Y-12316793D01*
X14262183Y-12326317D01*
X14271707Y-12345364D01*
X14271707Y-12450126D01*
X14662183Y-12240602D02*
X14490755Y-12497745D01*
X14919326Y-12250126D02*
X14938374Y-12250126D01*
X14957421Y-12259650D01*
X14966945Y-12269174D01*
X14976469Y-12288221D01*
X14985993Y-12326317D01*
X14985993Y-12373936D01*
X14976469Y-12412031D01*
X14966945Y-12431078D01*
X14957421Y-12440602D01*
X14938374Y-12450126D01*
X14919326Y-12450126D01*
X14900278Y-12440602D01*
X14890755Y-12431078D01*
X14881231Y-12412031D01*
X14871707Y-12373936D01*
X14871707Y-12326317D01*
X14881231Y-12288221D01*
X14890755Y-12269174D01*
X14900278Y-12259650D01*
X14919326Y-12250126D01*
X15071707Y-12431078D02*
X15081231Y-12440602D01*
X15071707Y-12450126D01*
X15062183Y-12440602D01*
X15071707Y-12431078D01*
X15071707Y-12450126D01*
X15205040Y-12250126D02*
X15224088Y-12250126D01*
X15243136Y-12259650D01*
X15252659Y-12269174D01*
X15262183Y-12288221D01*
X15271707Y-12326317D01*
X15271707Y-12373936D01*
X15262183Y-12412031D01*
X15252659Y-12431078D01*
X15243136Y-12440602D01*
X15224088Y-12450126D01*
X15205040Y-12450126D01*
X15185993Y-12440602D01*
X15176469Y-12431078D01*
X15166945Y-12412031D01*
X15157421Y-12373936D01*
X15157421Y-12326317D01*
X15166945Y-12288221D01*
X15176469Y-12269174D01*
X15185993Y-12259650D01*
X15205040Y-12250126D01*
X15462183Y-12450126D02*
X15347898Y-12450126D01*
X15405040Y-12450126D02*
X15405040Y-12250126D01*
X15385993Y-12278698D01*
X15366945Y-12297745D01*
X15347898Y-12307269D01*
X15643136Y-12250126D02*
X15547898Y-12250126D01*
X15538374Y-12345364D01*
X15547898Y-12335840D01*
X15566945Y-12326317D01*
X15614564Y-12326317D01*
X15633612Y-12335840D01*
X15643136Y-12345364D01*
X15652659Y-12364412D01*
X15652659Y-12412031D01*
X15643136Y-12431078D01*
X15633612Y-12440602D01*
X15614564Y-12450126D01*
X15566945Y-12450126D01*
X15547898Y-12440602D01*
X15538374Y-12431078D01*
X15719326Y-12250126D02*
X15852659Y-12250126D01*
X15766945Y-12450126D01*
X15919326Y-12250126D02*
X15919326Y-12288221D01*
X15995517Y-12250126D02*
X15995517Y-12288221D01*
X16290755Y-12526317D02*
X16281231Y-12516793D01*
X16262183Y-12488221D01*
X16252659Y-12469174D01*
X16243136Y-12440602D01*
X16233612Y-12392983D01*
X16233612Y-12354888D01*
X16243136Y-12307269D01*
X16252659Y-12278698D01*
X16262183Y-12259650D01*
X16281231Y-12231078D01*
X16290755Y-12221555D01*
X16462183Y-12250126D02*
X16366945Y-12250126D01*
X16357421Y-12345364D01*
X16366945Y-12335840D01*
X16385993Y-12326317D01*
X16433612Y-12326317D01*
X16452659Y-12335840D01*
X16462183Y-12345364D01*
X16471707Y-12364412D01*
X16471707Y-12412031D01*
X16462183Y-12431078D01*
X16452659Y-12440602D01*
X16433612Y-12450126D01*
X16385993Y-12450126D01*
X16366945Y-12440602D01*
X16357421Y-12431078D01*
X16585993Y-12335840D02*
X16566945Y-12326317D01*
X16557421Y-12316793D01*
X16547898Y-12297745D01*
X16547898Y-12288221D01*
X16557421Y-12269174D01*
X16566945Y-12259650D01*
X16585993Y-12250126D01*
X16624088Y-12250126D01*
X16643136Y-12259650D01*
X16652659Y-12269174D01*
X16662183Y-12288221D01*
X16662183Y-12297745D01*
X16652659Y-12316793D01*
X16643136Y-12326317D01*
X16624088Y-12335840D01*
X16585993Y-12335840D01*
X16566945Y-12345364D01*
X16557421Y-12354888D01*
X16547898Y-12373936D01*
X16547898Y-12412031D01*
X16557421Y-12431078D01*
X16566945Y-12440602D01*
X16585993Y-12450126D01*
X16624088Y-12450126D01*
X16643136Y-12440602D01*
X16652659Y-12431078D01*
X16662183Y-12412031D01*
X16662183Y-12373936D01*
X16652659Y-12354888D01*
X16643136Y-12345364D01*
X16624088Y-12335840D01*
X16900279Y-12450126D02*
X16900279Y-12250126D01*
X16985993Y-12450126D02*
X16985993Y-12345364D01*
X16976469Y-12326317D01*
X16957421Y-12316793D01*
X16928850Y-12316793D01*
X16909802Y-12326317D01*
X16900279Y-12335840D01*
X17109802Y-12450126D02*
X17090755Y-12440602D01*
X17081231Y-12431078D01*
X17071707Y-12412031D01*
X17071707Y-12354888D01*
X17081231Y-12335840D01*
X17090755Y-12326317D01*
X17109802Y-12316793D01*
X17138374Y-12316793D01*
X17157421Y-12326317D01*
X17166945Y-12335840D01*
X17176469Y-12354888D01*
X17176469Y-12412031D01*
X17166945Y-12431078D01*
X17157421Y-12440602D01*
X17138374Y-12450126D01*
X17109802Y-12450126D01*
X17290755Y-12450126D02*
X17271707Y-12440602D01*
X17262183Y-12421555D01*
X17262183Y-12250126D01*
X17443136Y-12440602D02*
X17424088Y-12450126D01*
X17385993Y-12450126D01*
X17366945Y-12440602D01*
X17357421Y-12421555D01*
X17357421Y-12345364D01*
X17366945Y-12326317D01*
X17385993Y-12316793D01*
X17424088Y-12316793D01*
X17443136Y-12326317D01*
X17452660Y-12345364D01*
X17452660Y-12364412D01*
X17357421Y-12383459D01*
X17528850Y-12440602D02*
X17547898Y-12450126D01*
X17585993Y-12450126D01*
X17605040Y-12440602D01*
X17614564Y-12421555D01*
X17614564Y-12412031D01*
X17605040Y-12392983D01*
X17585993Y-12383459D01*
X17557421Y-12383459D01*
X17538374Y-12373936D01*
X17528850Y-12354888D01*
X17528850Y-12345364D01*
X17538374Y-12326317D01*
X17557421Y-12316793D01*
X17585993Y-12316793D01*
X17605040Y-12326317D01*
X17681231Y-12526317D02*
X17690755Y-12516793D01*
X17709802Y-12488221D01*
X17719326Y-12469174D01*
X17728850Y-12440602D01*
X17738374Y-12392983D01*
X17738374Y-12354888D01*
X17728850Y-12307269D01*
X17719326Y-12278698D01*
X17709802Y-12259650D01*
X17690755Y-12231078D01*
X17681231Y-12221555D01*
D12*
X12718850Y-12623650D02*
G75*
G03*
X12718850Y-12623650I-40000J0D01*
G01*
D10*
X13014564Y-12514126D02*
X13033612Y-12514126D01*
X13052659Y-12523650D01*
X13062183Y-12533174D01*
X13071707Y-12552221D01*
X13081231Y-12590317D01*
X13081231Y-12637936D01*
X13071707Y-12676031D01*
X13062183Y-12695078D01*
X13052659Y-12704602D01*
X13033612Y-12714126D01*
X13014564Y-12714126D01*
X12995517Y-12704602D01*
X12985993Y-12695078D01*
X12976469Y-12676031D01*
X12966945Y-12637936D01*
X12966945Y-12590317D01*
X12976469Y-12552221D01*
X12985993Y-12533174D01*
X12995517Y-12523650D01*
X13014564Y-12514126D01*
X13166945Y-12695078D02*
X13176469Y-12704602D01*
X13166945Y-12714126D01*
X13157421Y-12704602D01*
X13166945Y-12695078D01*
X13166945Y-12714126D01*
X13290755Y-12599840D02*
X13271707Y-12590317D01*
X13262183Y-12580793D01*
X13252659Y-12561745D01*
X13252659Y-12552221D01*
X13262183Y-12533174D01*
X13271707Y-12523650D01*
X13290755Y-12514126D01*
X13328850Y-12514126D01*
X13347898Y-12523650D01*
X13357421Y-12533174D01*
X13366945Y-12552221D01*
X13366945Y-12561745D01*
X13357421Y-12580793D01*
X13347898Y-12590317D01*
X13328850Y-12599840D01*
X13290755Y-12599840D01*
X13271707Y-12609364D01*
X13262183Y-12618888D01*
X13252659Y-12637936D01*
X13252659Y-12676031D01*
X13262183Y-12695078D01*
X13271707Y-12704602D01*
X13290755Y-12714126D01*
X13328850Y-12714126D01*
X13347898Y-12704602D01*
X13357421Y-12695078D01*
X13366945Y-12676031D01*
X13366945Y-12637936D01*
X13357421Y-12618888D01*
X13347898Y-12609364D01*
X13328850Y-12599840D01*
X13490755Y-12514126D02*
X13509802Y-12514126D01*
X13528850Y-12523650D01*
X13538374Y-12533174D01*
X13547898Y-12552221D01*
X13557421Y-12590317D01*
X13557421Y-12637936D01*
X13547898Y-12676031D01*
X13538374Y-12695078D01*
X13528850Y-12704602D01*
X13509802Y-12714126D01*
X13490755Y-12714126D01*
X13471707Y-12704602D01*
X13462183Y-12695078D01*
X13452659Y-12676031D01*
X13443136Y-12637936D01*
X13443136Y-12590317D01*
X13452659Y-12552221D01*
X13462183Y-12533174D01*
X13471707Y-12523650D01*
X13490755Y-12514126D01*
X13681231Y-12514126D02*
X13700278Y-12514126D01*
X13719326Y-12523650D01*
X13728850Y-12533174D01*
X13738374Y-12552221D01*
X13747898Y-12590317D01*
X13747898Y-12637936D01*
X13738374Y-12676031D01*
X13728850Y-12695078D01*
X13719326Y-12704602D01*
X13700278Y-12714126D01*
X13681231Y-12714126D01*
X13662183Y-12704602D01*
X13652659Y-12695078D01*
X13643136Y-12676031D01*
X13633612Y-12637936D01*
X13633612Y-12590317D01*
X13643136Y-12552221D01*
X13652659Y-12533174D01*
X13662183Y-12523650D01*
X13681231Y-12514126D01*
X13833612Y-12714126D02*
X13833612Y-12580793D01*
X13833612Y-12599840D02*
X13843136Y-12590317D01*
X13862183Y-12580793D01*
X13890755Y-12580793D01*
X13909802Y-12590317D01*
X13919326Y-12609364D01*
X13919326Y-12714126D01*
X13919326Y-12609364D02*
X13928850Y-12590317D01*
X13947898Y-12580793D01*
X13976469Y-12580793D01*
X13995517Y-12590317D01*
X14005040Y-12609364D01*
X14005040Y-12714126D01*
X14100278Y-12714126D02*
X14100278Y-12580793D01*
X14100278Y-12599840D02*
X14109802Y-12590317D01*
X14128850Y-12580793D01*
X14157421Y-12580793D01*
X14176469Y-12590317D01*
X14185993Y-12609364D01*
X14185993Y-12714126D01*
X14185993Y-12609364D02*
X14195517Y-12590317D01*
X14214564Y-12580793D01*
X14243136Y-12580793D01*
X14262183Y-12590317D01*
X14271707Y-12609364D01*
X14271707Y-12714126D01*
X14662183Y-12504602D02*
X14490755Y-12761745D01*
X14919326Y-12514126D02*
X14938374Y-12514126D01*
X14957421Y-12523650D01*
X14966945Y-12533174D01*
X14976469Y-12552221D01*
X14985993Y-12590317D01*
X14985993Y-12637936D01*
X14976469Y-12676031D01*
X14966945Y-12695078D01*
X14957421Y-12704602D01*
X14938374Y-12714126D01*
X14919326Y-12714126D01*
X14900278Y-12704602D01*
X14890755Y-12695078D01*
X14881231Y-12676031D01*
X14871707Y-12637936D01*
X14871707Y-12590317D01*
X14881231Y-12552221D01*
X14890755Y-12533174D01*
X14900278Y-12523650D01*
X14919326Y-12514126D01*
X15071707Y-12695078D02*
X15081231Y-12704602D01*
X15071707Y-12714126D01*
X15062183Y-12704602D01*
X15071707Y-12695078D01*
X15071707Y-12714126D01*
X15205040Y-12514126D02*
X15224088Y-12514126D01*
X15243136Y-12523650D01*
X15252659Y-12533174D01*
X15262183Y-12552221D01*
X15271707Y-12590317D01*
X15271707Y-12637936D01*
X15262183Y-12676031D01*
X15252659Y-12695078D01*
X15243136Y-12704602D01*
X15224088Y-12714126D01*
X15205040Y-12714126D01*
X15185993Y-12704602D01*
X15176469Y-12695078D01*
X15166945Y-12676031D01*
X15157421Y-12637936D01*
X15157421Y-12590317D01*
X15166945Y-12552221D01*
X15176469Y-12533174D01*
X15185993Y-12523650D01*
X15205040Y-12514126D01*
X15338374Y-12514126D02*
X15462183Y-12514126D01*
X15395517Y-12590317D01*
X15424088Y-12590317D01*
X15443136Y-12599840D01*
X15452659Y-12609364D01*
X15462183Y-12628412D01*
X15462183Y-12676031D01*
X15452659Y-12695078D01*
X15443136Y-12704602D01*
X15424088Y-12714126D01*
X15366945Y-12714126D01*
X15347898Y-12704602D01*
X15338374Y-12695078D01*
X15652659Y-12714126D02*
X15538374Y-12714126D01*
X15595517Y-12714126D02*
X15595517Y-12514126D01*
X15576469Y-12542698D01*
X15557421Y-12561745D01*
X15538374Y-12571269D01*
X15833612Y-12514126D02*
X15738374Y-12514126D01*
X15728850Y-12609364D01*
X15738374Y-12599840D01*
X15757421Y-12590317D01*
X15805040Y-12590317D01*
X15824088Y-12599840D01*
X15833612Y-12609364D01*
X15843136Y-12628412D01*
X15843136Y-12676031D01*
X15833612Y-12695078D01*
X15824088Y-12704602D01*
X15805040Y-12714126D01*
X15757421Y-12714126D01*
X15738374Y-12704602D01*
X15728850Y-12695078D01*
X15919326Y-12514126D02*
X15919326Y-12552221D01*
X15995517Y-12514126D02*
X15995517Y-12552221D01*
X16290755Y-12790317D02*
X16281231Y-12780793D01*
X16262183Y-12752221D01*
X16252659Y-12733174D01*
X16243136Y-12704602D01*
X16233612Y-12656983D01*
X16233612Y-12618888D01*
X16243136Y-12571269D01*
X16252659Y-12542698D01*
X16262183Y-12523650D01*
X16281231Y-12495078D01*
X16290755Y-12485555D01*
X16395517Y-12599840D02*
X16376469Y-12590317D01*
X16366945Y-12580793D01*
X16357421Y-12561745D01*
X16357421Y-12552221D01*
X16366945Y-12533174D01*
X16376469Y-12523650D01*
X16395517Y-12514126D01*
X16433612Y-12514126D01*
X16452659Y-12523650D01*
X16462183Y-12533174D01*
X16471707Y-12552221D01*
X16471707Y-12561745D01*
X16462183Y-12580793D01*
X16452659Y-12590317D01*
X16433612Y-12599840D01*
X16395517Y-12599840D01*
X16376469Y-12609364D01*
X16366945Y-12618888D01*
X16357421Y-12637936D01*
X16357421Y-12676031D01*
X16366945Y-12695078D01*
X16376469Y-12704602D01*
X16395517Y-12714126D01*
X16433612Y-12714126D01*
X16452659Y-12704602D01*
X16462183Y-12695078D01*
X16471707Y-12676031D01*
X16471707Y-12637936D01*
X16462183Y-12618888D01*
X16452659Y-12609364D01*
X16433612Y-12599840D01*
X16585993Y-12599840D02*
X16566945Y-12590317D01*
X16557421Y-12580793D01*
X16547898Y-12561745D01*
X16547898Y-12552221D01*
X16557421Y-12533174D01*
X16566945Y-12523650D01*
X16585993Y-12514126D01*
X16624088Y-12514126D01*
X16643136Y-12523650D01*
X16652659Y-12533174D01*
X16662183Y-12552221D01*
X16662183Y-12561745D01*
X16652659Y-12580793D01*
X16643136Y-12590317D01*
X16624088Y-12599840D01*
X16585993Y-12599840D01*
X16566945Y-12609364D01*
X16557421Y-12618888D01*
X16547898Y-12637936D01*
X16547898Y-12676031D01*
X16557421Y-12695078D01*
X16566945Y-12704602D01*
X16585993Y-12714126D01*
X16624088Y-12714126D01*
X16643136Y-12704602D01*
X16652659Y-12695078D01*
X16662183Y-12676031D01*
X16662183Y-12637936D01*
X16652659Y-12618888D01*
X16643136Y-12609364D01*
X16624088Y-12599840D01*
X16900279Y-12714126D02*
X16900279Y-12514126D01*
X16985993Y-12714126D02*
X16985993Y-12609364D01*
X16976469Y-12590317D01*
X16957421Y-12580793D01*
X16928850Y-12580793D01*
X16909802Y-12590317D01*
X16900279Y-12599840D01*
X17109802Y-12714126D02*
X17090755Y-12704602D01*
X17081231Y-12695078D01*
X17071707Y-12676031D01*
X17071707Y-12618888D01*
X17081231Y-12599840D01*
X17090755Y-12590317D01*
X17109802Y-12580793D01*
X17138374Y-12580793D01*
X17157421Y-12590317D01*
X17166945Y-12599840D01*
X17176469Y-12618888D01*
X17176469Y-12676031D01*
X17166945Y-12695078D01*
X17157421Y-12704602D01*
X17138374Y-12714126D01*
X17109802Y-12714126D01*
X17290755Y-12714126D02*
X17271707Y-12704602D01*
X17262183Y-12685555D01*
X17262183Y-12514126D01*
X17443136Y-12704602D02*
X17424088Y-12714126D01*
X17385993Y-12714126D01*
X17366945Y-12704602D01*
X17357421Y-12685555D01*
X17357421Y-12609364D01*
X17366945Y-12590317D01*
X17385993Y-12580793D01*
X17424088Y-12580793D01*
X17443136Y-12590317D01*
X17452660Y-12609364D01*
X17452660Y-12628412D01*
X17357421Y-12647459D01*
X17528850Y-12704602D02*
X17547898Y-12714126D01*
X17585993Y-12714126D01*
X17605040Y-12704602D01*
X17614564Y-12685555D01*
X17614564Y-12676031D01*
X17605040Y-12656983D01*
X17585993Y-12647459D01*
X17557421Y-12647459D01*
X17538374Y-12637936D01*
X17528850Y-12618888D01*
X17528850Y-12609364D01*
X17538374Y-12590317D01*
X17557421Y-12580793D01*
X17585993Y-12580793D01*
X17605040Y-12590317D01*
X17681231Y-12790317D02*
X17690755Y-12780793D01*
X17709802Y-12752221D01*
X17719326Y-12733174D01*
X17728850Y-12704602D01*
X17738374Y-12656983D01*
X17738374Y-12618888D01*
X17728850Y-12571269D01*
X17719326Y-12542698D01*
X17709802Y-12523650D01*
X17690755Y-12495078D01*
X17681231Y-12485555D01*
M02*
